<?xml version="1.0" encoding="UTF-8" standalone="no"?>
<!-- Created with Inkscape (http://www.inkscape.org/) -->
<svg
   xmlns:dc="http://purl.org/dc/elements/1.1/"
   xmlns:cc="http://web.resource.org/cc/"
   xmlns:rdf="http://www.w3.org/1999/02/22-rdf-syntax-ns#"
   xmlns:svg="http://www.w3.org/2000/svg"
   xmlns="http://www.w3.org/2000/svg"
   xmlns:sodipodi="http://sodipodi.sourceforge.net/DTD/sodipodi-0.dtd"
   xmlns:inkscape="http://www.inkscape.org/namespaces/inkscape"
   width="744.09448819"
   height="1052.3622047"
   id="svg3645"
   sodipodi:version="0.32"
   inkscape:version="0.44.1"
   sodipodi:docbase="/home/uyar/ders/vtys/sunumlar/08.UygulamaGelistirme"
   sodipodi:docname="esql.svg">
  <defs
     id="defs3647">
    <marker
       inkscape:stockid="Arrow1Mend"
       orient="auto"
       refY="0.0"
       refX="0.0"
       id="Arrow1Mend"
       style="overflow:visible;">
      <path
         id="path7412"
         d="M 0.0,0.0 L 5.0,-5.0 L -12.5,0.0 L 5.0,5.0 L 0.0,0.0 z "
         style="fill-rule:evenodd;stroke:#000000;stroke-width:1.0pt;marker-start:none;"
         transform="scale(0.4) rotate(180) translate(10,0)" />
    </marker>
  </defs>
  <sodipodi:namedview
     id="base"
     pagecolor="#ffffff"
     bordercolor="#666666"
     borderopacity="1.0"
     gridtolerance="10000"
     guidetolerance="10"
     objecttolerance="10"
     inkscape:pageopacity="0.0"
     inkscape:pageshadow="2"
     inkscape:zoom="1.0551421"
     inkscape:cx="354.28576"
     inkscape:cy="782.38327"
     inkscape:document-units="px"
     inkscape:current-layer="layer1"
     inkscape:window-width="1280"
     inkscape:window-height="951"
     inkscape:window-x="0"
     inkscape:window-y="0" />
  <metadata
     id="metadata3650">
    <rdf:RDF>
      <cc:Work
         rdf:about="">
        <dc:format>image/svg+xml</dc:format>
        <dc:type
           rdf:resource="http://purl.org/dc/dcmitype/StillImage" />
      </cc:Work>
    </rdf:RDF>
  </metadata>
  <g
     inkscape:label="Layer 1"
     inkscape:groupmode="layer"
     id="layer1">
    <g
       id="g10117">
      <path
         id="path193"
         d="M 44.698223,84.581212 L 44.698223,76.966665 L 45.625305,71.060895 L 46.58048,69.53199 L 53.716198,69.801797 L 62.79036,69.53199 L 69.897985,69.801797 L 69.897985,70.821067 L 68.493316,72.859607 L 68.240476,77.446322 L 68.240476,84.581212 L 67.538141,85.090847 L 66.105379,85.360654 L 60.88001,84.880997 L 57.031217,84.101555 L 56.356976,83.861727 L 58.96966,83.59192 L 62.312773,83.861727 L 65.374951,84.101555 L 67.060554,84.101555 L 67.285301,83.861727 L 67.060554,79.484862 L 67.285301,74.658318 L 67.762888,71.840337 L 67.762888,71.060895 L 65.374951,70.821067 L 59.924835,70.55126 L 52.283436,71.060895 L 47.310908,70.55126 L 46.58048,71.840337 L 46.102892,74.658318 L 45.625305,79.754669 L 45.428651,83.921684 L 47.788495,84.371362 L 50.65402,84.101555 L 53.070051,83.921684 L 55.401801,83.681856 L 55.935575,84.371362 L 54.502813,84.431319 L 52.283436,84.581212 L 50.007872,85.210761 L 46.9176,85.210761 L 44.698223,84.581212 z "
         style="fill:black;stroke:none;visibility:visible;stroke-width:1.25;stroke-miterlimit:4;stroke-dasharray:none" />
      <path
         id="path195"
         d="M 51.581101,94.174341 L 51.581101,98.251422 L 51.524915,102.44842 L 51.131607,105.2664 L 52.002502,106.22571 L 52.311529,105.71608 L 52.48009,103.91736 L 52.48009,97.741787 L 52.48009,93.664706 L 52.48009,91.865995 L 47.732308,92.135801 L 44.613943,92.645436 L 40.343749,93.215029 L 35.595968,93.934513 L 27.982662,93.724664 L 24.414803,92.9752 L 24.414803,93.99447 L 25.369978,96.572624 L 25.819472,100.05013 L 25.454258,103.13792 L 25.145231,105.92593 L 25.201418,107.30494 L 28.684997,107.57474 L 32.814724,107.215 L 37.562505,106.7953 L 42.254099,106.7953 L 46.83332,106.9452 L 49.839312,106.7953 L 50.56974,106.70537 L 50.176432,105.71608 L 47.310908,105.92593 L 45.569118,106.04584 L 41.776512,105.92593 L 38.4334,105.92593 L 34.69698,106.22571 L 31.550521,106.22571 L 28.994024,106.55547 L 26.156592,106.22571 L 26.156592,104.99659 L 26.5499,102.62829 L 26.774647,100.17005 L 26.409433,96.962345 L 25.819472,94.683976 L 25.931845,94.264277 L 27.842195,94.683976 L 30.904374,94.773912 L 34.94982,94.953783 L 38.68624,94.444148 L 42.338379,93.934513 L 45.821958,93.215029 L 48.99651,93.155071 L 51.581101,92.885265 L 51.581101,94.174341 z "
         style="fill:black;stroke:none;visibility:visible;stroke-width:1.25;stroke-miterlimit:4;stroke-dasharray:none" />
      <path
         id="path197"
         d="M 58.351606,99.180756 L 59.138221,96.092967 L 59.559621,93.964492 L 59.756275,91.925952 L 58.829193,91.506252 L 58.913474,94.234299 L 58.660633,96.272839 L 58.183046,97.801744 L 57.171684,100.70966 L 56.441256,102.38846 L 56.272696,103.49766 L 56.750283,104.96661 L 57.480711,104.96661 L 58.913474,104.27711 L 63.408414,104.18717 L 70.881253,104.27711 L 75.966155,104.96661 L 81.07915,105.47625 L 82.034325,105.47625 L 82.624286,104.78674 L 82.371446,102.38846 L 82.146699,99.180756 L 81.416271,96.542645 L 80.629656,93.964492 L 79.983509,92.795329 L 78.719306,91.656145 L 77.848412,91.506252 L 72.791603,91.656145 L 69.279931,91.776059 L 65.936819,91.925952 L 62.6218,91.776059 L 62.144212,92.16578 L 62.144212,92.945222 L 64.054562,92.945222 L 68.970904,92.945222 L 73.325378,92.435587 L 76.92133,92.435587 L 78.073159,92.675415 L 79.196894,93.514814 L 79.758762,94.474127 L 80.404909,96.272839 L 81.331991,99.060842 L 81.416271,100.58975 L 81.556738,104.0073 L 81.331991,104.45698 L 79.983509,104.27711 L 77.117984,103.94734 L 73.578218,103.67754 L 71.358841,103.43771 L 65.936819,103.25784 L 61.919465,103.1679 L 58.829193,103.1679 L 57.705458,103.25784 L 57.171684,102.65827 L 57.227871,101.4891 L 57.874019,100.20003 L 58.351606,99.180756 z "
         style="fill:black;stroke:none;visibility:visible;stroke-width:1.25;stroke-miterlimit:4;stroke-dasharray:none" />
      <path
         id="path199"
         d="M 68.68997,91.895973 L 68.240476,88.778206 L 68.409036,86.469859 L 68.802343,84.731105 L 69.645145,84.641169 L 69.083277,86.949516 L 69.279931,88.868142 L 69.560865,91.746081 L 68.68997,91.895973 z "
         style="fill:black;stroke:none;visibility:visible;stroke-width:1.25;stroke-miterlimit:4;stroke-dasharray:none" />
      <path
         id="path201"
         d="M 90.125219,104.51693 L 87.372067,104.24713 L 85.630278,103.73749 L 85.377438,105.47625 L 94.254946,105.20644 L 102.34584,105.5362 L 107.73977,105.80601 L 107.57121,104.51693 L 107.57121,99.390606 L 107.73977,93.664706 L 107.31837,92.885265 L 106.39129,92.37563 L 100.12646,92.705393 L 93.693078,92.645436 L 88.467709,92.465565 L 87.372067,92.885265 L 87.119227,93.484835 L 86.89448,97.082259 L 86.416893,100.91951 L 85.939305,103.1679 L 86.64164,103.1679 L 87.119227,101.42915 L 87.512534,97.591894 L 87.737281,95.463418 L 87.849655,93.724664 L 88.467709,93.3949 L 89.731911,93.3949 L 94.95728,93.484835 L 100.46358,93.484835 L 104.87424,93.3949 L 105.68895,93.215029 L 106.78459,94.444148 L 107.00934,95.973053 L 106.84078,101.93878 L 106.64413,104.51693 L 105.9137,104.96661 L 102.093,104.69681 L 96.305762,104.51693 L 91.642261,104.69681 L 89.422884,104.51693 L 90.125219,104.51693 z "
         style="fill:black;stroke:none;visibility:visible;stroke-width:1.25;stroke-miterlimit:4;stroke-dasharray:none" />
      <path
         id="path203"
         d="M 46.327639,88.0887 L 58.239232,88.0887 L 67.734795,87.788915 L 74.9267,87.669 L 81.528644,87.968786 L 89.647631,87.788915 L 95.350587,87.399194 L 96.052922,88.358507 L 91.698448,88.358507 L 84.843663,88.838163 L 75.600941,88.838163 L 70.965534,88.568356 L 63.127481,88.838163 L 56.834563,88.838163 L 49.726938,88.928099 L 46.552386,89.407755 L 46.327639,88.0887 z "
         style="fill:black;stroke:none;visibility:visible;stroke-width:1.25;stroke-miterlimit:4;stroke-dasharray:none" />
      <path
         id="path205"
         d="M 95.800082,93.005179 L 96.530509,88.508399 L 96.530509,86.589773 L 97.429498,87.639022 L 97.148564,91.086553 L 97.064284,93.18505 L 95.800082,93.005179 z "
         style="fill:black;stroke:none;visibility:visible;stroke-width:1.25;stroke-miterlimit:4;stroke-dasharray:none" />
      <path
         id="path207"
         d="M 55.120867,134.49546 L 55.120867,133.98583 L 54.64328,133.47619 L 50.344993,131.91731 L 45.765772,130.65821 L 43.237368,129.36914 L 43.855422,128.88948 L 45.821958,129.78884 L 46.552386,130.38841 L 49.558378,130.89804 L 51.946315,131.67748 L 55.738922,133.14643 L 56.946937,133.65607 L 56.525536,134.22566 L 55.514175,136.29418 L 53.631918,138.81237 L 52.030595,140.61108 L 51.777755,141.39053 L 51.300168,141.12072 L 48.350363,139.59181 L 45.512931,138.30274 L 42.647407,137.28347 L 40.287563,136.80381 L 36.803984,136.44407 L 34.331766,135.78454 L 32.505696,134.76527 L 31.719082,134.22566 L 31.325774,133.65607 L 32.674257,132.09718 L 35.062194,130.56828 L 37.169197,129.78884 L 39.332388,129.54901 L 41.327018,128.52974 L 41.973165,128.11004 L 42.647407,128.37984 L 42.647407,128.88948 L 40.76515,129.78884 L 38.208652,130.1186 L 36.326396,130.56828 L 34.640793,131.40768 L 33.151844,133.14643 L 34.163206,134.49546 L 36.017369,135.51473 L 38.60196,135.78454 L 41.804605,136.02437 L 44.642037,136.9537 L 46.945694,138.06291 L 50.344993,139.53186 L 51.300168,139.77169 L 52.508183,139.08218 L 53.688105,137.46334 L 54.783747,135.78454 L 55.120867,134.49546 z "
         style="fill:black;stroke:none;visibility:visible;stroke-width:1.25;stroke-miterlimit:4;stroke-dasharray:none" />
      <path
         id="path209"
         d="M 79.393548,125.74173 L 82.708566,127.27064 L 85.405531,128.91946 L 88.72055,130.08862 L 90.153312,130.59826 L 90.153312,131.46763 L 89.198137,132.2171 L 86.248332,132.93658 L 81.978139,134.97512 L 77.061797,137.01366 L 73.522031,138.30274 L 72.482576,138.66248 L 70.572226,138.54257 L 69.251837,137.88304 L 66.442499,135.48476 L 64.560243,133.77598 L 62.172306,132.66677 L 59.952929,131.3777 L 58.520166,130.92802 L 58.520166,130.20853 L 60.065302,129.42909 L 63.127481,128.0201 L 66.920087,127.09077 L 70.881253,126.3413 L 74.617673,125.56186 L 77.314637,125.29206 L 79.393548,124.27279 L 80.320629,124.27279 L 80.320629,125.29206 L 77.314637,126.01154 L 74.84242,126.3413 L 71.527401,126.73103 L 67.397674,127.36057 L 64.475963,128.37984 L 62.116119,129.15929 L 60.261956,130.08862 L 60.514796,130.59826 L 62.818453,131.88733 L 65.431138,133.44622 L 66.920087,134.55542 L 68.914717,136.35413 L 70.347479,137.5233 L 71.780242,138.03293 L 72.257829,137.88304 L 75.179541,136.86377 L 78.269812,135.75456 L 81.135337,134.46549 L 84.197516,132.99654 L 85.883118,132.2171 L 87.456348,131.70746 L 88.411523,131.3777 L 88.158682,130.86806 L 87.456348,130.41838 L 84.675103,129.30918 L 81.753392,127.78027 L 80.067789,126.73103 L 79.393548,125.74173 z "
         style="fill:black;stroke:none;visibility:visible;stroke-width:1.25;stroke-miterlimit:4;stroke-dasharray:none" />
      <path
         id="path211"
         d="M 90.602806,126.73103 L 88.945297,126.58113 L 86.89448,127.09077 L 83.467088,128.37984 L 82.511913,127.7503 L 86.164052,126.58113 L 88.945297,125.95158 L 90.855647,125.95158 L 92.96265,126.46122 L 96.165295,128.11004 L 99.873622,129.54901 L 104.17191,130.83808 L 106.30701,131.61753 L 106.05417,132.39697 L 104.95852,133.50617 L 102.82343,133.746 L 97.289031,134.79525 L 93.777358,135.54471 L 91.810822,136.47405 L 89.479071,137.88304 L 88.80483,138.78239 L 87.372067,139.0522 L 86.416893,139.0522 L 84.422263,137.25349 L 83.242341,135.81452 L 81.893858,134.97512 L 83.467088,134.25564 L 84.73129,135.69461 L 86.107865,137.34342 L 86.89448,137.88304 L 87.990122,137.76312 L 89.900472,136.74385 L 92.119849,135.54471 L 94.170665,134.52544 L 96.811443,134.01581 L 100.12646,133.50617 L 102.99199,133.14643 L 103.69432,132.9066 L 104.25619,132.12716 L 101.55922,130.92802 L 98.721793,129.87877 L 94.423506,128.11004 L 92.344596,127.3306 L 91.810822,126.82096 L 90.602806,126.73103 z "
         style="fill:black;stroke:none;visibility:visible;stroke-width:1.25;stroke-miterlimit:4;stroke-dasharray:none" />
      <path
         id="path213"
         d="M 63.296041,136.86377 L 63.548881,134.61538 L 64.082655,133.50617 L 63.127481,132.99654 L 62.340866,135.30488 L 62.340866,138.93229 L 61.694718,141.21066 L 61.947559,142.08003 L 63.548881,143.00937 L 66.69534,143.33913 L 71.864522,143.60894 L 75.909968,143.78881 L 80.685843,144.62821 L 85.349344,145.40765 L 86.079772,145.13784 L 85.826932,144.29844 L 83.691835,140.55113 L 82.73666,138.15284 L 82.006232,135.63465 L 81.781485,135.12501 L 81.163431,135.90446 L 81.528644,137.88304 L 82.5681,140.28132 L 83.691835,142.34984 L 84.225609,144.05862 L 83.916582,144.29844 L 80.685843,143.78881 L 77.00561,143.00937 L 72.988257,142.49973 L 68.661876,142.49973 L 65.908725,142.34984 L 63.773628,141.5704 L 62.649893,140.94085 L 62.902734,139.65177 L 63.380321,138.75242 L 63.380321,137.88304 L 63.296041,136.86377 z "
         style="fill:black;stroke:none;visibility:visible;stroke-width:1.25;stroke-miterlimit:4;stroke-dasharray:none" />
      <path
         id="path215"
         d="M 43.096901,87.249301 L 42.310286,85.180782 L 40.68087,83.771792 L 39.276201,83.262157 L 38.124372,83.262157 L 37.141104,83.771792 L 36.185929,85.510546 L 36.185929,87.908829 L 36.663517,89.587626 L 37.646785,91.506252 L 39.585228,93.215029 L 41.523671,93.724664 L 43.096901,93.215029 L 43.939702,92.16578 L 44.080169,89.977347 L 43.939702,88.748228 L 46.018612,87.039451 L 46.187172,86.200052 L 45.035344,86.020181 L 43.096901,87.249301 z "
         style="fill:black;stroke:none;visibility:visible;stroke-width:1.25;stroke-miterlimit:4;stroke-dasharray:none" />
      <path
         id="path217"
         d="M 42.478846,97.561915 L 42.001259,95.703246 L 42.478846,95.01374 L 42.619313,94.324234 L 44.276823,94.324234 L 45.231997,95.01374 L 46.83332,96.872409 L 47.816588,99.270692 L 48.799857,102.47839 L 49.108884,105.35633 L 48.968417,108.11436 L 48.294176,109.97303 L 47.339001,111.14219 L 45.737678,111.32206 L 44.445383,110.81243 L 43.293554,109.61328 L 42.984527,107.75462 L 43.124994,105.71608 L 43.771142,104.33706 L 44.080169,102.47839 L 43.602581,100.46983 L 43.293554,99.270692 L 42.478846,97.561915 z "
         style="fill:black;stroke:none;visibility:visible;stroke-width:1.25;stroke-miterlimit:4;stroke-dasharray:none" />
      <path
         id="path219"
         d="M 45.597211,109.22356 L 46.074799,108.20429 L 47.226627,108.02442 L 48.322269,108.53406 L 49.951685,111.2621 L 51.693475,115.00942 L 52.002502,118.03725 L 52.171062,123.46337 L 51.693475,127.21068 L 51.693475,127.90019 L 53.154331,128.73959 L 56.666003,129.75886 L 56.666003,130.41838 L 55.036587,131.43765 L 53.463358,130.92802 L 50.7383,129.06935 L 49.951685,128.22995 L 49.951685,127.39055 L 50.56974,126.88092 L 51.215887,123.79313 L 51.047327,119.23639 L 50.429273,116.35845 L 48.799857,112.76103 L 47.058067,110.90236 L 45.597211,109.22356 z "
         style="fill:black;stroke:none;visibility:visible;stroke-width:1.25;stroke-miterlimit:4;stroke-dasharray:none" />
      <path
         id="path221"
         d="M 42.394566,111.11221 L 43.237368,108.23427 L 44.220636,107.57474 L 45.821958,108.56404 L 45.147717,110.60258 L 44.023982,112.13148 L 43.546395,113.87024 L 43.546395,116.38843 L 44.698223,120.28564 L 46.468106,124.36272 L 47.282814,125.89163 L 46.973787,127.6004 L 45.821958,127.7503 L 43.546395,127.7503 L 40.793243,128.4398 L 39.809975,128.4398 L 39.978535,126.58113 L 40.793243,126.40126 L 44.529663,126.40126 L 45.147717,126.22139 L 45.681492,125.74173 L 45.00725,123.37343 L 43.855422,120.6154 L 42.872154,118.42697 L 42.394566,116.05867 L 42.254099,113.69036 L 42.254099,112.13148 L 42.394566,111.11221 z "
         style="fill:black;stroke:none;visibility:visible;stroke-width:1.25;stroke-miterlimit:4;stroke-dasharray:none" />
      <path
         id="path223"
         d="M 44.810597,95.253569 L 44.333009,96.272839 L 45.119624,97.442001 L 46.074799,97.442001 L 50.204526,96.272839 L 53.997132,94.054427 L 57.368338,91.686123 L 61.947559,87.968786 L 65.290671,84.22147 L 68.128102,80.684003 L 69.083277,77.955957 L 69.083277,76.45703 L 67.819075,75.767524 L 66.077285,75.947395 L 65.431138,78.315699 L 65.768258,79.814626 L 66.245846,81.193638 L 65.122111,83.202199 L 62.425146,85.570503 L 59.419154,88.148657 L 55.907482,90.187197 L 52.56437,92.555501 L 49.080791,93.904535 L 47.029974,94.234299 L 44.810597,95.253569 z "
         style="fill:black;stroke:none;visibility:visible;stroke-width:1.25;stroke-miterlimit:4;stroke-dasharray:none" />
      <path
         id="path225"
         d="M 42.956434,95.703246 L 43.574488,96.212882 L 43.574488,97.382044 L 42.619313,98.551207 L 40.259469,96.362774 L 36.101649,91.806038 L 33.545151,88.598335 L 33.376591,87.06943 L 33.685618,85.03089 L 35.792622,82.842457 L 39.894255,79.964518 L 43.743048,77.776086 L 43.883515,76.906708 L 45.203904,76.397073 L 46.777133,77.416343 L 46.608573,79.784647 L 45.512931,80.474153 L 44.220636,80.144389 L 43.743048,78.945248 L 40.568496,80.803917 L 36.579236,83.501985 L 34.94982,84.880997 L 34.163206,86.379924 L 34.331766,87.908829 L 35.624062,89.587626 L 39.416668,92.825308 L 41.046084,94.324234 L 42.956434,95.703246 z "
         style="fill:black;stroke:none;visibility:visible;stroke-width:1.25;stroke-miterlimit:4;stroke-dasharray:none" />
    </g>
    <path
       style="fill:none;stroke:black;stroke-width:1.25;visibility:visible;stroke-miterlimit:4;stroke-dasharray:none;marker-start:none;marker-end:url(#Arrow1Mend)"
       d="M 107.71167,107.36489 L 110.07152,107.51479 L 112.20662,107.96447 L 114.11697,108.71393 L 115.80257,109.67324 L 117.29152,110.90236 L 118.61191,112.34133 L 119.73564,113.99015 L 120.747,115.81884 L 122.37642,119.89592 L 123.64062,124.45266 L 125.46669,134.37555 L 127.32085,144.29844 L 128.55696,148.85518 L 130.18638,152.93226 L 131.19774,154.76095 L 132.32148,156.40977 L 133.64186,157.84874 L 135.13081,159.07786 L 136.81642,160.03717 L 138.53011,160.6967"
       id="path239" />
    <path
       style="fill:none;stroke:black;stroke-width:1.42725468;marker-start:none;marker-end:url(#Arrow1Mend);stroke-miterlimit:4;stroke-dasharray:none;visibility:visible"
       d="M 66.165912,145.40634 L 67.301534,203.92359 L 70.630083,254.61798 L 76.229874,297.51754 L 84.100911,332.62228 L 88.839195,347.23056 L 94.164871,359.90416 L 100.03878,370.64308 L 106.50008,379.41926 L 109.90694,383.06431 L 113.5096,386.23272 L 117.19059,388.92446 L 121.06736,391.11149 L 125.06163,392.82186 L 129.17335,394.02754 L 131.36628,394.42009"
       id="path255" />
    <text
       style="font-size:18.42811775px;font-weight:400;fill:black;stroke:none;visibility:visible;font-family:Arial embedded;stroke-width:1.25;stroke-miterlimit:4;stroke-dasharray:none"
       id="text279"
       transform="scale(0.968048,1.033007)"
       x="6.8215652"
       y="-67.925957">
      <tspan
         id="tspan281"
         y="384.33197"
         style="stroke-width:1.25;stroke-miterlimit:4;stroke-dasharray:none" />
    </text>
    <path
       id="path327"
       d="M 201.74727,218.67761 L 201.74727,334.12172"
       style="fill:none;stroke:black;stroke-width:1.25;marker-start:none;marker-end:url(#Arrow1Mend);stroke-miterlimit:4;stroke-dasharray:none;visibility:visible" />
    <path
       id="path491"
       d="M 540.23743,354.06972 L 540.23743,187.55859"
       style="fill:none;stroke:black;stroke-width:1.25;marker-start:none;marker-end:url(#Arrow1Mend);stroke-miterlimit:4;stroke-dasharray:none;visibility:visible" />
    <g
       id="g7435">
      <rect
         y="122.7271"
         x="141.22025"
         height="96.669441"
         width="122.25841"
         id="rect4544"
         style="opacity:1;fill:#cce5fe;fill-opacity:1;fill-rule:nonzero;stroke:black;stroke-width:1.25;stroke-miterlimit:4;stroke-dasharray:none;stroke-dashoffset:0;stroke-opacity:1" />
      <text
         sodipodi:linespacing="125%"
         id="text4536"
         y="156.10869"
         x="201.9393"
         style="font-size:16px;font-style:normal;font-variant:normal;font-weight:normal;font-stretch:normal;text-align:center;line-height:125%;writing-mode:lr-tb;text-anchor:middle;fill:black;fill-opacity:1;stroke:none;stroke-width:1.25;stroke-linecap:butt;stroke-linejoin:miter;stroke-miterlimit:4;stroke-dasharray:none;stroke-opacity:1;font-family:Sans"
         xml:space="preserve"><tspan
           y="156.10869"
           x="201.9393"
           id="tspan4538"
           sodipodi:role="line">Taban Dili</tspan><tspan
           id="tspan4540"
           y="176.10869"
           x="201.9393"
           sodipodi:role="line">+</tspan><tspan
           id="tspan4542"
           y="196.10869"
           x="201.9393"
           sodipodi:role="line">Gömülü SQL</tspan></text>
    </g>
    <g
       id="g7428">
      <rect
         style="opacity:1;fill:#cce5fe;fill-opacity:1;fill-rule:nonzero;stroke:black;stroke-width:1.25;stroke-miterlimit:4;stroke-dasharray:none;stroke-dashoffset:0;stroke-opacity:1"
         id="rect4546"
         width="143.95079"
         height="96.563812"
         x="134.63885"
         y="337.91681" />
      <text
         xml:space="preserve"
         style="font-size:16px;font-style:normal;font-variant:normal;font-weight:normal;font-stretch:normal;text-align:center;line-height:125%;writing-mode:lr-tb;text-anchor:middle;fill:black;fill-opacity:1;stroke:none;stroke-width:1.25;stroke-linecap:butt;stroke-linejoin:miter;stroke-miterlimit:4;stroke-dasharray:none;stroke-opacity:1;font-family:Sans"
         x="206.5752"
         y="370.61279"
         id="text4548"
         sodipodi:linespacing="125%"><tspan
           sodipodi:role="line"
           id="tspan4550"
           x="206.5752"
           y="370.61279">Taban Dili</tspan><tspan
           sodipodi:role="line"
           x="206.5752"
           y="390.61279"
           id="tspan4552">+</tspan><tspan
           sodipodi:role="line"
           x="206.5752"
           y="410.61279"
           id="tspan4554">Kitaplık Çağrıları</tspan></text>
    </g>
    <text
       sodipodi:linespacing="125%"
       id="text4556"
       y="284.05353"
       x="254.06497"
       style="font-size:16;font-style:italic;font-variant:normal;font-weight:normal;font-stretch:normal;text-align:center;line-height:125%;writing-mode:lr;text-anchor:middle;fill:black;fill-opacity:1;stroke:none;stroke-width:1.25;stroke-linecap:butt;stroke-linejoin:miter;stroke-miterlimit:4;stroke-dasharray:none;stroke-opacity:1;font-family:Sans"
       xml:space="preserve"><tspan
         id="tspan4562"
         y="284.05353"
         x="254.06497"
         sodipodi:role="line">önderleyici</tspan></text>
    <g
       id="g7442"
       transform="translate(0,6.731655)">
      <path
         transform="translate(40.7528,-2.843212)"
         d="M 556.32315 382.31027 A 56.864376 30.327667 0 1 1  442.59439,382.31027 A 56.864376 30.327667 0 1 1  556.32315 382.31027 z"
         sodipodi:ry="30.327667"
         sodipodi:rx="56.864376"
         sodipodi:cy="382.31027"
         sodipodi:cx="499.45877"
         id="path4573"
         style="opacity:1;fill:#cce5fe;fill-opacity:1;fill-rule:nonzero;stroke:black;stroke-width:1.25;stroke-miterlimit:4;stroke-dasharray:none;stroke-dashoffset:0;stroke-opacity:1"
         sodipodi:type="arc" />
      <text
         xml:space="preserve"
         style="font-size:16px;font-style:normal;font-variant:normal;font-weight:normal;font-stretch:normal;text-align:center;line-height:125%;writing-mode:lr-tb;text-anchor:middle;fill:black;fill-opacity:1;stroke:none;stroke-width:1.25;stroke-linecap:butt;stroke-linejoin:miter;stroke-miterlimit:4;stroke-dasharray:none;stroke-opacity:1;font-family:Sans"
         x="540.87567"
         y="385.43188"
         id="text4575"
         sodipodi:linespacing="125%"><tspan
           sodipodi:role="line"
           x="540.87567"
           y="385.43188"
           id="tspan4577">Ara Kod</tspan></text>
    </g>
    <g
       id="g7447"
       transform="translate(-48,-44)">
      <path
         sodipodi:type="arc"
         style="opacity:1;fill:#cce5fe;fill-opacity:1;fill-rule:nonzero;stroke:black;stroke-width:1.25;stroke-miterlimit:4;stroke-dasharray:none;stroke-dashoffset:0;stroke-opacity:1"
         id="path4579"
         sodipodi:cx="499.45877"
         sodipodi:cy="382.31027"
         sodipodi:rx="56.864376"
         sodipodi:ry="30.327667"
         d="M 556.32315 382.31027 A 56.864376 30.327667 0 1 1  442.59439,382.31027 A 56.864376 30.327667 0 1 1  556.32315 382.31027 z"
         transform="translate(185.7569,-72.02822)" />
      <text
         sodipodi:linespacing="125%"
         id="text4581"
         y="314.89923"
         x="685.43451"
         style="font-size:16px;font-style:normal;font-variant:normal;font-weight:normal;font-stretch:normal;text-align:center;line-height:125%;writing-mode:lr-tb;text-anchor:middle;fill:black;fill-opacity:1;stroke:none;stroke-width:1.25;stroke-linecap:butt;stroke-linejoin:miter;stroke-miterlimit:4;stroke-dasharray:none;stroke-opacity:1;font-family:Sans"
         xml:space="preserve"><tspan
           id="tspan4583"
           y="314.89923"
           x="685.43451"
           sodipodi:role="line">SQL Kitaplığı</tspan></text>
    </g>
    <g
       id="g7452">
      <path
         sodipodi:type="arc"
         style="opacity:1;fill:#cce5fe;fill-opacity:1;fill-rule:nonzero;stroke:black;stroke-width:1.0738529;stroke-miterlimit:4;stroke-dasharray:none;stroke-dashoffset:0;stroke-opacity:1"
         id="path4585"
         sodipodi:cx="499.45877"
         sodipodi:cy="382.31027"
         sodipodi:rx="56.864376"
         sodipodi:ry="30.327667"
         d="M 556.32315 382.31027 A 56.864376 30.327667 0 1 1  442.59439,382.31027 A 56.864376 30.327667 0 1 1  556.32315 382.31027 z"
         transform="matrix(1.114864,0,0,1.21537,-13.77369,-315.4819)" />
      <text
         sodipodi:linespacing="125%"
         id="text4587"
         y="147.58054"
         x="542.61353"
         style="font-size:16px;font-style:normal;font-variant:normal;font-weight:normal;font-stretch:normal;text-align:center;line-height:125%;writing-mode:lr-tb;text-anchor:middle;fill:black;fill-opacity:1;stroke:none;stroke-width:1.25;stroke-linecap:butt;stroke-linejoin:miter;stroke-miterlimit:4;stroke-dasharray:none;stroke-opacity:1;font-family:Sans"
         xml:space="preserve"><tspan
           id="tspan4589"
           y="147.58054"
           x="542.61353"
           sodipodi:role="line">Çalıştırılabilir</tspan><tspan
           id="tspan4591"
           y="167.58054"
           x="542.61353"
           sodipodi:role="line">Dosya</tspan></text>
    </g>
    <path
       style="fill:none;fill-opacity:0.75;fill-rule:evenodd;stroke:black;stroke-width:1.25;stroke-linecap:butt;stroke-linejoin:miter;marker-end:url(#Arrow1Mend);stroke-miterlimit:4;stroke-dasharray:none;stroke-opacity:1"
       d="M 279.6877,386.19872 L 482.50398,386.19872"
       id="path7458" />
    <path
       style="fill:none;fill-opacity:0.75;fill-rule:evenodd;stroke:black;stroke-width:1.25;stroke-linecap:butt;stroke-linejoin:miter;stroke-opacity:1;stroke-miterlimit:4;stroke-dasharray:none;marker-end:url(#Arrow1Mend)"
       d="M 592.33725,245.83578 L 545.89801,187.07593"
       id="path9230" />
    <text
       xml:space="preserve"
       style="font-size:16px;font-style:italic;font-variant:normal;font-weight:normal;font-stretch:normal;text-align:center;line-height:125%;writing-mode:lr-tb;text-anchor:middle;fill:black;fill-opacity:1;stroke:none;stroke-width:1.25;stroke-linecap:butt;stroke-linejoin:miter;stroke-miterlimit:4;stroke-dasharray:none;stroke-opacity:1;font-family:Sans"
       x="495.31345"
       y="281.2103"
       id="text1928"
       sodipodi:linespacing="125%"><tspan
         sodipodi:role="line"
         x="495.31345"
         y="281.2103"
         id="tspan1930">bağlayıcı</tspan></text>
    <text
       sodipodi:linespacing="125%"
       id="text1932"
       y="377.34302"
       x="384.74146"
       style="font-size:16px;font-style:italic;font-variant:normal;font-weight:normal;font-stretch:normal;text-align:center;line-height:125%;writing-mode:lr-tb;text-anchor:middle;fill:black;fill-opacity:1;stroke:none;stroke-width:1.25;stroke-linecap:butt;stroke-linejoin:miter;stroke-miterlimit:4;stroke-dasharray:none;stroke-opacity:1;font-family:Sans"
       xml:space="preserve"><tspan
         id="tspan1934"
         y="377.34302"
         x="384.74146"
         sodipodi:role="line">taban dil derleyicisi</tspan></text>
  </g>
</svg>
