<?xml version="1.0" encoding="UTF-8" standalone="no"?>
<!-- Created with Inkscape (http://www.inkscape.org/) -->
<svg
   xmlns:dc="http://purl.org/dc/elements/1.1/"
   xmlns:cc="http://web.resource.org/cc/"
   xmlns:rdf="http://www.w3.org/1999/02/22-rdf-syntax-ns#"
   xmlns:svg="http://www.w3.org/2000/svg"
   xmlns="http://www.w3.org/2000/svg"
   xmlns:sodipodi="http://sodipodi.sourceforge.net/DTD/sodipodi-0.dtd"
   xmlns:inkscape="http://www.inkscape.org/namespaces/inkscape"
   version="1.0"
   width="260"
   height="250"
   id="svg2"
   sodipodi:version="0.32"
   inkscape:version="0.45"
   sodipodi:docname="POV-Ray-dodecahedron.svg"
   sodipodi:docbase="/home/david/Inkscape Files/Wiki"
   inkscape:output_extension="org.inkscape.output.svg.inkscape"
   sodipodi:modified="true">
  <metadata
     id="metadata2238">
    <rdf:RDF>
      <cc:Work
         rdf:about="">
        <dc:format>image/svg+xml</dc:format>
        <dc:type
           rdf:resource="http://purl.org/dc/dcmitype/StillImage" />
      </cc:Work>
    </rdf:RDF>
  </metadata>
  <sodipodi:namedview
     inkscape:window-height="873"
     inkscape:window-width="1005"
     inkscape:pageshadow="2"
     inkscape:pageopacity="0"
     guidetolerance="10.0"
     gridtolerance="10.0"
     objecttolerance="10.0"
     borderopacity="1.0"
     bordercolor="#666666"
     pagecolor="#ffffff"
     id="base"
     showguides="false"
     width="260px"
     height="250px"
     inkscape:zoom="1.6150794"
     inkscape:cx="128.66336"
     inkscape:cy="124.51358"
     inkscape:window-x="170"
     inkscape:window-y="67"
     inkscape:current-layer="svg2" />
  <defs
     id="defs4">
    <linearGradient
       id="linearGradient3302">
      <stop
         style="stop-color:#2c7117;stop-opacity:1"
         offset="0"
         id="stop3304" />
      <stop
         style="stop-color:#20370e;stop-opacity:1"
         offset="0.5"
         id="stop3310" />
      <stop
         style="stop-color:#3f770b;stop-opacity:1"
         offset="1"
         id="stop3306" />
    </linearGradient>
    <filter
       id="filter5596">
      <feGaussianBlur
         id="feGaussianBlur5598"
         stdDeviation="1.3701497"
         inkscape:collect="always" />
    </filter>
  </defs>
  <g
     id="g3283">
    <path
       transform="matrix(0.3617292,0,0,0.3617292,-5.1206476,-0.2815545)"
       id="path4587"
       style="fill:#539958;"
       d="M 422.52675,687.77972 C 421.25321,687.70484 402.88622,686.60297 381.71122,685.33113 C 360.53622,684.05929 322.73622,681.8594 297.71122,680.44248 C 272.68622,679.02555 239.84788,677.17383 224.73713,676.32753 C 209.62638,675.48123 196.72656,674.34356 196.07085,673.79938 C 195.41515,673.25519 188.46263,661.69628 180.62081,648.11291 C 172.77898,634.52954 159.0825,610.81587 150.18417,595.41587 C 141.28584,580.01587 125.081,551.89087 114.17341,532.91587 C 103.26581,513.94087 93.742608,497.23037 93.010727,495.78143 C 92.278846,494.33249 81.078344,464.40749 68.120722,429.28143 C 55.1631,394.15537 43.080712,361.36586 41.27097,356.41587 C 39.461229,351.46587 34.524575,338.00595 30.300629,326.50496 C 26.076683,315.00396 22.864516,304.95876 23.162481,304.18226 C 23.460446,303.40578 27.524566,297.7407 32.193857,291.59317 C 36.863149,285.44565 43.96611,276.14087 47.978215,270.91587 C 51.99032,265.69087 60.238391,254.89086 66.307262,246.91587 C 72.376132,238.94087 80.254927,228.59087 83.815695,223.91587 C 87.376463,219.24086 93.224739,211.59087 96.811863,206.91587 C 100.39899,202.24086 109.13538,190.76586 116.22608,181.41587 C 123.31677,172.06587 132.2198,160.36586 136.01059,155.41587 C 139.80138,150.46587 147.0223,140.96553 152.05708,134.304 L 161.21122,122.19212 L 197.21122,98.868788 C 217.01122,86.040952 240.63622,70.743505 249.71122,64.874462 C 258.78622,59.005418 278.58622,46.176546 293.71122,36.365857 C 316.66506,21.477064 321.78982,18.544645 324.71122,18.627476 C 326.63622,18.682056 350.48622,23.965745 377.71122,30.369007 C 404.93622,36.772268 430.81122,42.862912 435.21122,43.903771 C 439.61122,44.94463 447.93622,46.920657 453.71122,48.294942 C 459.48622,49.669228 472.98622,52.827149 483.71122,55.312546 C 494.43622,57.797942 514.66446,62.519866 528.66285,65.805711 L 554.11449,71.779973 L 573.70984,91.597919 C 584.48728,102.49779 617.80238,136.31994 647.74338,166.75828 C 677.68438,197.1966 703.16639,223.52159 704.37007,225.25828 C 706.31264,228.06103 706.74188,230.94431 708.18979,250.91587 C 709.08696,263.29087 712.24742,305.36586 715.21303,344.41587 C 718.17864,383.46587 720.91233,419.75885 721.28788,425.06696 L 721.97072,434.71805 L 701.69808,473.56696 C 690.54813,494.93385 679.18453,516.69087 676.44563,521.91587 C 673.70673,527.14087 669.10341,535.91587 666.21604,541.41587 C 663.32867,546.91587 658.49685,556.14087 655.47868,561.91587 C 652.4605,567.69087 644.23753,583.44087 637.20541,596.91587 C 630.17328,610.39087 621.89781,626.12865 618.81547,631.88871 L 613.21122,642.36155 L 585.21122,649.14733 C 569.81122,652.87952 546.18622,658.61068 532.71122,661.88326 C 519.23622,665.15583 489.45321,672.35195 466.52675,677.87463 C 443.60029,683.39731 423.80029,687.8546 422.52675,687.77972 z M 560.88204,285.8768 C 561.25099,285.89828 565.07599,284.39331 569.38204,282.53242 C 573.68809,280.67152 583.28622,276.45401 590.71122,273.16015 C 598.13622,269.8663 609.38622,264.83051 615.71122,261.96953 C 622.03622,259.10854 641.72372,249.96397 659.46122,241.64826 C 677.19872,233.33255 691.71122,226.08941 691.71122,225.55238 C 691.71122,225.01537 688.68799,221.38996 684.99293,217.49593 C 681.29787,213.60189 650.41497,181.92127 616.36426,147.09454 C 582.31355,112.26781 554.1291,84.142807 553.73215,84.594537 C 553.3352,85.046267 549.38348,93.965865 544.95055,104.41587 C 540.51763,114.86587 533.97082,130.39086 530.4021,138.91587 C 526.83338,147.44087 520.44601,162.63554 516.20796,172.68179 C 511.08247,184.8317 508.69234,191.69576 509.06966,193.18179 C 509.38165,194.41054 517.33839,211.84087 526.7513,231.91587 C 536.16421,251.99086 544.97076,270.89087 546.32141,273.91587 C 548.42242,278.6214 549.60294,279.87968 554.49418,282.6268 C 557.63855,284.39281 560.51309,285.85532 560.88204,285.8768 z M 531.96122,269.83416 C 532.37372,269.87911 532.71122,269.63135 532.71122,269.28359 C 532.71122,268.93585 528.60998,259.59834 523.59736,248.53359 C 518.58474,237.46884 511.56928,222.03403 508.00745,214.23403 C 504.44562,206.43401 501.00935,199.37698 500.37131,198.55174 C 499.35659,197.23932 498.14608,197.21759 490.71122,198.37841 C 486.03622,199.10834 476.07377,200.52301 468.57245,201.52213 L 454.93368,203.33873 L 458.77706,214.3773 C 460.89091,220.4485 463.16621,226.81661 463.83326,228.52864 C 464.55512,230.38131 466.49344,232.40537 468.62143,233.52864 C 470.58787,234.56661 476.92502,238.15588 482.704,241.50478 C 488.48297,244.85368 497.03622,249.87836 501.71122,252.67072 C 506.38622,255.46308 514.93622,260.4488 520.71122,263.75011 C 526.48622,267.0514 531.54872,269.78924 531.96122,269.83416 z M 453.86458,191.91587 C 454.87019,191.91587 462.55957,191.23504 470.95209,190.40293 C 479.34461,189.57081 488.01122,188.69367 490.21122,188.45373 C 492.41122,188.21381 495.36537,187.99463 496.77601,187.96668 C 498.66441,187.92926 499.74427,187.05878 500.87073,184.66587 C 501.71219,182.87837 512.2079,158.34072 524.19453,130.13779 C 536.18116,101.93484 545.79719,78.668498 545.56348,78.434795 C 545.32978,78.201093 536.15492,75.990194 525.1749,73.521688 C 514.19487,71.053181 501.61122,68.277671 497.21122,67.353888 C 492.81122,66.430106 483.25927,64.473151 475.98467,63.005101 L 462.75811,60.335919 L 460.65161,69.875892 C 459.49303,75.122877 457.2667,84.140865 455.7042,89.915865 C 454.1417,95.690865 452.16836,103.79087 451.31901,107.91587 C 450.46965,112.04087 449.33486,118.79087 448.79725,122.91587 C 448.25964,127.04087 447.54772,134.69087 447.21519,139.91587 C 446.88267,145.14086 447.09144,154.81587 447.67914,161.41587 C 448.26683,168.01586 449.48759,177.57836 450.39193,182.66587 C 451.75967,190.36026 452.34368,191.91587 453.86458,191.91587 z " />
    <path
       transform="matrix(0.3617292,0,0,0.3617292,-5.1206476,-0.2815545)"
       sodipodi:nodetypes="cssssscccccsssssssssscccsssssssc"
       id="path4589"
       style="fill:#8a8344;"
       d="M 417.88851,687.77223 C 412.566,687.69323 402.36122,687.25292 395.21122,686.79376 C 388.06122,686.33461 341.71122,683.70341 292.21122,680.94665 C 242.71122,678.18989 200.69504,675.5927 198.84194,675.17512 C 195.72592,674.47294 194.64685,672.9877 184.48633,655.41587 C 178.44384,644.96587 169.988,630.34087 165.69557,622.91587 C 161.40314,615.49087 143.08925,583.71801 124.99805,552.30951 L 92.104938,495.20313 L 72.276363,441.30951 L 296.58322,152.72926 L 322.33726,18.116003 C 323.89271,17.28355 331.2713,18.675063 356.26809,24.514947 C 373.83681,28.619446 408.23622,36.676769 432.71122,42.42011 C 457.18622,48.16345 481.93622,53.944343 487.71122,55.266539 C 493.48622,56.588735 509.91122,60.423019 524.21122,63.787172 C 538.51122,67.151324 551.11122,70.112135 552.21122,70.366753 C 553.31122,70.62137 565.93625,82.661582 580.26684,97.12278 C 594.59743,111.58398 619.12243,136.46438 634.76684,152.41258 C 650.41125,168.36076 672.96361,191.31077 684.8832,203.41258 C 697.79259,216.51933 706.7749,226.42668 707.09862,227.91587 C 707.39751,229.29087 708.99547,248.86586 710.64964,271.41587 C 712.30382,293.96587 715.75302,339.93374 718.31454,373.56671 L 722.97185,434.71754 L 690.91198,496.06671 C 673.27905,529.80875 656.51658,561.91587 653.66204,567.41587 C 650.80749,572.91587 643.858,586.19087 638.21872,596.91587 C 632.57943,607.64087 624.94341,622.18118 621.24977,629.22767 C 617.00144,637.33235 613.73994,642.37765 612.37264,642.95994 C 611.18386,643.46619 585.91122,649.71389 556.21122,656.8437 C 526.51122,663.97351 496.58622,671.15876 489.71122,672.81093 C 482.83622,674.4631 466.041,678.5376 452.38851,681.86537 C 430.05612,687.30886 426.59494,687.90146 417.88851,687.77223 z " />
    <path
       transform="matrix(0.3617292,0,0,0.3617292,-5.1206476,-0.2815545)"
       id="path4583"
       style="fill:#60963b;"
       d="M 422.52675,687.77972 C 421.25321,687.70484 402.88622,686.60297 381.71122,685.33113 C 360.53622,684.05929 322.73622,681.85978 297.71122,680.44334 C 272.68622,679.02689 240.06122,677.19626 225.21122,676.37526 C 210.36122,675.55427 197.70597,674.70114 197.08844,674.47942 C 196.47091,674.25769 190.79707,665.15269 184.47991,654.24607 C 178.16274,643.33946 168.71709,626.99087 163.48957,617.91587 C 158.26205,608.84087 148.02261,591.06587 140.73525,578.41587 C 133.44788,565.76587 119.68643,541.91587 110.15423,525.41587 L 92.822968,495.41587 L 70.680005,434.91587 C 58.501375,401.64087 47.681218,372.16587 46.635211,369.41587 C 45.589205,366.66587 42.201019,357.44086 39.105909,348.91587 C 36.0108,340.39087 31.280813,327.52875 28.594827,320.3334 C 25.908841,313.13802 23.711216,306.49109 23.711216,305.56241 C 23.711216,304.63374 26.725845,299.94585 30.410391,295.1449 C 34.094937,290.34393 42.998356,278.76587 50.195767,269.41587 C 57.393177,260.06587 66.641048,248.01056 70.746591,242.62632 C 74.852135,237.24207 81.586216,228.4091 85.711216,222.99748 C 89.836216,217.58588 98.135771,206.69117 104.15467,198.78704 C 110.17357,190.88289 119.40194,178.79087 124.66216,171.91587 C 129.92237,165.04087 135.00708,158.29087 135.96152,156.91587 C 136.91595,155.54087 143.21259,147.23635 149.95404,138.46138 L 162.21122,122.50689 L 187.71122,106.1578 C 201.73622,97.165804 217.48622,87.05404 222.71122,83.687216 C 227.93622,80.320392 239.63622,72.757237 248.71122,66.880206 C 257.78622,61.003175 277.58622,48.195416 292.71122,38.418519 C 307.83622,28.641622 320.94239,20.010121 321.83604,19.237406 C 323.24082,18.022723 324.93356,18.167092 334.33604,20.3035 C 340.31739,21.662567 363.66122,27.102413 386.21122,32.392046 C 408.76122,37.681679 430.81122,42.861564 435.21122,43.902901 C 439.61122,44.944238 447.93622,46.920657 453.71122,48.294942 C 459.48622,49.669228 472.98622,52.827149 483.71122,55.312546 C 494.43622,57.797942 514.66446,62.519866 528.66285,65.805711 L 554.11449,71.779973 L 573.70984,91.597919 C 584.48728,102.49779 617.80238,136.31994 647.74338,166.75828 C 677.68438,197.1966 703.16639,223.52159 704.37007,225.25828 C 706.31264,228.06103 706.74188,230.94431 708.18979,250.91587 C 709.08696,263.29087 712.24742,305.36586 715.21303,344.41587 C 718.17864,383.46587 720.91233,419.75885 721.28788,425.06696 L 721.97072,434.71805 L 701.69808,473.56696 C 690.54813,494.93385 679.18453,516.69087 676.44563,521.91587 C 673.70673,527.14087 669.10341,535.91587 666.21604,541.41587 C 663.32867,546.91587 658.49685,556.14087 655.47868,561.91587 C 652.4605,567.69087 644.23753,583.44087 637.20541,596.91587 C 630.17328,610.39087 621.89781,626.12865 618.81547,631.88871 L 613.21122,642.36155 L 585.21122,649.14733 C 569.81122,652.87952 546.18622,658.61068 532.71122,661.88326 C 519.23622,665.15583 489.45321,672.35195 466.52675,677.87463 C 443.60029,683.39731 423.80029,687.8546 422.52675,687.77972 z M 85.858821,338.63356 C 86.765004,338.51383 104.54,322.45123 125.35883,302.93888 C 146.17764,283.42654 167.48728,263.40155 172.71357,258.43889 C 177.93986,253.47623 196.29753,236.20138 213.5084,220.05034 C 230.71926,203.89932 244.6682,190.32579 244.50605,189.88695 C 244.34389,189.44811 226.66122,176.22697 205.21122,160.50663 C 183.76122,144.78631 165.54451,132.03941 164.72964,132.1802 C 163.91477,132.32098 148.71834,151.55659 130.9598,174.92602 C 113.20125,198.29544 93.383071,224.39086 86.919397,232.91587 C 80.455722,241.44087 66.064651,260.42476 54.939239,275.10228 C 43.813826,289.77981 34.711216,302.42505 34.711216,303.20281 C 34.711216,303.98057 36.848716,305.98485 39.461216,307.65679 C 42.073716,309.32871 53.211216,317.03143 64.211216,324.77394 C 75.211216,332.51646 84.952638,338.75327 85.858821,338.63356 z M 563.33827,287.86669 C 563.95814,287.89373 569.58314,285.47299 575.83827,282.48728 C 582.09339,279.50155 611.04474,265.75553 640.17459,251.94056 C 669.30445,238.12561 693.32294,226.63747 693.54902,226.4114 C 693.77511,226.18532 692.81495,224.63942 691.41534,222.97608 C 690.01574,221.31275 658.85387,189.23124 622.16676,151.68384 C 585.47964,114.13646 554.92924,83.286827 554.27698,83.129115 C 553.56964,82.958085 544.75396,102.32885 532.43208,131.12912 C 521.06965,157.68683 510.61014,182.27863 509.18871,185.77755 L 506.60431,192.13923 L 526.28004,234.77755 C 537.10168,258.22863 546.68824,278.2527 547.58349,279.27549 C 548.47874,280.29829 552.13622,282.63865 555.71122,284.47631 C 559.28622,286.31397 562.71839,287.83963 563.33827,287.86669 z M 535.47464,272.88995 C 536.46102,272.91019 536.42831,272.20322 535.32546,269.66587 C 534.54853,267.87837 526.85125,251.11586 518.22039,232.41587 C 509.58954,213.71587 501.91179,197.77455 501.15874,196.99075 C 499.97553,195.7592 494.38484,196.20908 460.00038,200.30279 C 438.11634,202.90822 419.10282,205.3815 417.74811,205.79895 C 415.55526,206.47465 416.65248,207.32837 427.74811,213.57975 C 434.60282,217.44175 455.96122,229.30728 475.21122,239.94761 C 494.46122,250.58792 515.61122,262.34697 522.21122,266.07884 C 528.81122,269.81069 534.77976,272.87568 535.47464,272.88995 z M 411.21122,199.45333 C 415.61122,199.16749 437.32921,196.76414 459.47341,194.11255 C 481.61761,191.46096 500.13154,188.86947 500.61548,188.35368 C 501.09941,187.83788 510.27657,166.49086 521.00916,140.91587 C 531.74175,115.34086 541.98587,90.908919 543.77388,86.622652 C 545.83525,81.681066 546.67593,78.480575 546.07138,77.876029 C 545.54701,77.351654 539.28896,75.571053 532.1646,73.919138 C 525.04024,72.267223 500.53622,66.60755 477.71122,61.342087 C 454.88622,56.076624 429.68622,50.266362 421.71122,48.430395 C 413.73622,46.594427 390.33622,41.197898 369.71122,36.438109 C 349.08622,31.67832 331.46001,27.569823 330.54187,27.308116 C 329.52759,27.019004 328.65201,27.535396 328.31058,28.624075 C 328.00152,29.60956 324.12142,48.190865 319.68814,69.915865 C 315.25487,91.640865 310.00036,117.40729 308.01146,127.17457 C 306.02257,136.94186 304.57887,145.10809 304.80325,145.32177 C 305.02764,145.53545 325.56528,156.99145 350.44246,170.77955 C 375.31964,184.56767 397.36964,196.77677 399.44246,197.91092 C 402.65529,199.66885 404.39129,199.89636 411.21122,199.45333 z M 250.81935,184.68424 C 251.21443,184.53663 259.11423,177.36317 268.37445,168.74323 C 277.63467,160.12328 287.11509,151.11504 289.44204,148.72492 C 293.45434,144.60369 293.80112,143.76039 296.15622,132.39756 C 297.52206,125.80763 300.20269,112.99087 302.11315,103.91587 C 304.02362,94.840865 307.84205,76.840865 310.59854,63.915865 C 313.35503,50.990865 315.91555,38.503365 316.28859,36.165865 C 316.66162,33.828365 316.73957,31.915865 316.46181,31.915865 C 316.18404,31.915865 299.81403,42.32701 280.084,55.051743 C 260.35397,67.776477 238.36122,81.924506 231.21122,86.491808 C 224.06122,91.05911 207.89385,101.46047 195.28373,109.60593 C 182.67361,117.7514 172.23174,124.86587 172.07958,125.41587 C 171.92742,125.96586 189.41999,139.58664 210.95197,155.68424 C 232.48394,171.78184 250.42426,184.83183 250.81935,184.68424 z " />
    <path
       transform="matrix(0.3617292,0,0,0.3617292,-5.1206476,-0.2815545)"
       id="path4581"
       style="fill:#676d5a;"
       d="M 422.52675,687.77972 C 421.25321,687.70484 402.88622,686.60297 381.71122,685.33113 C 360.53622,684.05929 322.73622,681.85978 297.71122,680.44334 C 272.68622,679.02689 240.06122,677.19626 225.21122,676.37526 C 210.36122,675.55427 197.70597,674.70114 197.08844,674.47942 C 196.47091,674.25769 190.79707,665.15269 184.47991,654.24607 C 178.16274,643.33946 168.71709,626.99087 163.48957,617.91587 C 158.26205,608.84087 148.02261,591.06587 140.73525,578.41587 C 133.44788,565.76587 119.68643,541.91587 110.15423,525.41587 L 92.822968,495.41587 L 70.680005,434.91587 C 58.501375,401.64087 47.681218,372.16587 46.635211,369.41587 C 45.589205,366.66587 42.201019,357.44086 39.105909,348.91587 C 36.0108,340.39087 31.280813,327.52875 28.594827,320.3334 C 25.908841,313.13802 23.711216,306.49109 23.711216,305.56241 C 23.711216,304.63374 26.715418,299.94585 30.387222,295.1449 C 34.059025,290.34393 39.32244,283.49086 42.083699,279.91587 C 44.844959,276.34087 47.915757,272.61084 48.907694,271.62691 C 49.899631,270.64299 50.718404,269.51799 50.727189,269.12691 C 50.735974,268.73584 51.973474,266.98224 53.477189,265.23003 C 54.980904,263.47783 57.336216,260.61102 58.711216,258.85935 C 60.086216,257.1077 62.36048,253.99248 63.765136,251.93667 C 65.169791,249.88084 67.863319,246.22266 69.750753,243.80735 C 71.638187,241.39202 73.638923,238.90322 74.196834,238.27667 C 74.754744,237.65012 76.083153,235.93411 77.148854,234.46334 C 78.214556,232.99256 79.953945,230.80518 81.014165,229.60252 C 82.074384,228.39987 83.673913,226.29087 84.568675,224.91587 C 85.463436,223.54087 86.649046,221.8217 87.203364,221.0955 C 87.757683,220.36929 88.998716,219.03178 89.961216,218.12326 C 90.923716,217.21472 91.711216,216.06344 91.711216,215.56482 C 91.711216,215.06622 93.308803,212.80372 95.261408,210.53706 C 97.214014,208.2704 99.145047,205.96587 99.552593,205.41587 C 99.960138,204.86586 102.30005,201.71587 104.7524,198.41587 C 107.20475,195.11586 109.66122,191.9085 110.21122,191.2884 C 110.76122,190.66829 111.88622,189.16382 112.71122,187.94512 C 113.53622,186.72644 114.99037,184.75879 115.94268,183.5726 C 116.89498,182.38639 118.03771,180.96587 118.48207,180.41587 C 118.92643,179.86586 121.86436,175.9265 125.01081,171.66175 C 128.15725,167.39698 131.68439,162.81184 132.8489,161.47253 C 134.0134,160.13323 135.47131,158.16096 136.0887,157.0897 C 136.70609,156.01843 141.93622,148.92704 147.71122,141.33105 C 153.48622,133.73506 159.56122,126.06368 161.21122,124.28355 C 162.86122,122.50342 176.36122,113.29482 191.21122,103.81999 C 206.06122,94.34516 222.03622,84.12931 226.71122,81.118099 C 231.38622,78.106888 241.96122,71.264927 250.21122,65.913742 C 258.46122,60.562557 277.58622,48.18737 292.71122,38.413328 C 307.83622,28.639286 320.94239,20.010121 321.83604,19.237406 C 323.24082,18.022723 324.93356,18.167092 334.33604,20.3035 C 340.31739,21.662567 363.66122,27.102413 386.21122,32.392046 C 408.76122,37.681679 430.81122,42.861564 435.21122,43.902901 C 439.61122,44.944238 447.93622,46.920657 453.71122,48.294942 C 459.48622,49.669228 472.98622,52.827149 483.71122,55.312546 C 494.43622,57.797942 514.66446,62.519866 528.66285,65.805711 L 554.11449,71.779973 L 573.70984,91.597919 C 584.48728,102.49779 617.80238,136.31994 647.74338,166.75828 C 677.68438,197.1966 703.16639,223.52159 704.37007,225.25828 C 706.31264,228.06103 706.74188,230.94431 708.18979,250.91587 C 709.08696,263.29087 712.24742,305.36586 715.21303,344.41587 C 718.17864,383.46587 720.91233,419.75885 721.28788,425.06696 L 721.97072,434.71805 L 701.69808,473.56696 C 690.54813,494.93385 679.18453,516.69087 676.44563,521.91587 C 673.70673,527.14087 669.10341,535.91587 666.21604,541.41587 C 663.32867,546.91587 658.49685,556.14087 655.47868,561.91587 C 652.4605,567.69087 644.23753,583.44087 637.20541,596.91587 C 630.17328,610.39087 621.89781,626.12865 618.81547,631.88871 L 613.21122,642.36155 L 585.21122,649.14733 C 569.81122,652.87952 546.18622,658.61068 532.71122,661.88326 C 519.23622,665.15583 489.45321,672.35195 466.52675,677.87463 C 443.60029,683.39731 423.80029,687.8546 422.52675,687.77972 z M 214.38908,603.91587 C 215.89792,603.91587 251.80016,600.9636 294.17183,597.35527 C 336.54349,593.74693 383.26447,589.77118 397.99621,588.52027 C 412.72796,587.26936 425.26492,585.76217 425.85613,585.17096 C 426.44733,584.57976 427.52842,575.393 428.25855,564.75596 C 428.98867,554.11891 429.82424,541.93985 430.11536,537.69139 L 430.64468,529.9669 L 427.42795,527.56998 C 425.65875,526.25167 402.16122,512.57678 375.21122,497.18133 C 348.26122,481.78587 317.21122,464.00297 306.21122,457.66375 C 295.21122,451.32455 277.92904,441.34323 267.80636,435.48305 C 251.62034,426.11269 249.08865,424.94248 246.80636,425.77634 C 245.37904,426.29782 231.16122,432.75129 215.21122,440.11739 C 199.26122,447.48348 179.39102,456.61611 171.05522,460.41211 C 162.71942,464.20813 154.48424,468.4688 152.75482,469.88027 L 149.61043,472.4466 L 164.77259,504.43124 C 173.11178,522.02279 185.11873,547.44087 191.45471,560.91587 C 197.79069,574.39087 204.92566,589.57837 207.31019,594.66587 C 211.23102,603.03111 211.90812,603.91587 214.38908,603.91587 z M 437.07472,584.91748 C 438.79979,584.91836 451.91122,583.99615 466.21122,582.86811 C 480.51122,581.74007 493.18754,580.61485 494.38081,580.36763 C 496.14981,580.00112 496.84076,578.64152 498.12297,573.00407 C 498.98788,569.20134 503.54886,548.16333 508.25847,526.25293 C 512.96808,504.34254 518.16689,479.89087 519.81139,471.91587 C 521.45589,463.94086 523.03642,456.62836 523.32369,455.66587 C 523.61096,454.70337 523.34079,453.91587 522.72331,453.91587 C 522.10583,453.91587 511.83801,462.33135 499.90592,472.61696 C 487.97384,482.90256 468.66834,499.65465 457.00483,509.84384 L 435.79844,528.36963 L 435.24078,533.39275 C 434.93407,536.15547 434.34509,547.64087 433.93193,558.91587 C 433.51877,570.19087 433.35116,580.65337 433.55947,582.16587 C 433.881,584.50042 434.41206,584.91611 437.07472,584.91748 z M 432.32279,523.58071 C 433.5149,523.48765 449.35256,510.35274 468.69462,493.41587 C 487.53776,476.91587 507.71593,459.27065 513.53498,454.20428 C 519.35404,449.1379 524.67664,443.92091 525.363,442.61095 C 526.04935,441.301 527.96307,433.97121 529.6157,426.32254 C 531.26834,418.67386 534.69298,402.74086 537.22601,390.91587 C 539.75905,379.09087 544.50447,356.8325 547.77138,341.45286 C 551.03829,326.0732 553.71122,312.27301 553.71122,310.78575 C 553.71122,309.29852 552.83069,306.02747 551.75448,303.5168 C 550.67828,301.00612 548.78477,297.5818 547.54669,295.9072 C 546.30861,294.2326 541.22664,290.45452 536.25343,287.51146 C 531.28021,284.5684 516.63622,276.31604 503.71122,269.17289 C 490.78622,262.02974 461.41163,245.77426 438.43435,233.0496 C 415.45707,220.32494 394.75707,209.48544 392.43435,208.96181 C 389.18849,208.23007 381.61609,208.79855 359.71122,211.41847 C 344.03622,213.29326 323.33622,215.75196 313.71122,216.88223 C 304.08622,218.01251 294.99412,219.18874 293.50655,219.49606 C 292.01898,219.80341 290.57542,220.81108 290.29865,221.73537 C 290.02187,222.65964 286.38393,240.96587 282.21433,262.41587 C 278.04474,283.86586 272.21341,313.79087 269.25582,328.91587 C 266.29823,344.04087 261.14078,370.33774 257.79481,387.35337 C 254.44883,404.36899 251.71122,419.08664 251.71122,420.05926 C 251.71122,421.19167 254.13875,423.22632 258.46122,425.71682 C 262.17372,427.85587 290.86122,444.16132 322.21122,461.95115 C 353.56122,479.74099 390.68622,500.92239 404.71122,509.02092 C 418.73622,517.11946 431.16142,523.67137 432.32279,523.58071 z M 150.26557,465.60075 C 152.21492,465.28443 163.57516,460.43849 175.51053,454.83204 C 187.44591,449.22557 207.78622,439.72409 220.71122,433.71762 C 233.63622,427.71114 244.96727,422.03605 245.89133,421.10631 C 247.01791,419.9728 248.88734,412.49721 251.56556,398.41587 C 253.76233,386.86586 262.09534,343.44086 270.08336,301.91587 C 278.07138,260.39087 284.86501,224.84087 285.18032,222.91587 C 285.49563,220.99086 285.40657,218.91321 284.98241,218.29885 C 284.55826,217.68449 277.98047,212.62199 270.36512,207.04885 C 262.74976,201.47571 255.92419,196.91587 255.19719,196.91587 C 254.47018,196.91587 242.2449,207.82836 228.0299,221.16587 C 213.8149,234.50337 188.68973,258.01587 172.1962,273.41587 C 155.70266,288.81586 136.58368,306.57279 129.70958,312.87572 C 122.83548,319.17863 111.91067,329.27727 105.43222,335.31714 C 98.953776,341.35701 93.394716,347.32873 93.078755,348.58761 C 92.711232,350.05194 93.661758,353.31523 95.717318,357.64619 C 97.484488,361.36951 106.92647,381.51587 116.69949,402.41587 C 126.47252,423.31586 137.22548,446.21188 140.59496,453.29589 L 146.72129,466.17591 L 150.26557,465.60075 z M 85.858821,338.63356 C 86.765004,338.51383 104.54,322.45123 125.35883,302.93888 C 146.17764,283.42654 167.48728,263.40155 172.71357,258.43889 C 177.93986,253.47623 196.29753,236.20138 213.5084,220.05034 C 230.71926,203.89932 244.6682,190.32579 244.50605,189.88695 C 244.34389,189.44811 226.66122,176.22697 205.21122,160.50663 C 183.76122,144.78631 165.54451,132.03941 164.72964,132.1802 C 163.91477,132.32098 148.71834,151.55659 130.9598,174.92602 C 113.20125,198.29544 93.383071,224.39086 86.919397,232.91587 C 80.455722,241.44087 66.064651,260.42476 54.939239,275.10228 C 43.813826,289.77981 34.711216,302.42505 34.711216,303.20281 C 34.711216,303.98057 36.848716,305.98485 39.461216,307.65679 C 42.073716,309.32871 53.211216,317.03143 64.211216,324.77394 C 75.211216,332.51646 84.952638,338.75327 85.858821,338.63356 z M 563.33827,287.86669 C 563.95814,287.89373 569.58314,285.47299 575.83827,282.48728 C 582.09339,279.50155 611.04474,265.75553 640.17459,251.94056 C 669.30445,238.12561 693.32294,226.63747 693.54902,226.4114 C 693.77511,226.18532 692.81495,224.63942 691.41534,222.97608 C 690.01574,221.31275 658.85387,189.23124 622.16676,151.68384 C 585.47964,114.13646 554.92924,83.286827 554.27698,83.129115 C 553.56964,82.958085 544.75396,102.32885 532.43208,131.12912 C 521.06965,157.68683 510.61014,182.27863 509.18871,185.77755 L 506.60431,192.13923 L 526.28004,234.77755 C 537.10168,258.22863 546.68824,278.2527 547.58349,279.27549 C 548.47874,280.29829 552.13622,282.63865 555.71122,284.47631 C 559.28622,286.31397 562.71839,287.83963 563.33827,287.86669 z M 535.47464,272.88995 C 536.46102,272.91019 536.42831,272.20322 535.32546,269.66587 C 534.54853,267.87837 526.85125,251.11586 518.22039,232.41587 C 509.58954,213.71587 501.91179,197.77455 501.15874,196.99075 C 499.97553,195.7592 494.38484,196.20908 460.00038,200.30279 C 438.11634,202.90822 419.10282,205.3815 417.74811,205.79895 C 415.55526,206.47465 416.65248,207.32837 427.74811,213.57975 C 434.60282,217.44175 455.96122,229.30728 475.21122,239.94761 C 494.46122,250.58792 515.61122,262.34697 522.21122,266.07884 C 528.81122,269.81069 534.77976,272.87568 535.47464,272.88995 z M 291.21122,214.83931 C 292.86122,214.86259 303.21122,213.79147 314.21122,212.45906 C 325.21122,211.12665 343.88622,208.88274 355.71122,207.47259 C 367.53622,206.06245 378.25569,204.6687 379.53226,204.3754 C 380.80883,204.08209 381.68534,203.29619 381.48005,202.62899 C 381.27477,201.96176 362.6803,191.17993 340.15901,178.66932 C 317.63773,166.15874 298.86604,155.92124 298.44416,155.91932 C 298.02227,155.91743 289.69727,163.35733 279.94416,172.45244 C 270.19104,181.54756 261.61186,189.84541 260.87931,190.8921 C 259.73589,192.52587 259.80665,193.01603 261.37931,194.35583 C 262.38686,195.21419 268.83622,200.1646 275.71122,205.35673 C 284.88687,212.28636 289.00906,214.80824 291.21122,214.83931 z M 411.21122,199.45333 C 415.61122,199.16749 437.32921,196.76414 459.47341,194.11255 C 481.61761,191.46096 500.13154,188.86947 500.61548,188.35368 C 501.09941,187.83788 510.27657,166.49086 521.00916,140.91587 C 531.74175,115.34086 541.98587,90.908919 543.77388,86.622652 C 545.83525,81.681066 546.67593,78.480575 546.07138,77.876029 C 545.54701,77.351654 539.28896,75.571053 532.1646,73.919138 C 525.04024,72.267223 500.53622,66.60755 477.71122,61.342087 C 454.88622,56.076624 429.68622,50.266362 421.71122,48.430395 C 413.73622,46.594427 390.33622,41.197898 369.71122,36.438109 C 349.08622,31.67832 331.46001,27.569823 330.54187,27.308116 C 329.52759,27.019004 328.65201,27.535396 328.31058,28.624075 C 328.00152,29.60956 324.12142,48.190865 319.68814,69.915865 C 315.25487,91.640865 310.00036,117.40729 308.01146,127.17457 C 306.02257,136.94186 304.57887,145.10809 304.80325,145.32177 C 305.02764,145.53545 325.56528,156.99145 350.44246,170.77955 C 375.31964,184.56767 397.36964,196.77677 399.44246,197.91092 C 402.65529,199.66885 404.39129,199.89636 411.21122,199.45333 z M 250.81935,184.68424 C 251.21443,184.53663 259.11423,177.36317 268.37445,168.74323 C 277.63467,160.12328 287.11509,151.11504 289.44204,148.72492 C 293.45434,144.60369 293.80112,143.76039 296.15622,132.39756 C 297.52206,125.80763 300.20269,112.99087 302.11315,103.91587 C 304.02362,94.840865 307.84205,76.840865 310.59854,63.915865 C 313.35503,50.990865 315.91555,38.503365 316.28859,36.165865 C 316.66162,33.828365 316.73957,31.915865 316.46181,31.915865 C 316.18404,31.915865 299.81403,42.32701 280.084,55.051743 C 260.35397,67.776477 238.36122,81.924506 231.21122,86.491808 C 224.06122,91.05911 207.89385,101.46047 195.28373,109.60593 C 182.67361,117.7514 172.23174,124.86587 172.07958,125.41587 C 171.92742,125.96586 189.41999,139.58664 210.95197,155.68424 C 232.48394,171.78184 250.42426,184.83183 250.81935,184.68424 z " />
    <path
       transform="matrix(0.3617292,0,0,0.3617292,-5.1206476,-0.2815545)"
       id="path4579"
       style="fill:#705a2d;"
       d="M 420.60385,686.74116 C 418.1879,686.64507 414.18622,686.40456 411.71122,686.20669 C 409.23622,686.00881 387.86122,684.755 364.21122,683.42043 C 340.56122,682.08586 296.23622,679.62292 265.71122,677.94724 C 235.18622,676.27156 206.99809,674.39878 203.07094,673.78552 L 195.93066,672.67049 L 147.43247,588.54318 C 120.75846,542.27316 97.558165,501.94086 95.876263,498.91587 C 94.194362,495.89087 81.149855,461.69086 66.88847,422.91587 C 52.627085,384.14087 37.030613,341.72003 32.229644,328.64733 L 23.50061,304.87878 L 33.639288,291.64733 C 39.215562,284.37003 49.937851,270.31587 57.466598,260.41587 C 64.995344,250.51586 75.892825,236.27896 81.683222,228.77828 C 87.473619,221.27762 98.144639,207.32762 105.3966,197.77828 C 112.64856,188.22895 128.40499,167.50395 140.41087,151.72273 L 162.23975,123.02959 L 178.72549,112.31123 C 187.79264,106.41614 223.76936,83.148408 258.67376,60.60517 C 293.57816,38.061932 322.86263,19.427525 323.75037,19.195377 C 324.6381,18.963228 376.44578,30.730369 438.87853,45.344577 C 501.31128,59.958785 552.59564,71.915865 552.84376,71.915865 C 553.09188,71.915865 565.00109,83.728365 579.30867,98.165865 C 593.61625,112.60337 618.12243,137.46438 633.76684,153.41258 C 649.41125,169.36076 671.95719,192.31077 683.86893,204.41258 L 705.52663,226.41587 L 706.13217,231.91587 C 706.46521,234.94087 707.40065,246.64086 708.21093,257.91587 C 709.02121,269.19087 711.27443,299.34087 713.21807,324.91587 C 715.16172,350.49086 717.82469,385.59087 719.13577,402.91587 L 721.51957,434.41587 L 702.4622,470.91587 C 691.98065,490.99086 678.82034,516.19087 673.21706,526.91587 C 667.61378,537.64087 652.33729,566.89087 639.26931,591.91587 C 626.20133,616.94087 614.90531,638.37355 614.16706,639.54404 C 613.4288,640.71453 611.56172,641.90007 610.01799,642.17858 C 608.47427,642.45708 589.43622,647.026 567.71122,652.33174 C 545.98622,657.63747 504.9879,667.58943 476.60385,674.4472 C 444.63021,682.17223 423.32532,686.8494 420.60385,686.74116 z M 413.4926,679.77921 C 418.76932,679.87825 420.91609,679.54556 421.29014,678.57081 C 421.57402,677.83103 422.83946,659.26853 424.10224,637.32081 C 425.36501,615.37309 426.1147,597.08445 425.76821,596.67938 C 425.42172,596.27431 395.45466,598.39702 359.17473,601.39651 C 322.8948,604.39601 276.11122,608.24442 255.21122,609.94853 C 234.31122,611.65264 216.28019,613.42066 215.14227,613.87746 C 213.44281,614.55968 212.75693,616.46778 211.30168,624.56194 C 210.32727,629.9816 208.43051,640.71587 207.08666,648.41587 C 205.74281,656.11587 204.41195,663.17596 204.1292,664.10497 C 203.81019,665.1531 204.40429,666.21642 205.69479,666.90708 C 206.89765,667.55083 225.99591,669.03312 250.99285,670.42282 C 274.76295,671.74432 297.81122,673.07152 302.21122,673.37216 C 306.61122,673.67279 323.03622,674.64018 338.71122,675.52191 C 354.38622,676.40364 375.98622,677.6915 386.71122,678.3838 C 397.43622,679.07611 409.48784,679.70404 413.4926,679.77921 z M 429.81845,678.91686 C 430.58447,678.9174 455.06122,673.07977 484.21122,665.94436 C 513.36122,658.80894 550.03622,649.81247 565.71122,645.9522 C 581.38622,642.09193 595.11122,638.52575 596.21122,638.02735 C 597.8423,637.28832 589.54235,632.84598 551.21504,613.94428 C 525.36715,601.197 503.06974,590.53757 501.66524,590.25667 C 500.26075,589.97578 484.50903,590.9573 466.66142,592.43783 C 448.81381,593.91837 433.81337,595.50195 433.3271,595.95691 C 432.84084,596.41186 431.85864,607.50125 431.14443,620.59999 C 430.43022,633.69872 429.52633,652.17837 429.13578,661.66587 C 428.54234,676.08194 428.6545,678.91603 429.81845,678.91686 z M 214.38908,603.91587 C 215.89792,603.91587 251.80016,600.9636 294.17183,597.35527 C 336.54349,593.74693 383.26447,589.77118 397.99621,588.52027 C 412.72796,587.26936 425.26492,585.76217 425.85613,585.17096 C 426.44733,584.57976 427.52842,575.393 428.25855,564.75596 C 428.98867,554.11891 429.82424,541.93985 430.11536,537.69139 L 430.64468,529.9669 L 427.42795,527.56998 C 425.65875,526.25167 402.16122,512.57678 375.21122,497.18133 C 348.26122,481.78587 317.21122,464.00297 306.21122,457.66375 C 295.21122,451.32455 277.92904,441.34323 267.80636,435.48305 C 251.62034,426.11269 249.08865,424.94248 246.80636,425.77634 C 245.37904,426.29782 231.16122,432.75129 215.21122,440.11739 C 199.26122,447.48348 179.39102,456.61611 171.05522,460.41211 C 162.71942,464.20813 154.48424,468.4688 152.75482,469.88027 L 149.61043,472.4466 L 164.77259,504.43124 C 173.11178,522.02279 185.11873,547.44087 191.45471,560.91587 C 197.79069,574.39087 204.92566,589.57837 207.31019,594.66587 C 211.23102,603.03111 211.90812,603.91587 214.38908,603.91587 z M 437.07472,584.91748 C 438.79979,584.91836 451.91122,583.99615 466.21122,582.86811 C 480.51122,581.74007 493.18754,580.61485 494.38081,580.36763 C 496.14981,580.00112 496.84076,578.64152 498.12297,573.00407 C 498.98788,569.20134 503.54886,548.16333 508.25847,526.25293 C 512.96808,504.34254 518.16689,479.89087 519.81139,471.91587 C 521.45589,463.94086 523.03642,456.62836 523.32369,455.66587 C 523.61096,454.70337 523.34079,453.91587 522.72331,453.91587 C 522.10583,453.91587 511.83801,462.33135 499.90592,472.61696 C 487.97384,482.90256 468.66834,499.65465 457.00483,509.84384 L 435.79844,528.36963 L 435.24078,533.39275 C 434.93407,536.15547 434.34509,547.64087 433.93193,558.91587 C 433.51877,570.19087 433.35116,580.65337 433.55947,582.16587 C 433.881,584.50042 434.41206,584.91611 437.07472,584.91748 z M 432.32279,523.58071 C 433.5149,523.48765 449.35256,510.35274 468.69462,493.41587 C 487.53776,476.91587 507.71593,459.27065 513.53498,454.20428 C 519.35404,449.1379 524.67664,443.92091 525.363,442.61095 C 526.04935,441.301 527.96307,433.97121 529.6157,426.32254 C 531.26834,418.67386 534.69298,402.74086 537.22601,390.91587 C 539.75905,379.09087 544.50447,356.8325 547.77138,341.45286 C 551.03829,326.0732 553.71122,312.27301 553.71122,310.78575 C 553.71122,309.29852 552.83069,306.02747 551.75448,303.5168 C 550.67828,301.00612 548.78477,297.5818 547.54669,295.9072 C 546.30861,294.2326 541.22664,290.45452 536.25343,287.51146 C 531.28021,284.5684 516.63622,276.31604 503.71122,269.17289 C 490.78622,262.02974 461.41163,245.77426 438.43435,233.0496 C 415.45707,220.32494 394.75707,209.48544 392.43435,208.96181 C 389.18849,208.23007 381.61609,208.79855 359.71122,211.41847 C 344.03622,213.29326 323.33622,215.75196 313.71122,216.88223 C 304.08622,218.01251 294.99412,219.18874 293.50655,219.49606 C 292.01898,219.80341 290.57542,220.81108 290.29865,221.73537 C 290.02187,222.65964 286.38393,240.96587 282.21433,262.41587 C 278.04474,283.86586 272.21341,313.79087 269.25582,328.91587 C 266.29823,344.04087 261.14078,370.33774 257.79481,387.35337 C 254.44883,404.36899 251.71122,419.08664 251.71122,420.05926 C 251.71122,421.19167 254.13875,423.22632 258.46122,425.71682 C 262.17372,427.85587 290.86122,444.16132 322.21122,461.95115 C 353.56122,479.74099 390.68622,500.92239 404.71122,509.02092 C 418.73622,517.11946 431.16142,523.67137 432.32279,523.58071 z M 150.26557,465.60075 C 152.21492,465.28443 163.57516,460.43849 175.51053,454.83204 C 187.44591,449.22557 207.78622,439.72409 220.71122,433.71762 C 233.63622,427.71114 244.96727,422.03605 245.89133,421.10631 C 247.01791,419.9728 248.88734,412.49721 251.56556,398.41587 C 253.76233,386.86586 262.09534,343.44086 270.08336,301.91587 C 278.07138,260.39087 284.86501,224.84087 285.18032,222.91587 C 285.49563,220.99086 285.40657,218.91321 284.98241,218.29885 C 284.55826,217.68449 277.98047,212.62199 270.36512,207.04885 C 262.74976,201.47571 255.92419,196.91587 255.19719,196.91587 C 254.47018,196.91587 242.2449,207.82836 228.0299,221.16587 C 213.8149,234.50337 188.68973,258.01587 172.1962,273.41587 C 155.70266,288.81586 136.58368,306.57279 129.70958,312.87572 C 122.83548,319.17863 111.91067,329.27727 105.43222,335.31714 C 98.953776,341.35701 93.394716,347.32873 93.078755,348.58761 C 92.711232,350.05194 93.661758,353.31523 95.717318,357.64619 C 97.484488,361.36951 106.92647,381.51587 116.69949,402.41587 C 126.47252,423.31586 137.22548,446.21188 140.59496,453.29589 L 146.72129,466.17591 L 150.26557,465.60075 z M 85.858821,338.63356 C 86.765004,338.51383 104.54,322.45123 125.35883,302.93888 C 146.17764,283.42654 167.48728,263.40155 172.71357,258.43889 C 177.93986,253.47623 196.29753,236.20138 213.5084,220.05034 C 230.71926,203.89932 244.6682,190.32579 244.50605,189.88695 C 244.34389,189.44811 226.66122,176.22697 205.21122,160.50663 C 183.76122,144.78631 165.54451,132.03941 164.72964,132.1802 C 163.91477,132.32098 148.71834,151.55659 130.9598,174.92602 C 113.20125,198.29544 93.383071,224.39086 86.919397,232.91587 C 80.455722,241.44087 66.064651,260.42476 54.939239,275.10228 C 43.813826,289.77981 34.711216,302.42505 34.711216,303.20281 C 34.711216,303.98057 36.848716,305.98485 39.461216,307.65679 C 42.073716,309.32871 53.211216,317.03143 64.211216,324.77394 C 75.211216,332.51646 84.952638,338.75327 85.858821,338.63356 z M 563.33827,287.86669 C 563.95814,287.89373 569.58314,285.47299 575.83827,282.48728 C 582.09339,279.50155 611.04474,265.75553 640.17459,251.94056 C 669.30445,238.12561 693.32294,226.63747 693.54902,226.4114 C 693.77511,226.18532 692.81495,224.63942 691.41534,222.97608 C 690.01574,221.31275 658.85387,189.23124 622.16676,151.68384 C 585.47964,114.13646 554.92924,83.286827 554.27698,83.129115 C 553.56964,82.958085 544.75396,102.32885 532.43208,131.12912 C 521.06965,157.68683 510.61014,182.27863 509.18871,185.77755 L 506.60431,192.13923 L 526.28004,234.77755 C 537.10168,258.22863 546.68824,278.2527 547.58349,279.27549 C 548.47874,280.29829 552.13622,282.63865 555.71122,284.47631 C 559.28622,286.31397 562.71839,287.83963 563.33827,287.86669 z M 535.47464,272.88995 C 536.46102,272.91019 536.42831,272.20322 535.32546,269.66587 C 534.54853,267.87837 526.85125,251.11586 518.22039,232.41587 C 509.58954,213.71587 501.91179,197.77455 501.15874,196.99075 C 499.97553,195.7592 494.38484,196.20908 460.00038,200.30279 C 438.11634,202.90822 419.10282,205.3815 417.74811,205.79895 C 415.55526,206.47465 416.65248,207.32837 427.74811,213.57975 C 434.60282,217.44175 455.96122,229.30728 475.21122,239.94761 C 494.46122,250.58792 515.61122,262.34697 522.21122,266.07884 C 528.81122,269.81069 534.77976,272.87568 535.47464,272.88995 z M 291.21122,214.83931 C 292.86122,214.86259 303.21122,213.79147 314.21122,212.45906 C 325.21122,211.12665 343.88622,208.88274 355.71122,207.47259 C 367.53622,206.06245 378.25569,204.6687 379.53226,204.3754 C 380.80883,204.08209 381.68534,203.29619 381.48005,202.62899 C 381.27477,201.96176 362.6803,191.17993 340.15901,178.66932 C 317.63773,166.15874 298.86604,155.92124 298.44416,155.91932 C 298.02227,155.91743 289.69727,163.35733 279.94416,172.45244 C 270.19104,181.54756 261.61186,189.84541 260.87931,190.8921 C 259.73589,192.52587 259.80665,193.01603 261.37931,194.35583 C 262.38686,195.21419 268.83622,200.1646 275.71122,205.35673 C 284.88687,212.28636 289.00906,214.80824 291.21122,214.83931 z M 411.21122,199.45333 C 415.61122,199.16749 437.32921,196.76414 459.47341,194.11255 C 481.61761,191.46096 500.13154,188.86947 500.61548,188.35368 C 501.09941,187.83788 510.27657,166.49086 521.00916,140.91587 C 531.74175,115.34086 541.98587,90.908919 543.77388,86.622652 C 545.83525,81.681066 546.67593,78.480575 546.07138,77.876029 C 545.54701,77.351654 539.28896,75.571053 532.1646,73.919138 C 525.04024,72.267223 500.53622,66.60755 477.71122,61.342087 C 454.88622,56.076624 429.68622,50.266362 421.71122,48.430395 C 413.73622,46.594427 390.33622,41.197898 369.71122,36.438109 C 349.08622,31.67832 331.46001,27.569823 330.54187,27.308116 C 329.52759,27.019004 328.65201,27.535396 328.31058,28.624075 C 328.00152,29.60956 324.12142,48.190865 319.68814,69.915865 C 315.25487,91.640865 310.00036,117.40729 308.01146,127.17457 C 306.02257,136.94186 304.57887,145.10809 304.80325,145.32177 C 305.02764,145.53545 325.56528,156.99145 350.44246,170.77955 C 375.31964,184.56767 397.36964,196.77677 399.44246,197.91092 C 402.65529,199.66885 404.39129,199.89636 411.21122,199.45333 z M 250.81935,184.68424 C 251.21443,184.53663 259.11423,177.36317 268.37445,168.74323 C 277.63467,160.12328 287.11509,151.11504 289.44204,148.72492 C 293.45434,144.60369 293.80112,143.76039 296.15622,132.39756 C 297.52206,125.80763 300.20269,112.99087 302.11315,103.91587 C 304.02362,94.840865 307.84205,76.840865 310.59854,63.915865 C 313.35503,50.990865 315.91555,38.503365 316.28859,36.165865 C 316.66162,33.828365 316.73957,31.915865 316.46181,31.915865 C 316.18404,31.915865 299.81403,42.32701 280.084,55.051743 C 260.35397,67.776477 238.36122,81.924506 231.21122,86.491808 C 224.06122,91.05911 207.89385,101.46047 195.28373,109.60593 C 182.67361,117.7514 172.23174,124.86587 172.07958,125.41587 C 171.92742,125.96586 189.41999,139.58664 210.95197,155.68424 C 232.48394,171.78184 250.42426,184.83183 250.81935,184.68424 z " />
    <path
       transform="matrix(0.3617292,0,0,0.3617292,-5.1206476,-0.2815545)"
       id="path4577"
       style="fill:#307353;"
       d="M 424.10302,686.76926 C 423.61253,686.68862 417.81122,686.26819 411.21122,685.83497 C 404.61122,685.40175 382.78622,684.10788 362.71122,682.95971 C 342.63622,681.81154 298.53622,679.306 264.71122,677.39184 C 230.88622,675.47769 201.57586,673.63711 199.57708,673.30167 L 195.94295,672.69179 L 147.43861,588.55383 C 120.76122,542.27795 97.558165,501.94086 95.876263,498.91587 C 94.194362,495.89087 81.149855,461.69086 66.88847,422.91587 C 52.627085,384.14087 37.030613,341.72003 32.229644,328.64733 L 23.50061,304.87878 L 33.639288,291.64733 C 39.215562,284.37003 49.937851,270.31587 57.466598,260.41587 C 64.995344,250.51586 75.892825,236.27896 81.683222,228.77828 C 87.473619,221.27762 98.144639,207.32762 105.3966,197.77828 C 112.64856,188.22895 128.40499,167.50395 140.41087,151.72273 L 162.23975,123.02959 L 178.72549,112.31123 C 187.79264,106.41614 223.78622,83.115777 258.71122,60.532656 C 308.96995,28.034476 322.81886,19.512958 325.12525,19.666764 C 326.72796,19.773644 339.77796,22.603245 354.12525,25.954766 C 368.47253,29.306287 406.08622,38.106777 437.71122,45.51141 C 469.33622,52.916043 500.83622,60.316437 507.71122,61.956729 C 514.58622,63.597021 527.81404,66.693634 537.10637,68.83809 L 554.00153,72.737101 L 591.10637,110.57128 C 611.51404,131.38008 644.74872,165.24917 664.96122,185.83592 C 685.17372,206.42268 701.71122,223.85395 701.71122,224.57207 C 701.71122,225.2902 700.65185,226.14364 699.35706,226.46862 C 697.35428,226.97128 695.30199,225.30329 685.60706,215.29334 C 679.33935,208.82198 647.75544,176.43562 615.4206,143.32367 C 583.08575,110.21171 554.58868,81.529759 552.09377,79.585992 C 548.26462,76.602726 545.42635,75.557986 533.88439,72.883279 C 526.36415,71.140555 515.71122,68.643951 510.21122,67.335271 C 504.71122,66.02659 470.96122,58.220149 435.21122,49.987622 C 399.46122,41.755096 361.54921,32.971099 350.96231,30.467629 C 340.37542,27.964159 330.36292,25.915865 328.71231,25.915865 C 327.06171,25.915865 325.71122,26.116764 325.71122,26.362306 C 325.71122,26.607849 323.26697,37.970349 320.27955,51.612306 C 317.29214,65.254264 313.91698,80.690865 312.77921,85.915865 C 311.64144,91.140865 308.41651,106.13161 305.6127,119.22864 C 300.76143,141.88963 300.59832,143.13362 302.24042,144.94813 C 303.18948,145.99684 309.87116,150.09943 317.0886,154.06501 C 324.30604,158.03061 346.18622,170.12544 365.71122,180.94243 C 385.23622,191.75944 402.93732,201.17622 405.04699,201.86864 C 407.15666,202.56106 410.30666,204.36755 412.04699,205.88305 C 413.78732,207.39856 416.78622,209.43152 418.71122,210.40076 C 420.63622,211.36998 429.63622,216.31999 438.71122,221.40077 C 447.78622,226.48154 472.08622,240.00072 492.71122,251.4434 C 513.33622,262.88607 533.42698,273.7158 537.35734,275.50948 C 541.28771,277.30314 544.7933,279.23965 545.14753,279.81282 C 545.50177,280.38599 549.53166,282.89364 554.10284,285.3854 C 558.67403,287.87716 563.3328,289.91587 564.45567,289.91587 C 565.57853,289.91587 566.7499,290.57428 567.0587,291.37901 C 567.51029,292.55582 569.43914,291.99563 576.91569,288.51619 C 582.02823,286.13693 600.08966,277.57747 617.0522,269.49516 C 634.01473,261.41286 660.32187,248.73929 675.51251,241.33167 C 690.70314,233.92406 703.63924,228.05801 704.2594,228.29598 C 704.95824,228.56416 705.83315,234.75266 706.5605,244.57226 C 707.20594,253.28625 709.52502,284.71587 711.71399,314.41587 C 713.90296,344.11586 716.13039,373.59087 716.66384,379.91587 C 717.19728,386.24086 718.36795,401.1726 719.26532,413.09751 L 720.89692,434.77916 L 714.93137,446.09751 C 711.65031,452.32261 703.78004,467.31586 697.44188,479.41587 C 691.10371,491.51587 673.33752,525.49086 657.96144,554.91587 C 642.58536,584.34087 626.32724,615.4579 621.83228,624.06484 C 617.33732,632.67177 613.10873,640.14569 612.43542,640.67356 C 611.76211,641.20142 607.61122,642.58253 603.21122,643.74268 C 598.81122,644.90283 581.26122,649.20444 564.21122,653.30181 C 547.16122,657.39917 508.86253,666.63853 479.10302,673.83372 C 449.34351,681.0289 424.59351,686.84989 424.10302,686.76926 z M 416.35423,680.79699 C 420.12001,680.88404 421.65394,680.50752 422.0824,679.39098 C 422.40423,678.55229 423.56156,662.68979 424.65424,644.14098 C 425.74691,625.59217 426.85752,607.35495 427.12225,603.61383 C 427.51415,598.07561 427.3141,596.70071 426.04554,596.21392 C 425.18862,595.88509 412.27534,596.61411 397.34936,597.83398 C 382.42338,599.05384 354.91122,601.37055 336.21122,602.98222 C 317.51122,604.59389 299.06122,606.15681 295.21122,606.45537 C 291.36122,606.75392 284.16122,607.41913 279.21122,607.93361 C 274.26122,608.44808 258.73622,609.78778 244.71122,610.91072 C 230.68622,612.03365 217.64679,613.13347 215.73471,613.35475 C 213.70231,613.58997 211.50351,614.68911 210.44135,616.00081 C 209.17907,617.55966 208.81461,619.11009 209.24731,621.0802 C 209.62216,622.78685 209.45284,623.91587 208.82206,623.91587 C 208.24562,623.91587 208.03301,624.59087 208.34959,625.41587 C 208.66618,626.24087 208.58468,627.70337 208.16848,628.66587 C 207.75229,629.62837 207.32289,631.54087 207.21427,632.91587 C 207.10565,634.29087 206.0032,642.32355 204.76439,650.76626 C 203.4021,660.05051 202.87364,666.47829 203.42711,667.03176 C 203.93042,667.53507 222.53775,669.04687 244.77672,670.39132 C 267.0157,671.73576 293.53622,673.34404 303.71122,673.96526 C 313.88622,674.58649 342.23622,676.35102 366.71122,677.88644 C 391.18622,679.42186 413.52558,680.73161 416.35423,680.79699 z M 429.18364,679.91587 C 429.37855,679.91587 448.13949,675.3889 470.87462,669.85594 C 493.60975,664.32298 530.66122,655.31986 553.21122,649.849 C 575.76122,644.37814 595.29659,639.43156 596.62316,638.85658 C 598.6839,637.9634 598.82951,637.61545 597.62316,636.46698 C 596.84659,635.72766 576.63622,625.56864 552.71122,613.89137 C 528.78622,602.21409 507.34907,591.81875 505.07311,590.79061 C 500.98384,588.94333 500.53658,588.95595 467.18202,591.85965 C 448.61789,593.47576 432.94721,595.27988 432.3583,595.86879 C 431.74622,596.48087 430.7707,606.19051 430.08097,618.53557 C 429.41736,630.41339 428.55281,648.57917 428.15977,658.90397 C 427.76673,669.22877 427.75657,678.18023 428.1372,678.7961 C 428.51783,679.41197 428.98873,679.91587 429.18364,679.91587 z M 610.05494,633.33747 C 610.87688,633.02206 622.01081,612.88567 634.79703,588.58994 C 647.58324,564.2942 659.47681,541.71587 661.22719,538.41587 C 662.97757,535.11587 667.34319,526.79087 670.92856,519.91587 C 674.51393,513.04087 680.49097,501.56586 684.21087,494.41587 C 687.93076,487.26587 692.87748,477.81586 695.20356,473.41587 C 697.52964,469.01587 702.67933,459.23298 706.64731,451.67613 C 710.61529,444.11926 713.71543,437.20346 713.53652,436.30766 C 713.32778,435.26252 709.26988,433.16994 702.21122,430.46742 C 696.16122,428.15109 669.74414,418.25047 643.5066,408.46609 C 610.48341,396.15121 595.09557,390.86354 593.5066,391.28474 C 592.24414,391.6194 583.56122,398.66208 574.21122,406.93512 C 564.86122,415.20817 552.83092,425.80672 547.47723,430.48748 C 538.73553,438.13036 537.59317,439.52893 536.27114,444.20689 C 535.46149,447.07182 528.46773,479.05584 520.72946,515.28247 C 510.43882,563.45799 506.94778,581.49599 507.73181,582.44068 C 508.32138,583.15107 531.24903,595.02249 558.68214,608.82161 C 587.00872,623.07016 609.20624,633.66314 610.05494,633.33747 z M 214.42087,603.91587 C 215.93578,603.91587 241.25834,601.88098 270.69323,599.39388 C 300.12813,596.90679 336.81122,593.78129 352.21122,592.44832 C 367.61122,591.11536 390.05096,589.22417 402.0773,588.24567 C 414.10365,587.26718 424.61242,585.97738 425.43014,585.37945 C 426.56945,584.54637 427.22879,579.74965 428.25147,564.85409 C 428.98549,554.16307 429.82424,541.93985 430.11536,537.69139 L 430.64468,529.9669 L 427.42795,527.56998 C 425.65875,526.25167 402.16122,512.57678 375.21122,497.18133 C 348.26122,481.78587 317.21122,464.00297 306.21122,457.66375 C 295.21122,451.32455 277.92904,441.34323 267.80636,435.48305 C 251.62034,426.11269 249.08865,424.94248 246.80636,425.77634 C 245.37904,426.29782 231.16122,432.75129 215.21122,440.11739 C 199.26122,447.48348 179.39102,456.61611 171.05522,460.41211 C 162.71942,464.20813 154.46674,468.48307 152.71594,469.91202 L 149.53266,472.51007 L 173.03511,522.46298 C 185.96145,549.93707 199.94157,579.50337 204.10203,588.16587 C 211.15755,602.85617 211.85183,603.91587 214.42087,603.91587 z M 437.97954,585.34757 C 439.75697,585.10743 452.68622,584.00271 466.71122,582.89264 C 480.73622,581.78257 493.18754,580.65918 494.38081,580.39623 C 496.14336,580.00783 496.84543,578.62096 498.12297,573.00407 C 498.98788,569.20134 503.54886,548.16333 508.25847,526.25293 C 512.96808,504.34254 518.16689,479.89087 519.81139,471.91587 C 521.45589,463.94086 523.03642,456.62836 523.32369,455.66587 C 523.61096,454.70337 523.34311,453.91587 522.72847,453.91587 C 522.11383,453.91587 513.64601,460.76698 503.91108,469.14058 C 494.17616,477.51419 475.41122,493.77103 462.21122,505.26691 C 449.01122,516.76279 437.59989,526.73908 436.8527,527.43643 C 435.9043,528.32157 435.23509,533.34011 434.63596,544.0601 C 434.16394,552.50578 433.70347,564.87539 433.6127,571.54813 C 433.52192,578.22088 433.7402,584.15375 434.09776,584.73229 C 434.45532,585.31083 436.20212,585.58771 437.97954,585.34757 z M 432.32279,523.58071 C 433.5149,523.48765 449.35256,510.35274 468.69462,493.41587 C 487.53776,476.91587 507.71593,459.27065 513.53498,454.20428 C 519.35404,449.1379 524.67664,443.92091 525.363,442.61095 C 526.04935,441.301 527.96307,433.97121 529.6157,426.32254 C 531.26834,418.67386 534.69298,402.74086 537.22601,390.91587 C 539.75905,379.09087 544.50447,356.8325 547.77138,341.45286 C 551.03829,326.0732 553.71122,312.27301 553.71122,310.78575 C 553.71122,309.29852 552.83069,306.02747 551.75448,303.5168 C 550.67828,301.00612 548.78477,297.5818 547.54669,295.9072 C 546.30861,294.2326 541.22664,290.45452 536.25343,287.51146 C 531.28021,284.5684 516.63622,276.31604 503.71122,269.17289 C 490.78622,262.02974 461.41163,245.77426 438.43435,233.0496 C 415.45707,220.32494 394.75707,209.48544 392.43435,208.96181 C 389.18849,208.23007 381.61609,208.79855 359.71122,211.41847 C 344.03622,213.29326 323.33622,215.75196 313.71122,216.88223 C 304.08622,218.01251 294.99412,219.18874 293.50655,219.49606 C 292.01898,219.80341 290.57542,220.81108 290.29865,221.73537 C 290.02187,222.65964 286.38393,240.96587 282.21433,262.41587 C 278.04474,283.86586 272.21341,313.79087 269.25582,328.91587 C 266.29823,344.04087 261.14078,370.33774 257.79481,387.35337 C 254.44883,404.36899 251.71122,419.08664 251.71122,420.05926 C 251.71122,421.19167 254.13875,423.22632 258.46122,425.71682 C 262.17372,427.85587 290.86122,444.16132 322.21122,461.95115 C 353.56122,479.74099 390.68622,500.92239 404.71122,509.02092 C 418.73622,517.11946 431.16142,523.67137 432.32279,523.58071 z M 150.26937,465.60015 C 152.21663,465.28415 163.57516,460.43849 175.51053,454.83204 C 187.44591,449.22557 207.78622,439.72409 220.71122,433.71762 C 233.63622,427.71114 244.96727,422.03605 245.89133,421.10631 C 247.01791,419.9728 248.88734,412.49721 251.56556,398.41587 C 253.76233,386.86586 262.09534,343.44086 270.08336,301.91587 C 278.07138,260.39087 284.86501,224.84087 285.18032,222.91587 C 285.49563,220.99086 285.40657,218.91321 284.98241,218.29885 C 284.55826,217.68449 277.98047,212.62199 270.36512,207.04885 C 262.74976,201.47571 255.66792,196.91587 254.62768,196.91587 C 253.58744,196.91587 248.3817,201.07836 243.05937,206.16587 C 237.73703,211.25337 229.87388,218.79087 225.58569,222.91587 C 221.2975,227.04087 214.18884,233.79087 209.78868,237.91587 C 205.38851,242.04087 198.24254,248.79087 193.90873,252.91587 C 189.57493,257.04087 182.6766,263.56587 178.57911,267.41587 C 174.48162,271.26587 167.77259,277.51405 163.67017,281.3007 C 159.56775,285.08736 153.06122,291.19804 149.21122,294.87998 C 145.36122,298.56192 136.58622,306.69423 129.71122,312.95178 C 122.83622,319.20932 111.69872,329.47783 104.96122,335.77072 C 96.653455,343.53022 92.711216,347.90301 92.711216,349.35861 C 92.711216,350.53906 99.276028,365.43487 107.29969,382.46038 C 115.32335,399.48589 123.83235,417.69086 126.20857,422.91587 C 128.58479,428.14087 134.17396,440.0116 138.62893,449.29528 L 146.72889,466.17469 L 150.26937,465.60015 z M 540.76639,429.91587 C 541.34673,429.91587 548.20923,424.42046 556.01639,417.70385 C 563.82355,410.98724 574.57018,401.71116 579.89779,397.09033 C 585.22541,392.46949 589.8031,388.11881 590.07044,387.42213 C 590.33778,386.72546 584.44583,373.05154 576.97723,357.03566 C 569.50862,341.01977 562.83832,327.91587 562.15432,327.91587 C 561.47033,327.91587 560.42425,330.05336 559.8297,332.66587 C 559.23515,335.27837 554.46527,357.51675 549.22996,382.0845 C 543.99465,406.65227 539.71122,427.46477 539.71122,428.3345 C 539.71122,429.20425 540.18605,429.91587 540.76639,429.91587 z M 712.4022,428.88336 C 713.05724,428.90125 713.84065,428.51545 714.14311,428.02607 C 714.44557,427.53668 713.80216,415.94919 712.71332,402.27607 C 711.62449,388.60296 709.13417,357.16587 707.17929,332.41587 C 705.2244,307.66587 702.7464,276.39087 701.67262,262.91587 C 700.59883,249.44087 699.71824,237.62837 699.71575,236.66587 C 699.71326,235.70336 699.08132,234.91587 698.31145,234.91587 C 697.54157,234.91587 680.10407,243.05729 659.56145,253.0079 C 639.01882,262.95853 610.51122,276.73805 596.21122,283.6291 C 581.91122,290.52013 569.46154,296.89123 568.54527,297.78706 C 567.62899,298.68291 566.08021,303.32416 565.10353,308.10095 L 563.32775,316.78603 L 565.89115,322.60095 C 567.30101,325.79915 574.19155,341.01587 581.20346,356.41587 C 588.21536,371.81586 594.46062,384.95155 595.0818,385.60629 C 595.70298,386.26103 601.16122,388.57466 607.21122,390.74771 C 613.26122,392.92075 628.11122,398.33418 640.21122,402.77754 C 652.31122,407.22089 673.23622,414.90513 686.71122,419.85363 C 700.18622,424.80212 711.74716,428.8655 712.4022,428.88336 z M 85.858821,338.63356 C 86.765004,338.51383 104.54,322.45123 125.35883,302.93888 C 146.17764,283.42654 167.48728,263.40155 172.71357,258.43889 C 177.93986,253.47623 196.29753,236.20138 213.5084,220.05034 C 230.71926,203.89932 244.6682,190.32579 244.50605,189.88695 C 244.34389,189.44811 226.66122,176.22697 205.21122,160.50663 C 183.76122,144.78631 165.54451,132.03941 164.72964,132.1802 C 163.91477,132.32098 148.71834,151.55659 130.9598,174.92602 C 113.20125,198.29544 93.383071,224.39086 86.919397,232.91587 C 80.455722,241.44087 66.064651,260.42476 54.939239,275.10228 C 43.813826,289.77981 34.711216,302.42505 34.711216,303.20281 C 34.711216,303.98057 36.848716,305.98485 39.461216,307.65679 C 42.073716,309.32871 53.211216,317.03143 64.211216,324.77394 C 75.211216,332.51646 84.952638,338.75327 85.858821,338.63356 z M 291.21122,214.83931 C 292.86122,214.86259 303.21122,213.79147 314.21122,212.45906 C 325.21122,211.12665 343.88622,208.88274 355.71122,207.47259 C 367.53622,206.06245 378.25569,204.6687 379.53226,204.3754 C 380.80883,204.08209 381.68534,203.29619 381.48005,202.62899 C 381.27477,201.96176 362.68235,191.1831 340.16357,178.67638 C 312.85475,163.50932 298.61501,156.12902 297.4026,156.51381 C 296.40285,156.83112 292.35081,160.08496 288.39805,163.74456 C 284.44529,167.40417 277.7394,173.77732 273.49607,177.90713 C 269.25273,182.03694 264.69877,186.18022 263.37615,187.11442 C 262.05353,188.04863 260.72133,189.76922 260.4157,190.93793 C 260.07233,192.25097 260.50023,193.608 261.53562,194.48968 C 262.4572,195.27443 268.83622,200.1646 275.71122,205.35673 C 284.88687,212.28636 289.00906,214.80824 291.21122,214.83931 z M 250.81935,184.68424 C 251.21443,184.53663 259.11423,177.36317 268.37445,168.74323 C 277.63467,160.12328 287.11509,151.11504 289.44204,148.72492 C 293.45434,144.60369 293.80112,143.76039 296.15622,132.39756 C 297.52206,125.80763 300.20269,112.99087 302.11315,103.91587 C 304.02362,94.840865 307.84205,76.840865 310.59854,63.915865 C 313.35503,50.990865 315.91555,38.503365 316.28859,36.165865 C 316.66162,33.828365 316.73957,31.915865 316.46181,31.915865 C 316.18404,31.915865 299.81403,42.32701 280.084,55.051743 C 260.35397,67.776477 238.36122,81.924506 231.21122,86.491808 C 224.06122,91.05911 207.89385,101.46047 195.28373,109.60593 C 182.67361,117.7514 172.23174,124.86587 172.07958,125.41587 C 171.92742,125.96586 189.41999,139.58664 210.95197,155.68424 C 232.48394,171.78184 250.42426,184.83183 250.81935,184.68424 z " />
    <path
       transform="matrix(0.3617292,0,0,0.3617292,-5.1206476,-0.2815545)"
       id="path4575"
       style="fill:#2a5419;"
       d="M 423.58872,686.76926 C 423.38109,686.68862 417.81122,686.26819 411.21122,685.83497 C 404.61122,685.40175 382.78622,684.1078 362.71122,682.95953 C 342.63622,681.81126 298.09197,679.28994 263.724,677.3566 C 229.35603,675.42325 200.91865,673.52068 200.52982,673.12865 C 200.141,672.73662 200.77827,666.90889 201.94598,660.17814 C 203.11369,653.44739 204.28636,648.15767 204.5519,648.42322 C 204.81745,648.68876 204.4597,652.77102 203.7569,657.49489 C 202.96761,662.80015 202.83524,666.43989 203.41066,667.01531 C 203.92302,667.52767 222.53775,669.04401 244.77672,670.38495 C 267.0157,671.72589 293.08622,673.3074 302.71122,673.89942 C 312.33622,674.49143 342.19881,676.31232 369.07253,677.94584 C 395.94625,679.57936 418.73561,680.91587 419.71554,680.91587 C 420.69548,680.91587 421.76056,680.22967 422.0824,679.39098 C 422.40423,678.55229 423.56156,662.68979 424.65424,644.14098 C 425.74691,625.59217 426.85752,607.35495 427.12225,603.61383 C 427.51475,598.06712 427.31511,596.7011 426.0405,596.21198 C 425.1808,595.88209 412.49252,596.59348 397.84432,597.79285 C 383.19611,598.99221 355.68622,601.29521 336.71122,602.91061 C 317.73622,604.52601 282.4279,607.47349 258.24829,609.46056 C 234.06868,611.44763 213.36868,613.57966 212.24829,614.19841 C 211.1279,614.81716 209.53622,615.34421 208.71122,615.36964 C 207.54698,615.40552 206.39655,620.11649 203.57168,636.41587 C 201.56993,647.96587 199.38321,660.72915 198.7123,664.77871 C 197.5297,671.9167 197.43702,672.08466 195.67723,670.27871 C 194.67886,669.25415 186.48147,655.59087 177.46079,639.91587 C 168.44012,624.24087 146.41578,585.99087 128.51781,554.91587 C 110.61984,523.84087 95.289788,497.06586 94.451029,495.41587 C 93.612269,493.76587 89.539745,483.19086 85.400975,471.91587 C 81.262205,460.64087 69.037065,427.34087 58.233998,397.91587 C 47.430931,368.49086 35.399291,335.74753 31.49702,325.15292 C 25.634059,309.23505 24.585353,305.50151 25.457937,303.65292 C 26.038712,302.42253 39.596943,284.31586 55.587339,263.41587 C 71.577735,242.51586 87.597486,221.59087 91.186786,216.91587 C 94.776086,212.24086 109.02984,193.56587 122.86181,175.41587 C 136.69377,157.26586 151.27829,138.14086 155.27187,132.91587 L 162.53291,123.41587 L 194.37207,102.95655 C 211.8836,91.703924 246.01122,69.70854 270.21122,54.077916 C 294.41122,38.447292 316.23622,24.289152 318.71122,22.615383 C 321.18622,20.941614 324.33622,19.650093 325.71122,19.745337 C 327.08622,19.84058 339.91122,22.647742 354.21122,25.983474 C 368.51122,29.319205 406.08622,38.106777 437.71122,45.51141 C 469.33622,52.916043 500.83622,60.316437 507.71122,61.956729 C 514.58622,63.597021 527.81404,66.693634 537.10637,68.83809 L 554.00153,72.737101 L 591.10637,110.57128 C 611.51404,131.38008 644.74872,165.24917 664.96122,185.83592 C 685.17372,206.42268 701.71122,223.85395 701.71122,224.57207 C 701.71122,225.2902 700.65185,226.14364 699.35706,226.46862 C 697.35428,226.97128 695.30199,225.30329 685.60706,215.29334 C 679.33935,208.82198 647.75544,176.43562 615.4206,143.32367 C 583.08575,110.21171 554.58868,81.529759 552.09377,79.585992 C 548.26462,76.602726 545.42635,75.557986 533.88439,72.883279 C 526.36415,71.140555 515.71122,68.643951 510.21122,67.335271 C 504.71122,66.02659 470.96122,58.220149 435.21122,49.987622 C 399.46122,41.755096 361.54921,32.971099 350.96231,30.467629 C 340.37542,27.964159 330.36292,25.915865 328.71231,25.915865 C 327.06171,25.915865 325.71122,26.116764 325.71122,26.362306 C 325.71122,26.607849 323.26697,37.970349 320.27955,51.612306 C 317.29214,65.254264 313.91698,80.690865 312.77921,85.915865 C 311.64144,91.140865 308.41651,106.13161 305.6127,119.22864 C 300.76143,141.88963 300.59832,143.13362 302.24042,144.94813 C 303.18948,145.99684 309.87116,150.09943 317.0886,154.06501 C 324.30604,158.03061 346.18622,170.12544 365.71122,180.94243 C 385.23622,191.75944 402.93732,201.17622 405.04699,201.86864 C 407.15666,202.56106 410.30666,204.36755 412.04699,205.88305 C 413.78732,207.39856 416.78622,209.43152 418.71122,210.40076 C 420.63622,211.36998 429.63622,216.31999 438.71122,221.40077 C 447.78622,226.48154 472.08622,240.00072 492.71122,251.4434 C 513.33622,262.88607 533.42698,273.7158 537.35734,275.50948 C 541.28771,277.30314 544.7933,279.23965 545.14753,279.81282 C 545.50177,280.38599 549.53166,282.89364 554.10284,285.3854 C 558.67403,287.87716 563.3328,289.91587 564.45567,289.91587 C 565.57853,289.91587 566.7499,290.57428 567.0587,291.37901 C 567.51029,292.55582 569.43914,291.99563 576.91569,288.51619 C 582.02823,286.13693 600.08966,277.57747 617.0522,269.49516 C 634.01473,261.41286 660.32187,248.73929 675.51251,241.33167 C 690.70314,233.92406 703.63924,228.05801 704.2594,228.29598 C 704.95824,228.56416 705.83315,234.75266 706.5605,244.57226 C 707.20594,253.28625 709.52502,284.71587 711.71399,314.41587 C 713.90296,344.11586 716.13039,373.59087 716.66384,379.91587 C 717.19728,386.24086 718.36795,401.1726 719.26532,413.09751 L 720.89692,434.77916 L 714.93137,446.09751 C 711.65031,452.32261 703.78004,467.31586 697.44188,479.41587 C 691.10371,491.51587 673.33752,525.49086 657.96144,554.91587 C 642.58536,584.34087 626.32724,615.4579 621.83228,624.06484 C 617.33732,632.67177 613.10873,640.1391 612.43542,640.65891 C 611.76211,641.17871 599.51122,644.42019 585.21122,647.86219 C 570.91122,651.30419 544.81122,657.61871 527.21122,661.89445 C 509.61122,666.17019 479.18109,673.54918 459.58872,678.2922 C 439.99634,683.03522 423.79634,686.84989 423.58872,686.76926 z M 429.18364,679.91587 C 429.37855,679.91587 448.13949,675.3889 470.87462,669.85594 C 493.60975,664.32298 530.66122,655.31986 553.21122,649.849 C 575.76122,644.37814 595.29659,639.43156 596.62316,638.85658 C 598.6839,637.9634 598.82951,637.61545 597.62316,636.46698 C 596.84659,635.72766 576.63622,625.56864 552.71122,613.89137 C 528.78622,602.21409 507.34907,591.81875 505.07311,590.79061 C 500.98384,588.94333 500.53658,588.95595 467.18202,591.85965 C 448.61789,593.47576 432.94721,595.27988 432.3583,595.86879 C 431.74622,596.48087 430.7707,606.19051 430.08097,618.53557 C 429.41736,630.41339 428.55281,648.57917 428.15977,658.90397 C 427.76673,669.22877 427.75657,678.18023 428.1372,678.7961 C 428.51783,679.41197 428.98873,679.91587 429.18364,679.91587 z M 195.67655,657.91587 C 196.17149,657.91587 196.81425,657.12837 197.1049,656.16587 C 197.39555,655.20337 199.00087,645.52874 200.67229,634.6667 C 202.3437,623.80465 203.71122,613.60874 203.71122,612.00912 C 203.71122,610.4095 201.73638,604.89663 199.32268,599.75829 C 196.90898,594.61996 187.85742,575.34087 179.2081,556.91587 C 170.55878,538.49087 158.76572,513.29087 153.0013,500.91587 C 147.23687,488.54087 141.99904,477.86755 141.36167,477.19738 C 140.45922,476.24849 135.99994,477.93863 121.20702,484.83632 C 110.0338,490.0462 102.08339,494.32954 101.90082,495.23766 C 101.7301,496.08682 102.30216,498.15794 103.17206,499.84015 C 104.04196,501.52234 122.57416,533.61506 144.35473,571.15728 C 166.13531,608.6995 186.39047,643.57837 189.36621,648.66587 C 192.34195,653.75337 195.1816,657.91587 195.67655,657.91587 z M 610.05494,633.33747 C 610.87688,633.02206 622.01081,612.88567 634.79703,588.58994 C 647.58324,564.2942 659.47681,541.71587 661.22719,538.41587 C 662.97757,535.11587 667.34319,526.79087 670.92856,519.91587 C 674.51393,513.04087 680.49097,501.56586 684.21087,494.41587 C 687.93076,487.26587 692.87748,477.81586 695.20356,473.41587 C 697.52964,469.01587 702.67933,459.23298 706.64731,451.67613 C 710.61529,444.11926 713.71543,437.20346 713.53652,436.30766 C 713.32778,435.26252 709.26988,433.16994 702.21122,430.46742 C 696.16122,428.15109 669.74414,418.25047 643.5066,408.46609 C 610.48341,396.15121 595.09557,390.86354 593.5066,391.28474 C 592.24414,391.6194 583.56122,398.66208 574.21122,406.93512 C 564.86122,415.20817 552.83092,425.80672 547.47723,430.48748 C 538.73553,438.13036 537.59317,439.52893 536.27114,444.20689 C 535.46149,447.07182 528.46773,479.05584 520.72946,515.28247 C 510.43882,563.45799 506.94778,581.49599 507.73181,582.44068 C 508.32138,583.15107 531.24903,595.02249 558.68214,608.82161 C 587.00872,623.07016 609.20624,633.66314 610.05494,633.33747 z M 214.42087,603.91587 C 215.93578,603.91587 241.25834,601.88098 270.69323,599.39388 C 300.12813,596.90679 336.81122,593.78129 352.21122,592.44832 C 367.61122,591.11536 390.05096,589.22417 402.0773,588.24567 C 414.10365,587.26718 424.61242,585.97738 425.43014,585.37945 C 426.56945,584.54637 427.22879,579.74965 428.25147,564.85409 C 428.98549,554.16307 429.82424,541.93985 430.11536,537.69139 L 430.64468,529.9669 L 427.42795,527.56998 C 425.65875,526.25167 402.16122,512.57678 375.21122,497.18133 C 348.26122,481.78587 317.21122,464.00297 306.21122,457.66375 C 295.21122,451.32455 277.92904,441.34323 267.80636,435.48305 C 251.62034,426.11269 249.08865,424.94248 246.80636,425.77634 C 245.37904,426.29782 231.16122,432.75129 215.21122,440.11739 C 199.26122,447.48348 179.39102,456.61611 171.05522,460.41211 C 162.71942,464.20813 154.46674,468.48307 152.71594,469.91202 L 149.53266,472.51007 L 173.03511,522.46298 C 185.96145,549.93707 199.94157,579.50337 204.10203,588.16587 C 211.15755,602.85617 211.85183,603.91587 214.42087,603.91587 z M 437.97954,585.34757 C 439.75697,585.10743 452.68622,584.00271 466.71122,582.89264 C 480.73622,581.78257 493.18737,580.65922 494.38045,580.39632 C 495.92855,580.05518 496.98214,578.55788 498.06004,575.16709 C 498.89074,572.55392 499.81901,569.06587 500.12286,567.41587 C 500.42672,565.76587 503.81428,549.79087 507.65078,531.91587 C 511.48728,514.04087 516.67035,489.83331 519.16873,478.12129 C 521.6671,466.40929 523.71122,456.17179 523.71122,455.37129 C 523.71122,454.57081 523.23866,453.91587 522.66108,453.91587 C 522.08351,453.91587 513.64601,460.76698 503.91108,469.14058 C 494.17616,477.51419 475.41122,493.77103 462.21122,505.26691 C 449.01122,516.76279 437.59989,526.73908 436.8527,527.43643 C 435.9043,528.32157 435.23509,533.34011 434.63596,544.0601 C 434.16394,552.50578 433.70347,564.87539 433.6127,571.54813 C 433.52192,578.22088 433.7402,584.15375 434.09776,584.73229 C 434.45532,585.31083 436.20212,585.58771 437.97954,585.34757 z M 432.32279,523.58071 C 433.5149,523.48765 449.35256,510.35274 468.69462,493.41587 C 487.53776,476.91587 507.68867,459.29415 513.4744,454.25651 C 519.26013,449.21886 524.78301,443.81885 525.74747,442.25651 C 526.71193,440.69416 529.77963,428.61586 532.56458,415.41587 C 535.34953,402.21587 541.45692,373.47474 546.13657,351.5467 L 554.64502,311.67755 L 552.70577,306.16004 C 551.63919,303.12541 549.0918,298.2109 547.04491,295.23892 C 543.77395,290.48962 541.74232,288.94826 530.26726,282.50998 C 523.08644,278.48104 497.86122,264.48773 474.21122,251.4137 C 450.56122,238.33969 423.78622,223.493 414.71122,218.42106 C 401.10403,210.8161 397.24695,209.10288 392.71122,208.64917 C 389.68622,208.34659 382.26122,208.71113 376.21122,209.45927 C 370.16122,210.20743 349.68622,212.64843 330.71122,214.8837 C 311.73622,217.11899 294.99412,219.19695 293.50655,219.50136 C 292.01898,219.80579 290.57542,220.81108 290.29865,221.73537 C 290.02187,222.65964 286.38393,240.96587 282.21433,262.41587 C 278.04474,283.86586 272.21341,313.79087 269.25582,328.91587 C 266.29823,344.04087 261.14078,370.33774 257.79481,387.35337 C 254.44883,404.36899 251.71122,419.08664 251.71122,420.05926 C 251.71122,421.19167 254.13875,423.22632 258.46122,425.71682 C 262.17372,427.85587 290.86122,444.16132 322.21122,461.95115 C 353.56122,479.74099 390.68622,500.92239 404.71122,509.02092 C 418.73622,517.11946 431.16142,523.67137 432.32279,523.58071 z M 98.683137,488.91587 C 99.152775,488.91587 107.78872,485.11084 117.87412,480.46026 C 127.95953,475.80967 136.62687,471.36048 137.13489,470.57315 C 137.79358,469.55233 133.37792,459.1402 121.74286,434.27877 C 112.76922,415.10417 102.43891,393.11586 98.78661,385.41587 C 95.134308,377.71587 89.910721,366.56925 87.178639,360.6456 L 82.211216,349.87534 L 61.711216,335.07333 C 50.436216,326.93223 40.015386,319.4919 38.553815,318.53927 C 37.092244,317.58662 35.680703,317.16915 35.417055,317.61152 C 35.153408,318.05392 40.301655,333.04087 46.857603,350.91587 C 53.413552,368.79087 63.459137,396.24086 69.181125,411.91587 C 74.903113,427.59087 83.432887,450.91274 88.136178,463.74226 C 92.839469,476.57178 96.944484,487.48429 97.258433,487.99226 C 97.572383,488.50025 98.213499,488.91587 98.683137,488.91587 z M 150.26937,465.60015 C 152.21663,465.28415 163.57516,460.43849 175.51053,454.83204 C 187.44591,449.22557 207.78622,439.72409 220.71122,433.71762 C 233.63622,427.71114 244.96727,422.03605 245.89133,421.10631 C 247.01791,419.9728 248.88734,412.49721 251.56556,398.41587 C 253.76233,386.86586 262.09534,343.44086 270.08336,301.91587 C 278.07138,260.39087 284.86501,224.84087 285.18032,222.91587 C 285.49563,220.99086 285.40657,218.91321 284.98241,218.29885 C 284.55826,217.68449 277.98047,212.62199 270.36512,207.04885 C 262.74976,201.47571 255.71308,196.91587 254.72804,196.91587 C 253.743,196.91587 244.44115,204.90337 234.05726,214.66587 C 223.67337,224.42836 187.62256,258.22343 153.94434,289.76601 C 108.99333,331.86654 92.711216,347.69964 92.711216,349.31052 C 92.711216,350.51743 99.276028,365.43487 107.29969,382.46038 C 115.32335,399.48589 123.83235,417.69086 126.20857,422.91587 C 128.58479,428.14087 134.17396,440.0116 138.62893,449.29528 L 146.72889,466.17469 L 150.26937,465.60015 z M 540.76639,429.91587 C 541.34673,429.91587 548.20923,424.42046 556.01639,417.70385 C 563.82355,410.98724 574.57018,401.71116 579.89779,397.09033 C 585.22541,392.46949 589.8031,388.11881 590.07044,387.42213 C 590.33778,386.72546 584.44583,373.05154 576.97723,357.03566 C 569.50862,341.01977 562.83832,327.91587 562.15432,327.91587 C 561.47033,327.91587 560.42425,330.05336 559.8297,332.66587 C 559.23515,335.27837 554.46527,357.51675 549.22996,382.0845 C 543.99465,406.65227 539.71122,427.46477 539.71122,428.3345 C 539.71122,429.20425 540.18605,429.91587 540.76639,429.91587 z M 712.4022,428.88336 C 713.05724,428.90125 713.84065,428.51545 714.14311,428.02607 C 714.44557,427.53668 713.80216,415.94919 712.71332,402.27607 C 711.62449,388.60296 709.13417,357.16587 707.17929,332.41587 C 705.2244,307.66587 702.7464,276.39087 701.67262,262.91587 C 700.59883,249.44087 699.71824,237.62837 699.71575,236.66587 C 699.71326,235.70336 699.08132,234.91587 698.31145,234.91587 C 697.54157,234.91587 680.10407,243.05729 659.56145,253.0079 C 639.01882,262.95853 610.51122,276.73805 596.21122,283.6291 C 581.91122,290.52013 569.46154,296.89123 568.54527,297.78706 C 567.62899,298.68291 566.08021,303.32416 565.10353,308.10095 L 563.32775,316.78603 L 565.89115,322.60095 C 567.30101,325.79915 574.19155,341.01587 581.20346,356.41587 C 588.21536,371.81586 594.46062,384.95155 595.0818,385.60629 C 595.70298,386.26103 601.16122,388.57466 607.21122,390.74771 C 613.26122,392.92075 628.11122,398.33418 640.21122,402.77754 C 652.31122,407.22089 673.23622,414.90513 686.71122,419.85363 C 700.18622,424.80212 711.74716,428.8655 712.4022,428.88336 z M 86.576945,340.98773 C 87.485535,340.50147 97.686749,331.17386 109.24631,320.25973 C 120.80587,309.3456 156.35189,275.81984 188.23746,245.75805 C 220.12303,215.69624 247.11122,190.15475 248.21122,188.99919 C 249.31122,187.84364 255.16122,182.45749 261.21122,177.03 C 267.26122,171.60251 277.54996,162.044 284.07509,155.78885 L 295.93896,144.41587 L 300.1966,123.91587 C 302.53831,112.64086 306.80939,91.940865 309.6879,77.915865 C 312.5664,63.890865 315.93343,47.610961 317.17017,41.7383 C 318.40691,35.86564 319.07695,30.507632 318.65915,29.831617 C 318.11377,28.949173 315.54604,30.105628 309.55537,33.931775 C 304.96609,36.862878 291.31122,45.644363 279.21122,53.446187 C 267.11122,61.24801 237.63622,80.199152 213.71122,95.559836 C 189.78622,110.92052 169.31122,124.2354 168.21122,125.14846 C 167.11122,126.06151 165.2473,127.62021 164.06918,128.61221 C 162.89106,129.60423 148.97327,147.51586 133.14076,168.41587 C 117.30825,189.31587 91.694284,223.06587 76.220842,243.41587 C 60.7474,263.76587 44.402689,285.28679 39.899263,291.24012 C 35.395837,297.19347 31.718107,302.36847 31.726529,302.74012 C 31.734951,303.11179 32.072451,303.91075 32.476529,304.51561 C 32.880607,305.12048 43.786216,312.94016 56.711216,321.89268 C 69.636216,330.84519 81.271809,339.0029 82.568089,340.0209 C 84.190001,341.29465 85.440113,341.59614 86.576945,340.98773 z M 290.91987,214.85006 C 292.40963,214.88626 302.98463,213.79185 314.41987,212.41805 C 325.85511,211.04425 344.43622,208.79585 355.71122,207.42162 C 366.98622,206.04737 376.94887,204.92138 377.85044,204.91942 C 378.752,204.91746 380.49735,204.09989 381.72897,203.10258 C 383.95995,201.29603 383.81211,201.20295 342.0275,178.10258 C 318.96007,165.34989 299.62676,154.91587 299.0646,154.91587 C 298.50244,154.91587 294.27619,158.40337 289.67294,162.66587 C 285.0697,166.92836 276.78266,174.64121 271.25731,179.80552 C 265.73196,184.96983 260.873,189.76867 260.45963,190.46959 C 260.04625,191.1705 259.96519,192.34516 260.27949,193.07993 C 260.59379,193.8147 267.007,198.99875 274.53108,204.60006 C 283.66702,211.40131 289.11097,214.80611 290.91987,214.85006 z M 205.40421,645.64684 C 205.15067,646.61981 204.92655,646.06587 204.90617,644.41587 C 204.88579,642.76587 205.09323,641.96981 205.36716,642.64684 C 205.64108,643.32387 205.65775,644.67387 205.40421,645.64684 z M 206.3735,639.16587 C 206.09609,639.85337 205.86911,639.29087 205.86911,637.91587 C 205.86911,636.54087 206.09609,635.97837 206.3735,636.66587 C 206.65091,637.35337 206.65091,638.47837 206.3735,639.16587 z M 208.3735,628.16587 C 208.09609,628.85337 207.86911,628.29087 207.86911,626.91587 C 207.86911,625.54087 208.09609,624.97837 208.3735,625.66587 C 208.65091,626.35337 208.65091,627.47837 208.3735,628.16587 z M 209.39433,623.10337 C 209.07511,623.9011 208.83815,623.66415 208.79017,622.4992 C 208.74675,621.44504 208.98309,620.85441 209.31539,621.1867 C 209.64768,621.51899 209.6832,622.3815 209.39433,623.10337 z " />
    <path
       sodipodi:nodetypes="csssssssssssssssssssssssssssssssscccsssssssssssssssssssssssssssssssssssssssssssssssssssssssssssssssssccssssssssssccsssssssscccsssssccssssssssssssccssssssssssssssssssssssssssssssssccssccssccssccssccssssccsssccsssccsssssssssssssssssssssssssssssssssssssccsssccsssccsssccsssccsssccssssccsssssssssssssssssssssssssssssssscccssccsssc"
       transform="matrix(0.3617292,0,0,0.3617292,-5.1206476,-0.2815545)"
       id="path4573"
       style="fill:#25330f;"
       d="M 421.10903,685.78343 C 418.96523,685.71059 404.16122,684.85223 388.21122,683.87596 C 372.26122,682.8997 350.21122,681.5825 339.21122,680.94886 C 328.21122,680.31522 307.96122,679.16063 294.21122,678.3831 C 280.46122,677.60557 264.03622,676.67601 257.71122,676.31739 C 251.38622,675.95878 246.02372,675.49674 245.79455,675.29062 C 245.56539,675.08451 245.71479,674.57837 246.12657,674.16587 C 246.53834,673.75337 249.65084,673.45925 253.04323,673.51227 C 256.43563,673.56528 266.79558,673.91203 276.06536,674.28282 C 285.33514,674.6536 293.78964,675.42265 294.85314,675.99182 C 295.91663,676.56099 297.63873,676.75626 298.68003,676.42577 C 299.72132,676.09528 313.31683,676.53384 328.89226,677.40036 C 344.46769,678.26688 371.59099,679.8288 389.16627,680.8713 C 409.2997,682.06554 421.76104,682.42439 422.85053,681.84131 C 423.80159,681.33232 426.36282,680.91587 428.54214,680.91587 C 430.72146,680.91587 454.71355,675.50001 481.85788,668.88062 C 509.00222,662.26123 540.66122,654.55886 552.21122,651.76424 C 563.76122,648.96962 579.06122,645.22091 586.21122,643.43378 C 595.85367,641.02366 599.29618,639.75482 599.54016,638.52098 C 599.79617,637.22636 589.07146,631.54011 551.17192,612.87607 C 524.38846,599.68627 501.51544,588.67714 500.34297,588.41133 C 499.17051,588.14553 483.36122,589.30173 465.21122,590.98068 C 447.06122,592.65963 428.83622,594.21019 424.71122,594.42638 C 420.58622,594.64256 387.06122,597.3155 350.21122,600.36624 C 313.36122,603.41697 269.03622,607.05252 251.71122,608.44522 C 234.38622,609.83792 218.72267,611.21384 216.90334,611.50281 C 215.084,611.79178 212.86046,612.88663 211.96213,613.9358 C 210.80981,615.28161 209.96959,615.54526 209.10904,614.83107 C 208.28165,614.14439 207.6779,614.16077 207.23218,614.88196 C 206.87077,615.46672 205.276,623.64329 203.68823,633.0521 C 202.10046,642.46092 200.53549,650.42494 200.21051,650.74991 C 199.88553,651.07489 199.89016,649.33268 200.2208,646.87833 C 200.55144,644.42398 201.43654,638.59087 202.1877,633.91587 C 202.93886,629.24087 204.06322,621.81587 204.68627,617.41587 L 205.81909,609.41587 L 197.22328,591.0415 C 192.49558,580.93559 188.76064,572.26762 188.9234,571.77934 C 189.08615,571.29107 193.23522,579.33453 198.14354,589.65372 C 203.05186,599.9729 207.59735,609.00962 208.24464,609.7353 C 209.21638,610.82475 214.10944,610.60359 236.31637,608.4665 C 251.10854,607.04297 274.91122,604.76571 289.21122,603.40593 C 303.51122,602.04614 325.33622,600.01738 337.71122,598.89756 C 350.08622,597.77775 369.88622,596.01764 381.71122,594.98621 C 393.53622,593.95478 424.94198,591.39478 451.50179,589.29732 C 478.06161,587.19986 500.2525,585.19937 500.81489,584.8518 C 501.37728,584.50422 502.95637,579.31395 504.32399,573.31786 C 505.6916,567.32176 514.23294,528.44087 523.30476,486.91587 C 532.37657,445.39087 542.45421,399.49086 545.69951,384.91587 C 548.94481,370.34087 553.19854,350.99086 555.15224,341.91587 C 557.10595,332.84087 560.05596,319.21067 561.70783,311.62655 C 563.35969,304.04242 564.71122,297.17992 564.71122,296.37655 C 564.71122,295.57317 564.02081,294.91587 563.17697,294.91587 C 562.33313,294.91587 556.59563,292.05185 550.42697,288.5514 C 544.25831,285.05093 530.66122,277.34526 520.21122,271.42769 C 509.76122,265.51011 499.63622,259.76297 497.71122,258.65625 C 495.78622,257.54955 492.86122,255.86291 491.21122,254.90819 C 489.56122,253.95345 482.13622,249.66925 474.71122,245.38775 C 467.28622,241.10622 459.18622,236.511 456.71122,235.17613 C 454.23622,233.84126 451.76122,232.29787 451.21122,231.74635 C 450.66122,231.19483 452.46122,231.79418 455.21122,233.07819 C 457.96122,234.36223 468.76122,240.07852 479.21122,245.78106 C 489.66122,251.4836 506.31122,260.55831 516.21122,265.94707 C 526.11122,271.33583 535.56122,276.32628 537.21122,277.03699 C 538.86122,277.74768 542.01122,279.52911 544.21122,280.99572 C 546.41122,282.46233 551.34347,285.29433 555.17177,287.28906 C 559.00008,289.2838 563.13602,290.91587 564.36276,290.91587 C 565.58949,290.91587 566.85285,291.33601 567.17021,291.84952 C 567.48757,292.36302 571.90163,290.84976 576.97923,288.4867 C 582.05682,286.12367 600.08966,277.57747 617.0522,269.49516 C 634.01473,261.41286 660.32187,248.73929 675.51251,241.33167 C 690.70314,233.92406 703.63371,228.05587 704.2471,228.29126 C 704.94012,228.5572 705.82225,235.28726 706.5771,246.06755 C 707.24521,255.60913 708.66778,274.89087 709.73836,288.91587 C 710.80894,302.94086 713.73019,341.30608 716.23001,374.17188 C 719.74619,420.39997 720.51719,434.40988 719.6357,436.05698 C 718.79878,437.62077 718.28896,437.85066 717.71554,436.92285 C 717.28615,436.22809 716.40457,435.98735 715.75649,436.38788 C 715.1084,436.78843 714.04559,436.4389 713.39469,435.61116 C 712.74378,434.78341 695.33622,427.81142 674.71122,420.11782 C 654.08622,412.42424 627.8885,402.65393 616.49406,398.40603 C 602.65791,393.24784 595.01868,390.88362 593.49406,391.28789 C 592.2385,391.62083 583.56122,398.66208 574.21122,406.93512 C 564.86122,415.20817 552.8927,425.75354 547.6145,430.36928 C 542.33631,434.98503 537.49629,440.03377 536.8589,441.58871 C 536.22152,443.14364 533.71776,453.86586 531.29498,465.41587 C 528.87221,476.96587 524.59537,497.21587 521.7909,510.41587 C 518.98642,523.61586 516.26096,536.21587 515.73432,538.41587 C 515.20768,540.61587 513.16824,550.06587 511.20224,559.41587 C 509.23624,568.76587 507.39118,577.62859 507.1021,579.1108 C 506.65363,581.41023 507.15705,582.17222 510.53235,584.30295 C 512.70807,585.67642 535.71129,597.4136 561.65063,610.38557 C 587.58996,623.35754 609.24332,633.70505 609.7692,633.38004 C 610.29508,633.05502 610.99531,633.49263 611.32527,634.35249 C 611.65523,635.21235 612.55205,635.91587 613.31821,635.91587 C 614.08436,635.91587 614.71122,636.36587 614.71122,636.91587 C 614.71122,637.46587 613.82443,638.80266 612.74057,639.88652 C 611.50901,641.11808 609.54,641.81428 607.49057,641.74282 C 605.68693,641.67992 602.86122,641.92572 601.21122,642.28903 C 599.56122,642.65235 597.31122,643.17977 596.21122,643.46109 C 595.11122,643.7424 571.03622,649.75452 542.71122,656.82135 C 514.38622,663.88817 476.31523,673.32542 458.10903,677.793 C 439.90282,682.26058 423.25282,685.85627 421.10903,685.78343 z M 540.63634,429.91587 C 541.28821,429.91587 548.20923,424.42046 556.01639,417.70385 C 563.82355,410.98724 574.57018,401.71116 579.89779,397.09033 C 585.22541,392.46949 589.8031,388.11881 590.07044,387.42213 C 590.33778,386.72546 584.44583,373.05154 576.97723,357.03566 C 569.35578,340.692 562.82547,327.91587 562.09313,327.91587 C 561.37548,327.91587 560.347,329.60337 559.80762,331.66587 C 559.26825,333.72837 558.142,339.01587 557.30485,343.41587 C 556.4677,347.81586 554.40387,357.71587 552.71857,365.41587 C 551.03327,373.11586 547.61174,388.86586 545.11518,400.41587 C 542.61862,411.96587 540.32288,423.32837 540.01355,425.66587 C 539.62635,428.59168 539.8204,429.91587 540.63634,429.91587 z M 712.4022,428.88336 C 713.05724,428.90125 713.84689,428.50536 714.15697,428.00365 C 714.46705,427.50192 712.68978,401.06442 710.20749,369.25365 C 707.72519,337.44286 704.57496,297.69086 703.20697,280.91587 C 701.83898,264.14087 700.4347,246.92836 700.08634,242.66587 C 699.6558,237.39767 699.04606,234.91587 698.18232,234.91587 C 697.48347,234.91587 680.10407,243.05729 659.56145,253.0079 C 639.01882,262.95853 610.51122,276.73805 596.21122,283.6291 C 581.91122,290.52013 569.415,296.91244 568.44184,297.83423 C 567.38037,298.83965 566.00534,302.97071 565.00504,308.15954 L 563.33762,316.8089 L 565.89608,322.61239 C 567.30323,325.8043 574.19155,341.01587 581.20346,356.41587 C 588.21536,371.81586 594.46062,384.95155 595.0818,385.60629 C 595.70298,386.26103 601.16122,388.57466 607.21122,390.74771 C 613.26122,392.92075 628.11122,398.33418 640.21122,402.77754 C 652.31122,407.22089 673.23622,414.90513 686.71122,419.85363 C 700.18622,424.80212 711.74716,428.8655 712.4022,428.88336 z M 236.10039,674.91587 C 231.11968,674.91587 226.85705,674.73172 226.62789,674.50664 C 226.39872,674.28156 220.50176,673.9346 213.52352,673.73561 C 206.54529,673.53662 200.60029,673.13827 200.31241,672.85039 C 200.02452,672.56251 200.66911,667.39697 201.74482,661.37142 C 202.82053,655.34587 203.9139,649.74087 204.17452,648.91587 C 204.43514,648.09087 204.42419,649.89087 204.15019,652.91587 C 203.87619,655.94087 203.39094,660.4411 203.07187,662.91639 C 202.50968,667.2777 202.61112,667.4944 206.35148,669.92232 C 209.89405,672.22186 210.69722,672.35428 216.12555,671.53388 C 220.32239,670.8996 222.58645,670.98137 223.92202,671.81544 C 225.19601,672.61106 228.17929,672.77562 233.155,672.32473 C 239.10018,671.786 246.08553,672.82589 247.96608,674.14308 C 250.18775,675.6992 244.75304,674.91587 236.10039,674.91587 z M 196.82092,670.91587 C 196.47519,670.91587 195.55398,669.90337 194.7738,668.66587 C 193.99362,667.42837 183.49536,649.31587 171.44433,628.41587 C 159.3933,607.51587 146.0269,584.34087 141.74121,576.91587 C 137.45553,569.49087 129.25335,555.31587 123.51416,545.41587 C 117.77496,535.51587 108.74113,519.76587 103.43897,510.41587 C 95.728048,496.81817 92.369473,489.51322 86.657472,473.91587 C 82.729805,463.19086 74.578231,440.91587 68.542863,424.41587 C 62.507495,407.91587 50.40136,374.7464 41.640341,350.70596 C 32.879322,326.66551 25.711216,306.30302 25.711216,305.45596 C 25.711216,304.58254 26.576963,303.91587 27.711216,303.91587 C 28.811216,303.91587 29.711216,304.30762 29.711216,304.78645 C 29.711216,305.26527 40.162174,313.24266 52.935567,322.51398 C 65.70896,331.7853 77.63396,340.66515 79.435567,342.24699 C 81.237174,343.82882 82.711216,345.75144 82.711216,346.51945 C 82.711216,347.28749 82.458696,347.91587 82.150061,347.91587 C 81.841426,347.91587 71.882928,340.90456 60.020066,332.3352 C 48.157203,323.76583 37.382821,316.26774 36.076994,315.67276 C 34.771168,315.07779 33.396412,314.89734 33.021981,315.27177 C 32.647551,315.64619 33.061886,318.0818 33.942725,320.68421 C 34.823564,323.28661 39.209481,335.31586 43.689207,347.41587 C 48.168933,359.51587 53.848281,375.04087 56.309981,381.91587 C 58.77168,388.79087 61.23481,395.4842 61.783602,396.78994 C 62.332395,398.09569 69.784241,418.34569 78.34326,441.78994 C 86.90228,465.2342 95.199548,487.38909 96.781633,491.02303 C 98.363719,494.65697 109.38246,514.45696 121.26773,535.02303 C 133.15299,555.58909 144.58488,575.34087 146.67193,578.91587 C 148.75897,582.49087 153.8493,591.26587 157.98377,598.41587 C 162.11824,605.56587 171.88393,622.44087 179.68532,635.91587 C 187.4867,649.39087 194.26493,660.8243 194.74805,661.32349 C 195.27127,661.86411 196.25013,661.71351 197.16884,660.95104 C 198.4655,659.87491 198.70947,659.96929 198.70021,661.54343 C 198.69416,662.57327 198.41028,665.10337 198.06937,667.16587 C 197.72846,669.22837 197.16666,670.91587 196.82092,670.91587 z M 205.40421,645.64684 C 205.15067,646.61981 204.92655,646.06587 204.90617,644.41587 C 204.88579,642.76587 205.09323,641.96981 205.36716,642.64684 C 205.64108,643.32387 205.65775,644.67387 205.40421,645.64684 z M 206.3735,639.16587 C 206.09609,639.85337 205.86911,639.29087 205.86911,637.91587 C 205.86911,636.54087 206.09609,635.97837 206.3735,636.66587 C 206.65091,637.35337 206.65091,638.47837 206.3735,639.16587 z M 208.3735,628.16587 C 208.09609,628.85337 207.86911,628.29087 207.86911,626.91587 C 207.86911,625.54087 208.09609,624.97837 208.3735,625.66587 C 208.65091,626.35337 208.65091,627.47837 208.3735,628.16587 z M 209.39433,623.10337 C 209.07511,623.9011 208.83815,623.66415 208.79017,622.4992 C 208.74675,621.44504 208.98309,620.85441 209.31539,621.1867 C 209.64768,621.51899 209.6832,622.3815 209.39433,623.10337 z M 209.3828,606.25042 C 209.1345,606.91 208.60949,606.54776 208.17325,605.41587 C 207.7493,604.31587 206.15013,600.60337 204.61954,597.16587 C 203.08895,593.72837 202.02777,590.91587 202.26136,590.91587 C 202.49496,590.91587 204.29155,594.10392 206.2538,598.00042 C 208.21605,601.89692 209.62409,605.60942 209.3828,606.25042 z M 198.56122,582.3992 C 198.27705,582.68337 197.74455,582.61587 197.37789,582.2492 C 197.01122,581.88254 196.71122,581.11754 196.71122,580.5492 C 196.71122,579.9226 197.17699,579.98164 197.89455,580.6992 C 198.54539,581.35004 198.84539,582.11504 198.56122,582.3992 z M 196.37174,578.91587 C 196.18502,578.91587 195.50271,577.67837 194.85548,576.16587 C 193.76428,573.61583 193.78897,573.55701 195.19497,575.357 C 196.02891,576.42462 196.71122,577.66212 196.71122,578.107 C 196.71122,578.55188 196.55845,578.91587 196.37174,578.91587 z M 193.47356,572.48686 C 193.22808,572.73235 188.25633,562.9168 182.42524,550.67453 C 176.59415,538.43227 169.27339,523.01587 166.15689,516.41587 C 163.04038,509.81586 151.26483,484.61586 139.98899,460.41587 C 128.71316,436.21587 112.33781,401.19095 103.59934,382.5827 C 94.860874,363.97447 87.711216,348.37678 87.711216,347.92116 C 87.711216,347.46556 99.973716,335.495 114.96122,321.31993 C 129.94872,307.14484 153.68622,284.5206 167.71122,271.04382 C 181.73622,257.56705 197.40285,242.14592 202.52596,236.77464 C 207.64907,231.40337 221.15347,218.1003 232.53574,207.21228 C 243.91801,196.32425 262.59246,178.64086 274.03451,167.91587 C 285.47656,157.19087 295.25966,148.26586 295.77473,148.08254 C 296.2898,147.89919 296.71122,148.86773 296.71122,150.23483 C 296.71122,152.17599 292.60415,156.52744 277.96122,170.1005 C 267.24943,180.02963 258.59421,188.86873 257.77197,190.71865 C 256.85041,192.79201 255.34484,194.21919 253.58631,194.68632 C 252.07579,195.08756 246.64845,199.43809 241.52556,204.35413 C 236.40268,209.27017 228.15598,217.14517 223.19957,221.85413 C 218.24317,226.56309 207.44317,236.71583 199.19957,244.41576 C 190.95598,252.11571 180.61122,261.8146 176.21122,265.96884 C 171.81122,270.12309 159.88622,281.37457 149.71122,290.97213 C 139.53622,300.56968 122.34669,316.69891 111.51227,326.81482 C 100.67784,336.93075 91.565341,345.85363 91.262265,346.64344 C 90.959188,347.43324 90.711216,348.91071 90.711216,349.92672 C 90.711216,350.94273 93.636216,357.92989 97.211216,365.45373 C 100.78622,372.97756 103.71122,379.25511 103.71122,379.40382 C 103.71122,379.55255 106.01694,384.5661 108.83505,390.54505 C 111.65316,396.524 116.82816,407.43921 120.33505,414.80107 C 123.84194,422.16294 126.71122,428.34301 126.71122,428.53456 C 126.71122,428.72611 130.31122,436.37817 134.71122,445.53915 C 139.11122,454.70013 142.71122,462.52188 142.71122,462.92082 C 142.71122,463.31975 143.58332,464.75484 144.64923,466.10992 C 145.71514,467.46501 146.90232,469.8291 147.28742,471.36345 C 147.67252,472.89781 149.49626,477.25315 151.34018,481.04201 C 153.1841,484.83085 156.92753,492.82257 159.65891,498.80136 C 162.39029,504.78017 167.3919,515.46429 170.7736,522.54389 C 174.15529,529.62348 179.98963,542.16587 183.73878,550.41587 C 187.48793,558.66587 191.31243,566.90642 192.23766,568.7282 C 193.16289,570.54998 193.71904,572.24138 193.47356,572.48686 z M 188.21855,569.91587 C 187.96187,569.91587 186.81133,568.07226 185.66178,565.81896 C 184.51224,563.56567 183.74322,561.55054 183.95285,561.3409 C 184.16249,561.13127 185.31303,562.97488 186.50962,565.43781 C 187.7062,567.90074 188.47522,569.91587 188.21855,569.91587 z M 141.56122,473.3992 C 141.27705,473.68336 140.74455,473.61586 140.37789,473.24919 C 140.01122,472.88254 139.71122,472.11753 139.71122,471.5492 C 139.71122,470.9226 140.17699,470.98163 140.89455,471.69919 C 141.54539,472.35003 141.84539,473.11503 141.56122,473.3992 z M 713.10423,447.91587 C 712.88808,447.91587 712.71122,447.49242 712.71122,446.97488 C 712.71122,446.45734 713.15607,445.75896 713.69977,445.42294 C 714.26663,445.07261 714.43427,445.474 714.09278,446.36392 C 713.76523,447.21749 713.32039,447.91587 713.10423,447.91587 z M 557.71122,309.91587 C 556.96747,311.06673 556.74185,310.7176 556.74185,308.41587 C 556.74185,306.76587 557.17806,304.74086 557.71122,303.91587 C 558.45497,302.765 558.68059,303.11413 558.68059,305.41587 C 558.68059,307.06586 558.24438,309.09087 557.71122,309.91587 z M 559.71122,298.91587 C 559.16122,298.91587 558.71122,298.46587 558.71122,297.91587 C 558.71122,297.36586 559.16122,296.91587 559.71122,296.91587 C 560.26122,296.91587 560.71122,297.36586 560.71122,297.91587 C 560.71122,298.46587 560.26122,298.91587 559.71122,298.91587 z M 551.33366,294.91587 C 550.57601,294.91587 549.38688,294.22999 548.69116,293.39169 C 547.99544,292.55341 547.68143,291.61232 547.99336,291.30039 C 548.30529,290.98847 549.49441,291.02967 550.63586,291.39195 C 551.77731,291.75423 552.71122,292.69531 552.71122,293.48325 C 552.71122,294.27119 552.09132,294.91587 551.33366,294.91587 z M 698.19284,226.90056 C 697.63273,226.90898 696.50773,225.83328 695.69284,224.51014 C 694.87795,223.187 662.71332,189.85547 624.21589,150.44008 C 585.71846,111.02469 552.86846,77.956368 551.21589,76.954913 C 549.56332,75.953457 545.96122,74.662652 543.21122,74.086456 C 540.46122,73.51026 523.81122,69.663873 506.21122,65.53893 C 488.61122,61.413987 442.26122,50.570992 403.21122,41.443384 C 364.16122,32.315777 331.51261,24.635954 330.65876,24.37711 C 329.80491,24.118266 328.35449,24.471096 327.4356,25.161175 C 326.27283,26.034408 324.10537,34.016494 320.30639,51.415865 C 317.30421,65.165865 313.91564,80.690865 312.77623,85.915865 C 311.63682,91.140865 308.37585,106.32836 305.52964,119.66587 C 302.68343,133.00337 299.98493,143.91587 299.53297,143.91587 C 299.08101,143.91587 298.71122,143.24061 298.71122,142.41531 C 298.71122,141.59001 302.55098,122.12752 307.24402,99.165319 C 311.93705,76.203119 317.11205,50.925719 318.74402,42.993319 C 320.37598,35.060919 321.71122,27.760095 321.71122,26.769266 C 321.71122,25.17492 321.165,25.290443 316.96122,27.77387 C 314.34872,29.317231 286.11122,47.383853 254.21122,67.921919 C 222.31122,88.459985 189.46122,109.59375 181.21122,114.88584 C 172.96122,120.17793 165.67981,124.83197 165.03032,125.22816 C 164.38082,125.62434 163.6012,125.54688 163.29783,125.05601 C 162.99446,124.56515 174.55087,116.59035 188.97873,107.33423 C 203.4066,98.078119 219.48622,87.742528 224.71122,84.366252 C 229.93622,80.989977 242.53622,72.842213 252.71122,66.260112 C 262.88622,59.67801 279.8485,48.695377 290.40517,41.85426 C 300.96184,35.013143 311.9331,27.990033 314.78573,26.24735 C 317.63836,24.504666 320.52945,23.292617 321.21036,23.553907 C 321.89127,23.815198 322.70152,23.060966 323.01091,21.877838 C 323.49224,20.037256 324.0526,19.821028 326.89233,20.380104 C 328.71772,20.739479 338.76122,23.012949 349.21122,25.432261 C 359.66122,27.851572 396.33622,36.38899 430.71122,44.404302 C 465.08622,52.419613 503.56122,61.420297 516.21122,64.405822 C 528.86122,67.391347 542.41642,70.550494 546.33388,71.426148 L 553.45654,73.018246 L 616.80842,137.71706 C 651.65195,173.3014 685.11635,207.49811 691.17375,213.70977 C 699.97724,222.73743 701.88862,225.19243 700.69921,225.94445 C 699.88082,226.46189 698.75295,226.89214 698.19284,226.90056 z M 391.82925,205.91587 C 391.27925,205.91587 390.55114,205.46587 390.21122,204.91587 C 389.8713,204.36586 390.04319,203.91587 390.59319,203.91587 C 391.14319,203.91587 391.8713,204.36586 392.21122,204.91587 C 392.55114,205.46587 392.37925,205.91587 391.82925,205.91587 z " />
  </g>
</svg>
