<?xml version="1.0" encoding="UTF-8" standalone="no"?>
<!-- Created with Inkscape (http://www.inkscape.org/) -->
<svg
   xmlns:dc="http://purl.org/dc/elements/1.1/"
   xmlns:cc="http://web.resource.org/cc/"
   xmlns:rdf="http://www.w3.org/1999/02/22-rdf-syntax-ns#"
   xmlns:svg="http://www.w3.org/2000/svg"
   xmlns="http://www.w3.org/2000/svg"
   xmlns:sodipodi="http://inkscape.sourceforge.net/DTD/sodipodi-0.dtd"
   xmlns:inkscape="http://www.inkscape.org/namespaces/inkscape"
   id="svg2"
   height="1052.3622"
   width="744.09448"
   y="0.0000000"
   x="0.0000000"
   version="1.0"
   sodipodi:version="0.32"
   inkscape:version="0.43"
   sodipodi:docname="eulertanit1.svg"
   sodipodi:docbase="/home/uyar/ders/ayrik/sunumlar/10.Cizgeler2">
  <metadata
     id="metadata21">
    <rdf:RDF>
      <cc:Work
         rdf:about="">
        <dc:format>image/svg+xml</dc:format>
        <dc:type
           rdf:resource="http://purl.org/dc/dcmitype/StillImage" />
      </cc:Work>
    </rdf:RDF>
  </metadata>
  <sodipodi:namedview
     inkscape:window-height="584"
     inkscape:window-width="814"
     inkscape:pageshadow="2"
     inkscape:pageopacity="0.0"
     borderopacity="1.0"
     bordercolor="#666666"
     pagecolor="#ffffff"
     id="base"
     inkscape:zoom="8.109529"
     inkscape:cx="160.00002"
     inkscape:cy="891.50003"
     inkscape:window-x="0"
     inkscape:window-y="0"
     inkscape:current-layer="svg2" />
  <defs
     id="defs3" />
  <path
     d="M 143.06252,157.1885 C 143.06252,158.90675 144.4275,160.29966 146.11127,160.29966 C 147.79504,160.29966 149.16002,158.90675 149.16002,157.1885 C 149.16002,155.47025 147.79504,154.07734 146.11127,154.07734 C 144.4275,154.07734 143.06252,155.47025 143.06252,157.1885 z "
     style="fill:#000000;fill-opacity:1;fill-rule:evenodd;stroke:#000000;stroke-width:0.09799347;stroke-linecap:butt;stroke-linejoin:round;stroke-miterlimit:4;stroke-opacity:1"
     id="path1291" />
  <path
     d="M 156.84002,171.5358 C 156.84002,173.25405 158.205,174.64696 159.88877,174.64696 C 161.57254,174.64696 162.93752,173.25405 162.93752,171.5358 C 162.93752,169.81755 161.57254,168.42464 159.88877,168.42464 C 158.205,168.42464 156.84002,169.81755 156.84002,171.5358 z "
     style="fill:#000000;fill-opacity:1;fill-rule:evenodd;stroke:#000000;stroke-width:0.09799347;stroke-linecap:butt;stroke-linejoin:round;stroke-miterlimit:4;stroke-opacity:1"
     id="path2136" />
  <path
     d="M 181.84002,182.5358 C 181.84002,184.25405 183.205,185.64696 184.88877,185.64696 C 186.57254,185.64696 187.93752,184.25405 187.93752,182.5358 C 187.93752,180.81755 186.57254,179.42464 184.88877,179.42464 C 183.205,179.42464 181.84002,180.81755 181.84002,182.5358 z "
     style="fill:#000000;fill-opacity:1;fill-rule:evenodd;stroke:#000000;stroke-width:0.09799347;stroke-linecap:butt;stroke-linejoin:round;stroke-miterlimit:4;stroke-opacity:1"
     id="path1345" />
  <path
     d="M 132.06252,182.1885 C 132.06252,183.90675 133.4275,185.29966 135.11127,185.29966 C 136.79504,185.29966 138.16002,183.90675 138.16002,182.1885 C 138.16002,180.47025 136.79504,179.07734 135.11127,179.07734 C 133.4275,179.07734 132.06252,180.47025 132.06252,182.1885 z "
     style="fill:#000000;fill-opacity:1;fill-rule:evenodd;stroke:#000000;stroke-width:0.09799347;stroke-linecap:butt;stroke-linejoin:round;stroke-miterlimit:4;stroke-opacity:1"
     id="path1351" />
  <path
     d="M 177.06252,157.5358 C 177.06252,159.25405 178.4275,160.64696 180.11127,160.64696 C 181.79504,160.64696 183.16002,159.25405 183.16002,157.5358 C 183.16002,155.81755 181.79504,154.42464 180.11127,154.42464 C 178.4275,154.42464 177.06252,155.81755 177.06252,157.5358 z "
     style="fill:#000000;fill-opacity:1;fill-rule:evenodd;stroke:#000000;stroke-width:0.09799347;stroke-linecap:butt;stroke-linejoin:round;stroke-miterlimit:4;stroke-opacity:1"
     id="path1468" />
  <path
     d="M 134.54447,182.31545 L 146,157.36218"
     style="fill:none;fill-opacity:0.75;fill-rule:evenodd;stroke:#000000;stroke-width:1px;stroke-linecap:butt;stroke-linejoin:miter;stroke-opacity:1"
     id="path1540" />
  <path
     d="M 134.65677,182.76468 L 159.47675,172.36218"
     style="fill:none;fill-opacity:0.75;fill-rule:evenodd;stroke:#000000;stroke-width:1px;stroke-linecap:butt;stroke-linejoin:miter;stroke-opacity:1"
     id="path1542" />
  <path
     d="M 159.47675,172.20777 L 180,157.36218"
     style="fill:none;fill-opacity:0.75;fill-rule:evenodd;stroke:#000000;stroke-width:1px;stroke-linecap:butt;stroke-linejoin:miter;stroke-opacity:1"
     id="path1544" />
  <path
     d="M 159.36444,171.87085 L 185,182.36218"
     style="fill:none;fill-opacity:0.75;fill-rule:evenodd;stroke:#000000;stroke-width:1px;stroke-linecap:butt;stroke-linejoin:miter;stroke-opacity:1"
     id="path1546" />
  <path
     d="M 184.52134,182.65237 L 133.5337,183.36218"
     style="fill:none;fill-opacity:0.75;fill-rule:evenodd;stroke:#000000;stroke-width:1px;stroke-linecap:butt;stroke-linejoin:miter;stroke-opacity:1"
     id="path1548" />
  <path
     d="M 184.74595,183.21391 L 180,157.36218"
     style="fill:none;fill-opacity:0.75;fill-rule:evenodd;stroke:#000000;stroke-width:1px;stroke-linecap:butt;stroke-linejoin:miter;stroke-opacity:1"
     id="path1550" />
  <path
     d="M 159.81367,171.64623 L 146,157.36218"
     style="fill:none;fill-opacity:0.75;fill-rule:evenodd;stroke:#000000;stroke-width:1px;stroke-linecap:butt;stroke-linejoin:miter;stroke-opacity:1"
     id="path1552" />
  <path
     d="M 159.81367,171.64623 L 146,157.36218"
     style="fill:none;fill-opacity:0.75;fill-rule:evenodd;stroke:#000000;stroke-width:1px;stroke-linecap:butt;stroke-linejoin:miter;stroke-opacity:1"
     id="path1554" />
  <path
     d="M 163.06252,139.1885 C 163.06252,140.90675 164.4275,142.29966 166.11127,142.29966 C 167.79504,142.29966 169.16002,140.90675 169.16002,139.1885 C 169.16002,137.47025 167.79504,136.07734 166.11127,136.07734 C 164.4275,136.07734 163.06252,137.47025 163.06252,139.1885 z "
     style="fill:#000000;fill-opacity:1;fill-rule:evenodd;stroke:#000000;stroke-width:0.09799347;stroke-linecap:butt;stroke-linejoin:round;stroke-miterlimit:4;stroke-opacity:1"
     id="path1556" />
  <path
     d="M 166.01494,139.24772 L 160,172.36218"
     style="fill:none;fill-opacity:0.75;fill-rule:evenodd;stroke:#000000;stroke-width:1;stroke-linecap:butt;stroke-linejoin:miter;stroke-miterlimit:4;stroke-dasharray:6, 2;stroke-dashoffset:0;stroke-opacity:1"
     id="path1558" />
</svg>
