<?xml version="1.0" encoding="UTF-8" standalone="no"?>
<!-- Created with Inkscape (http://www.inkscape.org/) -->
<svg
   xmlns:dc="http://purl.org/dc/elements/1.1/"
   xmlns:cc="http://web.resource.org/cc/"
   xmlns:rdf="http://www.w3.org/1999/02/22-rdf-syntax-ns#"
   xmlns:svg="http://www.w3.org/2000/svg"
   xmlns="http://www.w3.org/2000/svg"
   xmlns:sodipodi="http://inkscape.sourceforge.net/DTD/sodipodi-0.dtd"
   xmlns:inkscape="http://www.inkscape.org/namespaces/inkscape"
   sodipodi:docname="konigcizge.svg"
   sodipodi:docbase="/home/uyar/ders/ayrik/sunumlar/09.Cizgeler1"
   inkscape:version="0.43"
   sodipodi:version="0.32"
   id="svg2"
   height="297mm"
   width="210mm">
  <defs
     id="defs3" />
  <sodipodi:namedview
     inkscape:window-y="0"
     inkscape:window-x="0"
     inkscape:window-height="949"
     inkscape:window-width="1272"
     inkscape:current-layer="layer1"
     inkscape:document-units="px"
     inkscape:cy="728.71307"
     inkscape:cx="328.96648"
     inkscape:zoom="3.5356198"
     inkscape:pageshadow="2"
     inkscape:pageopacity="0.0"
     borderopacity="1.0"
     bordercolor="#666666"
     pagecolor="#ffffff"
     id="base" />
  <metadata
     id="metadata4">
    <rdf:RDF>
      <cc:Work
         rdf:about="">
        <dc:format>image/svg+xml</dc:format>
        <dc:type
           rdf:resource="http://purl.org/dc/dcmitype/StillImage" />
      </cc:Work>
    </rdf:RDF>
  </metadata>
  <g
     id="layer1"
     inkscape:groupmode="layer"
     inkscape:label="Layer 1">
    <path
       id="path1295"
       d="M 165.71903,283.01538 C 172.47468,281.87678 192.87715,273.92614 205.68170,271.22852 C 218.32428,268.56504 236.84904,271.22852 249.64065,271.22852 C 265.61635,271.22852 272.54921,271.62000 283.60894,276.28003 C 293.33198,280.37686 302.01582,281.51006 313.58094,286.38305 C 327.29236,292.16039 347.18481,280.14544 357.53990,277.96387 C 374.32737,274.42716 385.03626,272.31931 401.49885,269.54469 C 412.88257,267.62607 427.71350,269.54469 439.46338,269.54469 C 456.57153,269.54469 471.14167,269.60618 487.41861,266.17701"
       style="fill:none;fill-opacity:0.75000000;fill-rule:evenodd;stroke:#000000;stroke-width:0.64199299px;stroke-linecap:butt;stroke-linejoin:miter;stroke-opacity:1.0000000;font-family:Arial;font-weight:normal;font-style:normal;font-stretch:normal;font-variant:normal;font-size:10;text-anchor:start;text-align:start;writing-mode:lr;line-height:125%" />
    <path
       id="path1297"
       d="M 163.22217,361.75909 C 167.11721,361.75909 184.29000,367.91323 198.66434,367.91323 C 214.64808,367.91323 230.63180,367.91323 246.61553,367.91323 C 260.75720,367.91323 272.06208,366.68240 286.22739,366.68240 C 298.73638,366.68240 311.24539,366.68240 323.75438,366.68240 C 333.98002,366.68240 344.91324,371.60571 361.28141,371.60571 C 381.67710,371.60571 401.94289,370.37488 421.74160,370.37488 C 428.43196,370.37488 444.75739,361.43919 450.92926,360.52826 C 466.53870,358.22441 480.00616,351.32975 494.71078,346.98915"
       style="fill:none;fill-opacity:0.75000000;fill-rule:evenodd;stroke:#000000;stroke-width:0.56066370px;stroke-linecap:butt;stroke-linejoin:miter;stroke-opacity:1.0000000;font-family:Arial;font-weight:normal;font-style:normal;font-stretch:normal;font-variant:normal;font-size:10;text-anchor:start;text-align:start;writing-mode:lr;line-height:125%" />
    <path
       id="path1299"
       d="M 253.52869,300.38796 C 247.92357,298.72247 238.86152,299.20140 231.77506,299.20140 C 225.38907,299.20140 218.77415,300.38796 212.39455,300.38796 C 206.53179,300.38796 199.23765,300.56712 194.20061,301.57452 C 190.30611,302.35342 185.25438,306.13506 182.73051,308.29837 C 180.80071,309.95249 179.96187,312.02158 179.96187,314.62670 C 179.96187,317.13167 179.96187,319.63663 179.96187,322.14159 C 179.96187,324.06138 190.81859,327.76771 193.01405,328.86544 C 193.34758,329.03221 193.54141,329.39281 193.80509,329.65649 C 197.48450,333.33590 214.27770,340.70745 220.70049,342.31314 C 230.89803,344.86253 233.80423,346.66387 245.61828,346.66387 C 256.39028,346.66387 266.95416,346.26835 277.65545,346.26835 C 287.80581,346.26835 297.34858,344.68627 307.31949,344.68627 C 312.54353,344.68627 328.22423,342.37100 331.84177,338.75346 C 334.37074,336.22449 332.51972,326.43547 331.84177,323.72368 C 330.06674,316.62357 322.61684,311.73010 318.78959,307.90285 C 316.13475,305.24801 311.54471,305.13421 307.71501,305.13421 C 302.38320,305.13421 296.88832,306.71629 291.49867,306.71629 C 287.42413,306.71629 283.85060,305.92525 280.42409,305.92525 C 276.13131,305.92525 271.04076,306.26350 267.37192,305.52973 C 264.49045,304.95344 263.11984,304.19473 261.04359,303.15661 C 258.65276,301.96119 256.02295,301.88451 253.52869,300.38796 z "
       style="fill:none;fill-opacity:0.75000000;fill-rule:evenodd;stroke:#000000;stroke-width:1.0000000px;stroke-linecap:butt;stroke-linejoin:miter;stroke-opacity:1.0000000;font-family:Arial;font-weight:normal;font-style:normal;font-stretch:normal;font-variant:normal;font-size:10;text-anchor:start;text-align:start;writing-mode:lr;line-height:125%" />
    <path
       id="path1301"
       d="M 444.69189,301.57452 C 437.66122,298.05919 425.45228,297.22380 416.60993,297.22380 C 407.44003,297.22380 395.60416,298.45354 388.92349,305.13421 C 385.66409,308.39361 378.10790,310.57614 374.28923,313.44014 C 372.43467,314.83106 372.31163,317.54645 372.31163,319.76847 C 372.31163,323.90181 373.50053,325.31044 375.08027,328.46992 C 376.20474,330.71887 387.82204,335.98482 390.50557,335.98482 C 397.36126,335.98482 404.21695,335.98482 411.07264,335.98482 C 422.36191,335.98482 433.45706,335.19377 444.69189,335.19377 C 451.74122,335.19377 462.15267,337.11351 467.63209,331.63409 C 473.18247,326.08370 477.12458,324.91196 477.12458,316.60431 C 477.12458,313.48229 476.20762,309.82194 474.35594,307.50733 C 470.41654,302.58309 465.40158,299.89128 459.72168,297.61932 C 457.48197,296.72344 455.55068,296.82828 452.99783,296.82828 C 450.56953,296.82828 448.08330,296.67259 445.87845,297.22380 C 443.82664,297.73675 442.21510,298.21452 440.73669,298.80588 C 439.13493,299.44658 435.76498,298.80588 434.01284,298.80588 C 432.01447,298.80588 429.08729,298.16778 426.89347,297.61932 C 425.04485,297.15716 423.27383,297.22380 421.35618,297.22380"
       style="fill:none;fill-opacity:0.75000000;fill-rule:evenodd;stroke:#000000;stroke-width:1.0000000px;stroke-linecap:butt;stroke-linejoin:miter;stroke-opacity:1.0000000;font-family:Arial;font-weight:normal;font-style:normal;font-stretch:normal;font-variant:normal;font-size:10;text-anchor:start;text-align:start;writing-mode:lr;line-height:125%" />
    <g
       id="g1327">
      <path
         transform="matrix(-0.194011,0.000000,0.000000,0.197983,336.6046,216.3169)"
         d="M 145.71429 208.07646 A 15.714286 15.714286 0 1 1  114.28571,208.07646 A 15.714286 15.714286 0 1 1  145.71429 208.07646 z"
         sodipodi:ry="15.714286"
         sodipodi:rx="15.714286"
         sodipodi:cy="208.07646"
         sodipodi:cx="130.00000"
         id="path1291"
         style="fill:#000000;fill-opacity:1.0000000;fill-rule:evenodd;stroke:#000000;stroke-width:0.50000000;stroke-linecap:butt;stroke-linejoin:round;stroke-miterlimit:4.0000000;stroke-opacity:1.0000000;font-family:Arial;font-weight:normal;font-style:normal;font-stretch:normal;font-variant:normal;font-size:51.02380857;text-anchor:start;text-align:start;writing-mode:lr;line-height:125%"
         sodipodi:type="arc" />
      <text
         sodipodi:linespacing="125%"
         id="text1293"
         y="251.15485"
         x="308.6716"
         style="font-size:10;font-style:normal;font-variant:normal;font-weight:normal;font-stretch:normal;fill:#000000;fill-opacity:1.0000000;stroke:none;stroke-width:1.0000000px;stroke-linecap:butt;stroke-linejoin:miter;stroke-opacity:1.0000000;font-family:Arial;text-anchor:start;writing-mode:lr;text-align:start;line-height:125%"
         xml:space="preserve"><tspan
           y="251.15485"
           x="308.6716"
           id="tspan1295"
           sodipodi:role="line">a</tspan></text>
    </g>
    <g
       id="g1337">
      <path
         transform="matrix(-0.194011,0.000000,0.000000,0.197983,279.0652,281.0914)"
         d="M 145.71429 208.07646 A 15.714286 15.714286 0 1 1  114.28571,208.07646 A 15.714286 15.714286 0 1 1  145.71429 208.07646 z"
         sodipodi:ry="15.714286"
         sodipodi:rx="15.714286"
         sodipodi:cy="208.07646"
         sodipodi:cx="130.00000"
         id="path2136"
         style="fill:#000000;fill-opacity:1.0000000;fill-rule:evenodd;stroke:#000000;stroke-width:0.50000000;stroke-linecap:butt;stroke-linejoin:round;stroke-miterlimit:4.0000000;stroke-opacity:1.0000000;font-family:Arial;font-weight:normal;font-style:normal;font-stretch:normal;font-variant:normal;font-size:51.02380857;text-anchor:start;text-align:start;writing-mode:lr;line-height:125%"
         sodipodi:type="arc" />
      <text
         sodipodi:linespacing="125%"
         id="text2138"
         y="324.83633"
         x="243.80417"
         style="font-size:10;font-style:normal;font-variant:normal;font-weight:normal;font-stretch:normal;fill:#000000;fill-opacity:1.0000000;stroke:none;stroke-width:1.0000000px;stroke-linecap:butt;stroke-linejoin:miter;stroke-opacity:1.0000000;font-family:Arial;text-anchor:start;writing-mode:lr;text-align:start;line-height:125%"
         xml:space="preserve"><tspan
           y="324.83633"
           x="243.80417"
           id="tspan2140"
           sodipodi:role="line">c</tspan></text>
    </g>
    <g
       id="g1332">
      <text
         sodipodi:linespacing="125%"
         id="text2132"
         y="401.32892"
         x="301.18085"
         style="font-size:10;font-style:normal;font-variant:normal;font-weight:normal;font-stretch:normal;fill:#000000;fill-opacity:1.0000000;stroke:none;stroke-width:1.0000000px;stroke-linecap:butt;stroke-linejoin:miter;stroke-opacity:1.0000000;font-family:Arial;text-anchor:start;writing-mode:lr;text-align:start;line-height:125%"
         xml:space="preserve"><tspan
           y="401.32892"
           x="301.18085"
           id="tspan2134"
           sodipodi:role="line">b</tspan></text>
      <path
         transform="matrix(-0.194011,0.000000,0.000000,0.197983,329.1341,346.2094)"
         d="M 145.71429 208.07646 A 15.714286 15.714286 0 1 1  114.28571,208.07646 A 15.714286 15.714286 0 1 1  145.71429 208.07646 z"
         sodipodi:ry="15.714286"
         sodipodi:rx="15.714286"
         sodipodi:cy="208.07646"
         sodipodi:cx="130.00000"
         id="path1361"
         style="fill:#000000;fill-opacity:1.0000000;fill-rule:evenodd;stroke:#000000;stroke-width:0.50000000;stroke-linecap:butt;stroke-linejoin:round;stroke-miterlimit:4.0000000;stroke-opacity:1.0000000;font-family:Arial;font-weight:normal;font-style:normal;font-stretch:normal;font-variant:normal;font-size:51.02380857;text-anchor:start;text-align:start;writing-mode:lr;line-height:125%"
         sodipodi:type="arc" />
    </g>
    <g
       id="g1342">
      <path
         transform="matrix(-0.194011,0.000000,0.000000,0.197983,431.1341,280.2094)"
         d="M 145.71429 208.07646 A 15.714286 15.714286 0 1 1  114.28571,208.07646 A 15.714286 15.714286 0 1 1  145.71429 208.07646 z"
         sodipodi:ry="15.714286"
         sodipodi:rx="15.714286"
         sodipodi:cy="208.07646"
         sodipodi:cx="130.00000"
         id="path2130"
         style="fill:#000000;fill-opacity:1.0000000;fill-rule:evenodd;stroke:#000000;stroke-width:0.50000000;stroke-linecap:butt;stroke-linejoin:round;stroke-miterlimit:4.0000000;stroke-opacity:1.0000000;font-family:Arial;font-weight:normal;font-style:normal;font-stretch:normal;font-variant:normal;font-size:51.02380857;text-anchor:start;text-align:start;writing-mode:lr;line-height:125%"
         sodipodi:type="arc" />
      <text
         sodipodi:linespacing="125%"
         id="text1363"
         y="323.29309"
         x="410.8562"
         style="font-size:10;font-style:normal;font-variant:normal;font-weight:normal;font-stretch:normal;fill:#000000;fill-opacity:1.0000000;stroke:none;stroke-width:1.0000000px;stroke-linecap:butt;stroke-linejoin:miter;stroke-opacity:1.0000000;font-family:Arial;text-anchor:start;writing-mode:lr;text-align:start;line-height:125%"
         xml:space="preserve"><tspan
           y="323.29309"
           x="410.8562"
           id="tspan1365"
           sodipodi:role="line">d</tspan></text>
    </g>
    <path
       style="fill:none;fill-opacity:0.75000000;fill-rule:evenodd;stroke:#000000;stroke-width:1.0000000;stroke-linecap:butt;stroke-linejoin:miter;stroke-opacity:1.0000000;stroke-dasharray:none;stroke-miterlimit:4.0000000;font-family:Arial;font-weight:normal;font-style:normal;font-stretch:normal;font-variant:normal;font-size:10;text-anchor:start;text-align:start;writing-mode:lr;line-height:125%"
       d="M 313.19261,257.13375 C 296.07042,266.94256 276.44250,270.36640 263.70526,286.28257 C 250.75917,300.90325 257.23219,312.47025 254.93532,325.42527"
       id="path1392"
       sodipodi:nodetypes="ccc" />
    <path
       style="fill:none;fill-opacity:0.75000000;fill-rule:evenodd;stroke:#000000;stroke-width:1.0000000;stroke-linecap:butt;stroke-linejoin:miter;stroke-opacity:1.0000000;stroke-dasharray:none;stroke-miterlimit:4.0000000;font-family:Arial;font-weight:normal;font-style:normal;font-stretch:normal;font-variant:normal;font-size:10;text-anchor:start;text-align:start;writing-mode:lr;line-height:125%"
       d="M 311.47442,258.36379 C 313.41109,269.96699 324.06280,281.81884 317.28443,293.17341 C 306.43905,308.58911 280.48764,318.53471 255.11726,322.26433"
       id="path1394"
       sodipodi:nodetypes="ccc" />
    <path
       style="stroke-miterlimit:4.0000000;stroke-dasharray:none;stroke-opacity:1.0000000;stroke-linejoin:miter;stroke-linecap:butt;stroke-width:1.0000000;stroke:#000000;fill-rule:evenodd;fill-opacity:0.75000000;fill:none;font-family:Arial;font-weight:normal;font-style:normal;font-stretch:normal;font-variant:normal;font-size:10;text-anchor:start;text-align:start;writing-mode:lr;line-height:125%"
       d="M 308.83748,258.26338 C 326.19473,260.97457 347.15870,265.16459 363.61428,273.79113 C 389.08661,286.11474 399.23047,298.68483 405.54221,320.37439"
       id="path1396"
       sodipodi:nodetypes="ccc" />
    <path
       style="fill:none;fill-opacity:0.75000000;fill-rule:evenodd;stroke:#000000;stroke-width:1.0000000;stroke-linecap:butt;stroke-linejoin:miter;stroke-opacity:1.0000000;stroke-dasharray:none;stroke-miterlimit:4.0000000;font-family:Arial;font-weight:normal;font-style:normal;font-stretch:normal;font-variant:normal;font-size:10;text-anchor:start;text-align:start;writing-mode:lr;line-height:125%"
       d="M 254.42449,321.90346 C 256.60176,330.96572 261.69140,344.92650 270.54388,357.17280 C 282.24078,372.92972 293.98359,384.76780 302.48777,387.54364"
       id="path1398"
       sodipodi:nodetypes="ccc" />
    <path
       style="stroke-miterlimit:4.0000000;stroke-dasharray:none;stroke-opacity:1.0000000;stroke-linejoin:miter;stroke-linecap:butt;stroke-width:1.0000000;stroke:#000000;fill-rule:evenodd;fill-opacity:0.75000000;fill:none;font-family:Arial;font-weight:normal;font-style:normal;font-stretch:normal;font-variant:normal;font-size:10;text-anchor:start;text-align:start;writing-mode:lr;line-height:125%"
       d="M 254.60977,321.96811 C 276.52813,328.29352 293.45243,336.54056 304.13417,351.75357 C 312.18015,363.04321 310.65420,374.33285 303.30184,389.22558"
       id="path1400"
       sodipodi:nodetypes="ccc" />
    <path
       style="stroke-miterlimit:4.0000000;stroke-dasharray:none;stroke-opacity:1.0000000;stroke-linejoin:miter;stroke-linecap:butt;stroke-width:1.0000000;stroke:#000000;fill-rule:evenodd;fill-opacity:0.75000000;fill:none;font-family:Arial;font-weight:normal;font-style:normal;font-stretch:normal;font-variant:normal;font-size:10;text-anchor:start;text-align:start;writing-mode:lr;line-height:125%"
       d="M 304.87657,387.95696 C 336.97632,377.87253 349.86548,371.17648 366.44898,362.78625 C 380.81588,353.10521 404.29549,341.48794 405.85530,321.39978"
       id="path1402"
       sodipodi:nodetypes="ccc" />
    <path
       style="fill:none;fill-opacity:0.75000000;fill-rule:evenodd;stroke:#000000;stroke-width:1.0000000;stroke-linecap:butt;stroke-linejoin:miter;stroke-opacity:1.0000000;stroke-dasharray:none;stroke-miterlimit:4.0000000;font-family:Arial;font-weight:normal;font-style:normal;font-stretch:normal;font-variant:normal;font-size:10;text-anchor:start;text-align:start;writing-mode:lr;line-height:125%"
       d="M 253.70142,322.13625 C 304.15005,321.85050 354.59870,321.56476 405.04733,321.27901"
       id="path1404"
       sodipodi:nodetypes="cc" />
  </g>
</svg>
