<?xml version="1.0" encoding="UTF-8" standalone="no"?>
<!-- Created with Inkscape (http://www.inkscape.org/) -->
<svg
   xmlns:dc="http://purl.org/dc/elements/1.1/"
   xmlns:cc="http://creativecommons.org/ns#"
   xmlns:rdf="http://www.w3.org/1999/02/22-rdf-syntax-ns#"
   xmlns:svg="http://www.w3.org/2000/svg"
   xmlns="http://www.w3.org/2000/svg"
   xmlns:sodipodi="http://sodipodi.sourceforge.net/DTD/sodipodi-0.dtd"
   xmlns:inkscape="http://www.inkscape.org/namespaces/inkscape"
   sodipodi:docname="planardodeca.svg"
   sodipodi:docbase="/home/gencata/academic/DERS/DM/beamer/05.Cizgeler"
   inkscape:version="0.46"
   sodipodi:version="0.32"
   id="svg2"
   height="297mm"
   width="210mm"
   inkscape:output_extension="org.inkscape.output.svg.inkscape">
  <defs
     id="defs3">
    <inkscape:perspective
       sodipodi:type="inkscape:persp3d"
       inkscape:vp_x="0 : 526.18109 : 1"
       inkscape:vp_y="0 : 1000 : 0"
       inkscape:vp_z="744.09448 : 526.18109 : 1"
       inkscape:persp3d-origin="372.04724 : 350.78739 : 1"
       id="perspective27" />
    <marker
       style="overflow:visible"
       id="TriangleOutM"
       refX="0.0"
       refY="0.0"
       orient="auto"
       inkscape:stockid="TriangleOutM">
      <path
         transform="scale(0.4)"
         style="fill-rule:evenodd;stroke:#000000;stroke-width:1.0pt;marker-start:none"
         d="M 5.77,0.0 L -2.88,5.0 L -2.88,-5.0 L 5.77,0.0 z "
         id="path2168"
         sodipodi:nodetypes="cccc" />
    </marker>
    <marker
       style="overflow:visible"
       id="TriangleOutS"
       refX="0.0"
       refY="0.0"
       orient="auto"
       inkscape:stockid="TriangleOutS">
      <path
         transform="scale(0.2)"
         style="fill-rule:evenodd;stroke:#000000;stroke-width:1.0pt;marker-start:none"
         d="M 5.77,0.0 L -2.88,5.0 L -2.88,-5.0 L 5.77,0.0 z "
         id="path1051"
         sodipodi:nodetypes="cccc" />
    </marker>
    <marker
       style="overflow:visible"
       id="Arrow1Mstart"
       refX="0.0"
       refY="0.0"
       orient="auto"
       inkscape:stockid="Arrow1Mstart">
      <path
         transform="scale(0.4)"
         style="fill-rule:evenodd;stroke:#000000;stroke-width:1.0pt;marker-start:none"
         d="M 0.0,0.0 L 5.0,-5.0 L -12.5,0.0 L 5.0,5.0 L 0.0,0.0 z "
         id="path2241"
         sodipodi:nodetypes="ccccc" />
    </marker>
  </defs>
  <sodipodi:namedview
     showgrid="false"
     inkscape:window-y="0"
     inkscape:window-x="0"
     inkscape:window-height="949"
     inkscape:window-width="1272"
     inkscape:current-layer="layer1"
     inkscape:document-units="px"
     inkscape:cy="526.18109"
     inkscape:cx="372.04724"
     inkscape:zoom="0.71458288"
     inkscape:pageshadow="2"
     inkscape:pageopacity="0.0"
     borderopacity="1.0"
     bordercolor="#666666"
     pagecolor="#ffffff"
     id="base" />
  <metadata
     id="metadata4">
    <rdf:RDF>
      <cc:Work
         rdf:about="">
        <dc:format>image/svg+xml</dc:format>
        <dc:type
           rdf:resource="http://purl.org/dc/dcmitype/StillImage" />
      </cc:Work>
    </rdf:RDF>
  </metadata>
  <g
     id="layer1"
     inkscape:groupmode="layer"
     inkscape:label="Layer 1">
    <path
       transform="matrix(2.2697601,0,0,2.8975253,-55.363823,-246.80387)"
       d="M 122.32833,185.15698 A 1.9960333,1.497025 0 1 1 118.33626,185.15698 A 1.9960333,1.497025 0 1 1 122.32833,185.15698 z"
       sodipodi:ry="1.497025"
       sodipodi:rx="1.9960333"
       sodipodi:cy="185.15698"
       sodipodi:cx="120.3323"
       id="path3088"
       style="font-size:4.94239759px;font-style:normal;font-variant:normal;font-weight:normal;font-stretch:normal;text-align:start;line-height:100%;writing-mode:lr-tb;text-anchor:start;fill:#000000;fill-opacity:1;stroke-width:0.463;stroke-miterlimit:4;stroke-dasharray:none;font-family:Arial"
       sodipodi:type="arc" />
    <path
       transform="matrix(2.2697601,0,0,2.8975253,-115.436,-246.80387)"
       d="M 122.32833,185.15698 A 1.9960333,1.497025 0 1 1 118.33626,185.15698 A 1.9960333,1.497025 0 1 1 122.32833,185.15698 z"
       sodipodi:ry="1.497025"
       sodipodi:rx="1.9960333"
       sodipodi:cy="185.15698"
       sodipodi:cx="120.3323"
       id="path2256"
       style="font-size:4.94239759px;font-style:normal;font-variant:normal;font-weight:normal;font-stretch:normal;text-align:start;line-height:100%;writing-mode:lr-tb;text-anchor:start;opacity:1;fill:#000000;fill-opacity:1;stroke-width:0.463;stroke-miterlimit:4;stroke-dasharray:none;font-family:Arial"
       sodipodi:type="arc" />
    <path
       transform="matrix(0,-2.1700583,3.03065,0,-374.01572,458.18531)"
       d="M 122.32833,185.15698 A 1.9960333,1.497025 0 1 1 118.33626,185.15698 A 1.9960333,1.497025 0 1 1 122.32833,185.15698 z"
       sodipodi:ry="1.497025"
       sodipodi:rx="1.9960333"
       sodipodi:cy="185.15698"
       sodipodi:cx="120.3323"
       id="path3285"
       style="font-size:4.94239759px;font-style:normal;font-variant:normal;font-weight:normal;font-stretch:normal;text-align:start;line-height:100%;writing-mode:lr-tb;text-anchor:start;fill:#000000;fill-opacity:1;stroke-width:0.463;stroke-miterlimit:4;stroke-dasharray:none;font-family:Arial"
       sodipodi:type="arc" />
    <path
       transform="matrix(0,-2.1700583,3.03065,0,-421.40606,496.2119)"
       d="M 122.32833,185.15698 A 1.9960333,1.497025 0 1 1 118.33626,185.15698 A 1.9960333,1.497025 0 1 1 122.32833,185.15698 z"
       sodipodi:ry="1.497025"
       sodipodi:rx="1.9960333"
       sodipodi:cy="185.15698"
       sodipodi:cx="120.3323"
       id="path3287"
       style="font-size:4.94239759px;font-style:normal;font-variant:normal;font-weight:normal;font-stretch:normal;text-align:start;line-height:100%;writing-mode:lr-tb;text-anchor:start;fill:#000000;fill-opacity:1;stroke-width:0.463;stroke-miterlimit:4;stroke-dasharray:none;font-family:Arial"
       sodipodi:type="arc" />
    <path
       transform="matrix(0,-2.1700583,3.03065,0,-326.2634,496.2119)"
       d="M 122.32833,185.15698 A 1.9960333,1.497025 0 1 1 118.33626,185.15698 A 1.9960333,1.497025 0 1 1 122.32833,185.15698 z"
       sodipodi:ry="1.497025"
       sodipodi:rx="1.9960333"
       sodipodi:cy="185.15698"
       sodipodi:cx="120.3323"
       id="path3289"
       style="font-size:4.94239759px;font-style:normal;font-variant:normal;font-weight:normal;font-stretch:normal;text-align:start;line-height:100%;writing-mode:lr-tb;text-anchor:start;fill:#000000;fill-opacity:1;stroke-width:0.463;stroke-miterlimit:4;stroke-dasharray:none;font-family:Arial"
       sodipodi:type="arc" />
    <path
       style="fill:none;fill-opacity:0.75;fill-rule:evenodd;stroke:#000000;stroke-width:1.26748049px;stroke-linecap:butt;stroke-linejoin:miter;stroke-opacity:1"
       d="M 188.03811,197.34324 L 235.22038,235.25056"
       id="path2400" />
    <path
       id="path2402"
       d="M 185.96211,197.34324 L 138.77984,235.25056"
       style="fill:none;fill-opacity:0.75;fill-rule:evenodd;stroke:#000000;stroke-width:1.26748049px;stroke-linecap:butt;stroke-linejoin:miter;stroke-opacity:1" />
    <path
       style="fill:none;fill-opacity:0.75;fill-rule:evenodd;stroke:#000000;stroke-width:1.31727946px;stroke-linecap:butt;stroke-linejoin:miter;stroke-opacity:1"
       d="M 139.82402,234.89583 L 157.48112,289.37086"
       id="path2404" />
    <path
       id="path2406"
       d="M 235.40264,234.88504 L 218.25898,289.12541"
       style="fill:none;fill-opacity:0.75;fill-rule:evenodd;stroke:#000000;stroke-width:1.29518747px;stroke-linecap:butt;stroke-linejoin:miter;stroke-opacity:1" />
    <path
       style="fill:none;fill-opacity:0.75;fill-rule:evenodd;stroke:#000000;stroke-width:1.26748049px;stroke-linecap:butt;stroke-linejoin:miter;stroke-opacity:1"
       d="M 157.72109,290.11493 L 217.75694,289.9868"
       id="path2408" />
    <path
       sodipodi:type="arc"
       style="font-size:4.94239759px;font-style:normal;font-variant:normal;font-weight:normal;font-stretch:normal;text-align:start;line-height:100%;writing-mode:lr-tb;text-anchor:start;fill:#000000;fill-opacity:1;stroke-width:0.463;stroke-miterlimit:4;stroke-dasharray:none;font-family:Arial"
       id="path2410"
       sodipodi:cx="120.3323"
       sodipodi:cy="185.15698"
       sodipodi:rx="1.9960333"
       sodipodi:ry="1.497025"
       d="M 122.32833,185.15698 A 1.9960333,1.497025 0 1 1 118.33626,185.15698 A 1.9960333,1.497025 0 1 1 122.32833,185.15698 z"
       transform="matrix(2.2697601,0,0,2.8975253,-68.326526,-261.67583)" />
    <path
       sodipodi:type="arc"
       style="font-size:4.94239759px;font-style:normal;font-variant:normal;font-weight:normal;font-stretch:normal;text-align:start;line-height:100%;writing-mode:lr-tb;text-anchor:start;opacity:1;fill:#000000;fill-opacity:1;stroke-width:0.463;stroke-miterlimit:4;stroke-dasharray:none;font-family:Arial"
       id="path2412"
       sodipodi:cx="120.3323"
       sodipodi:cy="185.15698"
       sodipodi:rx="1.9960333"
       sodipodi:ry="1.497025"
       d="M 122.32833,185.15698 A 1.9960333,1.497025 0 1 1 118.33626,185.15698 A 1.9960333,1.497025 0 1 1 122.32833,185.15698 z"
       transform="matrix(2.2697601,0,0,2.8975253,-105.06583,-261.67583)" />
    <path
       sodipodi:type="arc"
       style="font-size:4.94239759px;font-style:normal;font-variant:normal;font-weight:normal;font-stretch:normal;text-align:start;line-height:100%;writing-mode:lr-tb;text-anchor:start;fill:#000000;fill-opacity:1;stroke-width:0.463;stroke-miterlimit:4;stroke-dasharray:none;font-family:Arial"
       id="path2414"
       sodipodi:cx="120.3323"
       sodipodi:cy="185.15698"
       sodipodi:rx="1.9960333"
       sodipodi:ry="1.497025"
       d="M 122.32833,185.15698 A 1.9960333,1.497025 0 1 1 118.33626,185.15698 A 1.9960333,1.497025 0 1 1 122.32833,185.15698 z"
       transform="matrix(0,-2.1700583,3.03065,0,-374.01572,475.53594)" />
    <path
       sodipodi:type="arc"
       style="font-size:4.94239759px;font-style:normal;font-variant:normal;font-weight:normal;font-stretch:normal;text-align:start;line-height:100%;writing-mode:lr-tb;text-anchor:start;fill:#000000;fill-opacity:1;stroke-width:0.463;stroke-miterlimit:4;stroke-dasharray:none;font-family:Arial"
       id="path2416"
       sodipodi:cx="120.3323"
       sodipodi:cy="185.15698"
       sodipodi:rx="1.9960333"
       sodipodi:ry="1.497025"
       d="M 122.32833,185.15698 A 1.9960333,1.497025 0 1 1 118.33626,185.15698 A 1.9960333,1.497025 0 1 1 122.32833,185.15698 z"
       transform="matrix(0,-2.1700583,3.03065,0,-405.85082,503.64788)" />
    <path
       sodipodi:type="arc"
       style="font-size:4.94239759px;font-style:normal;font-variant:normal;font-weight:normal;font-stretch:normal;text-align:start;line-height:100%;writing-mode:lr-tb;text-anchor:start;fill:#000000;fill-opacity:1;stroke-width:0.463;stroke-miterlimit:4;stroke-dasharray:none;font-family:Arial"
       id="path2418"
       sodipodi:cx="120.3323"
       sodipodi:cy="185.15698"
       sodipodi:rx="1.9960333"
       sodipodi:ry="1.497025"
       d="M 122.32833,185.15698 A 1.9960333,1.497025 0 1 1 118.33626,185.15698 A 1.9960333,1.497025 0 1 1 122.32833,185.15698 z"
       transform="matrix(0,-2.1700583,3.03065,0,-344.41119,503.64788)" />
    <path
       style="fill:none;fill-opacity:0.75;fill-rule:evenodd;stroke:#000000;stroke-width:1.28639388px;stroke-linecap:butt;stroke-linejoin:miter;stroke-opacity:1"
       d="M 187.33672,214.57546 L 155.1846,244.01485 L 168.17941,274.64235 L 205.28832,274.37832 L 217.74727,243.35477 L 186.53291,214.44345"
       id="path2420" />
    <path
       style="fill:none;fill-opacity:0.75;fill-rule:evenodd;stroke:#000000;stroke-width:1.26748049px;stroke-linecap:butt;stroke-linejoin:miter;stroke-opacity:1"
       d="M 139.62994,235.06186 L 155.84497,242.74919"
       id="path2422" />
    <path
       style="fill:none;fill-opacity:0.75;fill-rule:evenodd;stroke:#000000;stroke-width:1.26748049px;stroke-linecap:butt;stroke-linejoin:miter;stroke-opacity:1"
       d="M 186.80095,196.75336 L 187.20298,214.69045"
       id="path2424" />
    <path
       style="fill:none;fill-opacity:0.75;fill-rule:evenodd;stroke:#000000;stroke-width:1.26748049px;stroke-linecap:butt;stroke-linejoin:miter;stroke-opacity:1"
       d="M 235.31205,235.18999 L 217.35491,242.74919"
       id="path2426" />
    <path
       style="fill:none;fill-opacity:0.75;fill-rule:evenodd;stroke:#000000;stroke-width:1.40949249px;stroke-linecap:butt;stroke-linejoin:miter;stroke-opacity:1"
       d="M 217.4163,289.18808 L 204.56271,272.67107"
       id="path2428" />
    <path
       style="fill:none;fill-opacity:0.75;fill-rule:evenodd;stroke:#000000;stroke-width:1.38313401px;stroke-linecap:butt;stroke-linejoin:miter;stroke-opacity:1"
       d="M 158.18225,288.30412 L 168.38264,273.04255"
       id="path2430" />
    <path
       transform="matrix(0,-2.1700583,3.03065,0,-389.97299,489.59191)"
       d="M 122.32833,185.15698 A 1.9960333,1.497025 0 1 1 118.33626,185.15698 A 1.9960333,1.497025 0 1 1 122.32833,185.15698 z"
       sodipodi:ry="1.497025"
       sodipodi:rx="1.9960333"
       sodipodi:cy="185.15698"
       sodipodi:cx="120.3323"
       id="path2432"
       style="font-size:4.94239759px;font-style:normal;font-variant:normal;font-weight:normal;font-stretch:normal;text-align:start;line-height:100%;writing-mode:lr-tb;text-anchor:start;fill:#000000;fill-opacity:1;stroke-width:0.463;stroke-miterlimit:4;stroke-dasharray:none;font-family:Arial"
       sodipodi:type="arc" />
    <path
       transform="matrix(0,-2.1700583,3.03065,0,-399.72768,518.17798)"
       d="M 122.32833,185.15698 A 1.9960333,1.497025 0 1 1 118.33626,185.15698 A 1.9960333,1.497025 0 1 1 122.32833,185.15698 z"
       sodipodi:ry="1.497025"
       sodipodi:rx="1.9960333"
       sodipodi:cy="185.15698"
       sodipodi:cx="120.3323"
       id="path2434"
       style="font-size:4.94239759px;font-style:normal;font-variant:normal;font-weight:normal;font-stretch:normal;text-align:start;line-height:100%;writing-mode:lr-tb;text-anchor:start;fill:#000000;fill-opacity:1;stroke-width:0.463;stroke-miterlimit:4;stroke-dasharray:none;font-family:Arial"
       sodipodi:type="arc" />
    <path
       transform="matrix(2.2697601,0,0,2.8975253,-86.918051,-261.67583)"
       d="M 122.32833,185.15698 A 1.9960333,1.497025 0 1 1 118.33626,185.15698 A 1.9960333,1.497025 0 1 1 122.32833,185.15698 z"
       sodipodi:ry="1.497025"
       sodipodi:rx="1.9960333"
       sodipodi:cy="185.15698"
       sodipodi:cx="120.3323"
       id="path2436"
       style="font-size:4.94239759px;font-style:normal;font-variant:normal;font-weight:normal;font-stretch:normal;text-align:start;line-height:100%;writing-mode:lr-tb;text-anchor:start;opacity:1;fill:#000000;fill-opacity:1;stroke-width:0.463;stroke-miterlimit:4;stroke-dasharray:none;font-family:Arial"
       sodipodi:type="arc" />
    <path
       transform="matrix(2.2697601,0,0,2.8975253,-61.533342,-279.44716)"
       d="M 122.32833,185.15698 A 1.9960333,1.497025 0 1 1 118.33626,185.15698 A 1.9960333,1.497025 0 1 1 122.32833,185.15698 z"
       sodipodi:ry="1.497025"
       sodipodi:rx="1.9960333"
       sodipodi:cy="185.15698"
       sodipodi:cx="120.3323"
       id="path2438"
       style="font-size:4.94239759px;font-style:normal;font-variant:normal;font-weight:normal;font-stretch:normal;text-align:start;line-height:100%;writing-mode:lr-tb;text-anchor:start;fill:#000000;fill-opacity:1;stroke-width:0.463;stroke-miterlimit:4;stroke-dasharray:none;font-family:Arial"
       sodipodi:type="arc" />
    <path
       transform="matrix(0,-2.1700583,3.03065,0,-358.57997,489.59191)"
       d="M 122.32833,185.15698 A 1.9960333,1.497025 0 1 1 118.33626,185.15698 A 1.9960333,1.497025 0 1 1 122.32833,185.15698 z"
       sodipodi:ry="1.497025"
       sodipodi:rx="1.9960333"
       sodipodi:cy="185.15698"
       sodipodi:cx="120.3323"
       id="path2440"
       style="font-size:4.94239759px;font-style:normal;font-variant:normal;font-weight:normal;font-stretch:normal;text-align:start;line-height:100%;writing-mode:lr-tb;text-anchor:start;fill:#000000;fill-opacity:1;stroke-width:0.463;stroke-miterlimit:4;stroke-dasharray:none;font-family:Arial"
       sodipodi:type="arc" />
    <path
       sodipodi:type="arc"
       style="font-size:4.94239759px;font-style:normal;font-variant:normal;font-weight:normal;font-stretch:normal;text-align:start;line-height:100%;writing-mode:lr-tb;text-anchor:start;fill:#000000;fill-opacity:1;stroke-width:0.463;stroke-miterlimit:4;stroke-dasharray:none;font-family:Arial"
       id="path2442"
       sodipodi:cx="120.3323"
       sodipodi:cy="185.15698"
       sodipodi:rx="1.9960333"
       sodipodi:ry="1.497025"
       d="M 122.32833,185.15698 A 1.9960333,1.497025 0 1 1 118.33626,185.15698 A 1.9960333,1.497025 0 1 1 122.32833,185.15698 z"
       transform="matrix(0,-2.1700583,3.03065,0,-382.19536,501.98521)" />
    <path
       sodipodi:type="arc"
       style="font-size:4.94239759px;font-style:normal;font-variant:normal;font-weight:normal;font-stretch:normal;text-align:start;line-height:100%;writing-mode:lr-tb;text-anchor:start;fill:#000000;fill-opacity:1;stroke-width:0.463;stroke-miterlimit:4;stroke-dasharray:none;font-family:Arial"
       id="path2444"
       sodipodi:cx="120.3323"
       sodipodi:cy="185.15698"
       sodipodi:rx="1.9960333"
       sodipodi:ry="1.497025"
       d="M 122.32833,185.15698 A 1.9960333,1.497025 0 1 1 118.33626,185.15698 A 1.9960333,1.497025 0 1 1 122.32833,185.15698 z"
       transform="matrix(0,-2.1700583,3.03065,0,-366.35759,501.98521)" />
    <path
       style="fill:none;fill-opacity:0.75;fill-rule:evenodd;stroke:#000000;stroke-width:1.26748049px;stroke-linecap:butt;stroke-linejoin:miter;stroke-opacity:1"
       d="M 171.38997,228.52764 L 178.89444,240.69924"
       id="path2446" />
    <path
       style="fill:none;fill-opacity:0.75;fill-rule:evenodd;stroke:#000000;stroke-width:1.26748049px;stroke-linecap:butt;stroke-linejoin:miter;stroke-opacity:1"
       d="M 202.88198,228.01514 L 194.97548,240.443"
       id="path2448" />
    <path
       style="fill:none;fill-opacity:0.75;fill-rule:evenodd;stroke:#000000;stroke-width:1.26748049px;stroke-linecap:butt;stroke-linejoin:miter;stroke-opacity:1"
       d="M 178.62643,241.08361 L 195.10949,240.69924"
       id="path2450" />
    <path
       sodipodi:type="arc"
       style="font-size:4.94239759px;font-style:normal;font-variant:normal;font-weight:normal;font-stretch:normal;text-align:start;line-height:100%;writing-mode:lr-tb;text-anchor:start;fill:#000000;fill-opacity:1;stroke-width:0.463;stroke-miterlimit:4;stroke-dasharray:none;font-family:Arial"
       id="path2452"
       sodipodi:cx="120.3323"
       sodipodi:cy="185.15698"
       sodipodi:rx="1.9960333"
       sodipodi:ry="1.497025"
       d="M 122.32833,185.15698 A 1.9960333,1.497025 0 1 1 118.33626,185.15698 A 1.9960333,1.497025 0 1 1 122.32833,185.15698 z"
       transform="matrix(0,-2.1700583,3.03065,0,-386.76498,515.69932)" />
    <path
       style="fill:none;fill-opacity:0.75;fill-rule:evenodd;stroke:#000000;stroke-width:1.26748049px;stroke-linecap:butt;stroke-linejoin:miter;stroke-opacity:1"
       d="M 161.20532,257.35511 L 174.60617,254.28018 L 179.02845,240.69924"
       id="path2454" />
    <path
       sodipodi:type="arc"
       style="font-size:4.94239759px;font-style:normal;font-variant:normal;font-weight:normal;font-stretch:normal;text-align:start;line-height:100%;writing-mode:lr-tb;text-anchor:start;opacity:1;fill:#000000;fill-opacity:1;stroke-width:0.463;stroke-miterlimit:4;stroke-dasharray:none;font-family:Arial"
       id="path2458"
       sodipodi:cx="120.3323"
       sodipodi:cy="185.15698"
       sodipodi:rx="1.9960333"
       sodipodi:ry="1.497025"
       d="M 122.32833,185.15698 A 1.9960333,1.497025 0 1 1 118.33626,185.15698 A 1.9960333,1.497025 0 1 1 122.32833,185.15698 z"
       transform="matrix(2.2697601,0,0,2.8975253,-86.918051,-274.06913)" />
    <path
       style="fill:none;fill-opacity:0.75;fill-rule:evenodd;stroke:#000000;stroke-width:1.26748049px;stroke-linecap:butt;stroke-linejoin:miter;stroke-opacity:1"
       d="M 174.47217,254.79267 L 186.53294,263.12061"
       id="path2460" />
    <path
       style="fill:none;fill-opacity:0.75;fill-rule:evenodd;stroke:#000000;stroke-width:1.26748049px;stroke-linecap:butt;stroke-linejoin:miter;stroke-opacity:1"
       d="M 186.26492,273.11413 L 186.13091,261.83939"
       id="path2462" />
    <path
       sodipodi:type="arc"
       style="font-size:4.94239759px;font-style:normal;font-variant:normal;font-weight:normal;font-stretch:normal;text-align:start;line-height:100%;writing-mode:lr-tb;text-anchor:start;fill:#000000;fill-opacity:1;stroke-width:0.463;stroke-miterlimit:4;stroke-dasharray:none;font-family:Arial"
       id="path2464"
       sodipodi:cx="120.3323"
       sodipodi:cy="185.15698"
       sodipodi:rx="1.9960333"
       sodipodi:ry="1.497025"
       d="M 122.32833,185.15698 A 1.9960333,1.497025 0 1 1 118.33626,185.15698 A 1.9960333,1.497025 0 1 1 122.32833,185.15698 z"
       transform="matrix(2.2697601,0,0,2.8975253,-74.496045,-281.92582)" />
    <path
       style="fill:none;fill-opacity:0.75;fill-rule:evenodd;stroke:#000000;stroke-width:1.26748049px;stroke-linecap:butt;stroke-linejoin:miter;stroke-opacity:1"
       d="M 195.10949,240.82736 L 198.99573,254.79267 L 187.06897,262.60812"
       id="path2466" />
    <path
       style="fill:none;fill-opacity:0.75;fill-rule:evenodd;stroke:#000000;stroke-width:1.26748049px;stroke-linecap:butt;stroke-linejoin:miter;stroke-opacity:1"
       d="M 211.59254,257.09886 L 198.86172,254.53642"
       id="path2468" />
  </g>
</svg>
